<svg width="283" height="45" viewBox="0 0 283 45" fill="none" xmlns="http://www.w3.org/2000/svg">
<rect opacity="0.2" width="283" height="45" rx="22.5" fill="url(#paint0_radial_121_552)"/>
<path d="M72.17 30.3C71.1833 30.3 70.3233 30.1567 69.59 29.87C68.8633 29.5767 68.26 29.1967 67.78 28.73C67.3067 28.2567 66.9467 27.75 66.7 27.21L68.28 26.23C68.44 26.65 68.6867 27.04 69.02 27.4C69.36 27.76 69.7933 28.05 70.32 28.27C70.8533 28.49 71.4933 28.6 72.24 28.6C73 28.6 73.6367 28.4833 74.15 28.25C74.6633 28.01 75.0467 27.6867 75.3 27.28C75.56 26.8667 75.69 26.3933 75.69 25.86C75.69 25.2533 75.54 24.7867 75.24 24.46C74.94 24.1267 74.5367 23.8933 74.03 23.76C73.53 23.62 72.9767 23.54 72.37 23.52C71.8967 23.5 71.5567 23.4867 71.35 23.48C71.1433 23.4733 71.0033 23.47 70.93 23.47C70.8633 23.47 70.8 23.47 70.74 23.47V21.77C70.8 21.77 70.9267 21.77 71.12 21.77C71.3133 21.77 71.5167 21.77 71.73 21.77C71.9433 21.7633 72.1133 21.7567 72.24 21.75C73.1333 21.7033 73.8433 21.4767 74.37 21.07C74.8967 20.6567 75.16 20.09 75.16 19.37C75.16 18.6233 74.89 18.04 74.35 17.62C73.8167 17.2 73.12 16.99 72.26 16.99C71.4467 16.99 70.7533 17.18 70.18 17.56C69.6133 17.94 69.16 18.43 68.82 19.03L67.45 17.86C67.9167 17.12 68.5633 16.51 69.39 16.03C70.2233 15.5433 71.1967 15.3 72.31 15.3C72.9233 15.3 73.5133 15.3833 74.08 15.55C74.6533 15.71 75.16 15.9567 75.6 16.29C76.0467 16.6167 76.4 17.0333 76.66 17.54C76.92 18.04 77.05 18.6333 77.05 19.32C77.05 20.06 76.8933 20.7167 76.58 21.29C76.2667 21.8633 75.8567 22.3067 75.35 22.62C76.05 22.8533 76.5967 23.24 76.99 23.78C77.3833 24.32 77.58 25.02 77.58 25.88C77.58 26.78 77.35 27.56 76.89 28.22C76.4367 28.88 75.8033 29.3933 74.99 29.76C74.1767 30.12 73.2367 30.3 72.17 30.3ZM79.2852 32.4V28.53C79.8918 28.53 80.3252 28.3333 80.5852 27.94C80.8452 27.54 81.0552 26.8833 81.2152 25.97C81.3218 25.3967 81.4085 24.7833 81.4752 24.13C81.5418 23.4767 81.5985 22.75 81.6452 21.95C81.6985 21.1433 81.7485 20.2267 81.7952 19.2H89.2352V28.53H90.2852V32.4H88.5852V30H80.9852V32.4H79.2852ZM82.0252 28.53H87.4552V20.67H83.4052C83.3852 21.1433 83.3585 21.64 83.3252 22.16C83.2918 22.6733 83.2518 23.1867 83.2052 23.7C83.1652 24.2133 83.1152 24.7 83.0552 25.16C83.0018 25.6133 82.9385 26.02 82.8652 26.38C82.7785 26.88 82.6785 27.3033 82.5652 27.65C82.4518 27.9967 82.2718 28.29 82.0252 28.53ZM97.2922 30.3C96.2189 30.3 95.2922 30.0567 94.5122 29.57C93.7389 29.0833 93.1422 28.41 92.7222 27.55C92.3022 26.69 92.0922 25.7033 92.0922 24.59C92.0922 23.4567 92.3055 22.4633 92.7322 21.61C93.1589 20.7567 93.7622 20.0933 94.5422 19.62C95.3222 19.14 96.2389 18.9 97.2922 18.9C98.3722 18.9 99.3022 19.1433 100.082 19.63C100.862 20.11 101.459 20.78 101.872 21.64C102.292 22.4933 102.502 23.4767 102.502 24.59C102.502 25.7167 102.292 26.71 101.872 27.57C101.452 28.4233 100.852 29.0933 100.072 29.58C99.2922 30.06 98.3655 30.3 97.2922 30.3ZM97.2922 28.61C98.4122 28.61 99.2455 28.2367 99.7922 27.49C100.339 26.7433 100.612 25.7767 100.612 24.59C100.612 23.37 100.336 22.4 99.7822 21.68C99.2289 20.9533 98.3989 20.59 97.2922 20.59C96.5389 20.59 95.9189 20.76 95.4322 21.1C94.9455 21.44 94.5822 21.91 94.3422 22.51C94.1022 23.11 93.9822 23.8033 93.9822 24.59C93.9822 25.8033 94.2622 26.7767 94.8222 27.51C95.3822 28.2433 96.2055 28.61 97.2922 28.61ZM110.064 30.3C109.051 30.3 108.197 30.05 107.504 29.55C106.811 29.0433 106.284 28.36 105.924 27.5C105.571 26.6333 105.394 25.6633 105.394 24.59C105.394 23.5033 105.571 22.53 105.924 21.67C106.284 20.81 106.811 20.1333 107.504 19.64C108.204 19.1467 109.061 18.9 110.074 18.9C111.074 18.9 111.934 19.15 112.654 19.65C113.381 20.1433 113.937 20.82 114.324 21.68C114.711 22.54 114.904 23.51 114.904 24.59C114.904 25.67 114.711 26.64 114.324 27.5C113.937 28.36 113.381 29.0433 112.654 29.55C111.934 30.05 111.071 30.3 110.064 30.3ZM105.094 34.8V19.2H106.684V27.15H106.884V34.8H105.094ZM109.844 28.67C110.557 28.67 111.147 28.49 111.614 28.13C112.081 27.77 112.431 27.2833 112.664 26.67C112.897 26.05 113.014 25.3567 113.014 24.59C113.014 23.83 112.897 23.1433 112.664 22.53C112.437 21.9167 112.084 21.43 111.604 21.07C111.131 20.71 110.527 20.53 109.794 20.53C109.094 20.53 108.514 20.7033 108.054 21.05C107.594 21.39 107.251 21.8667 107.024 22.48C106.797 23.0867 106.684 23.79 106.684 24.59C106.684 25.3767 106.794 26.08 107.014 26.7C107.241 27.3133 107.587 27.7967 108.054 28.15C108.521 28.4967 109.117 28.67 109.844 28.67ZM122.096 30.3C121.023 30.3 120.096 30.0567 119.316 29.57C118.543 29.0833 117.946 28.41 117.526 27.55C117.106 26.69 116.896 25.7033 116.896 24.59C116.896 23.4567 117.109 22.4633 117.536 21.61C117.963 20.7567 118.566 20.0933 119.346 19.62C120.126 19.14 121.043 18.9 122.096 18.9C123.176 18.9 124.106 19.1433 124.886 19.63C125.666 20.11 126.263 20.78 126.676 21.64C127.096 22.4933 127.306 23.4767 127.306 24.59C127.306 25.7167 127.096 26.71 126.676 27.57C126.256 28.4233 125.656 29.0933 124.876 29.58C124.096 30.06 123.169 30.3 122.096 30.3ZM122.096 28.61C123.216 28.61 124.049 28.2367 124.596 27.49C125.143 26.7433 125.416 25.7767 125.416 24.59C125.416 23.37 125.139 22.4 124.586 21.68C124.033 20.9533 123.203 20.59 122.096 20.59C121.343 20.59 120.723 20.76 120.236 21.1C119.749 21.44 119.386 21.91 119.146 22.51C118.906 23.11 118.786 23.8033 118.786 24.59C118.786 25.8033 119.066 26.7767 119.626 27.51C120.186 28.2433 121.009 28.61 122.096 28.61ZM129.898 30V19.2H134.498C134.771 19.2 135.064 19.2167 135.378 19.25C135.698 19.2767 135.988 19.3267 136.248 19.4C136.828 19.5533 137.304 19.87 137.678 20.35C138.058 20.8233 138.248 21.4233 138.248 22.15C138.248 22.5567 138.184 22.91 138.058 23.21C137.938 23.51 137.764 23.77 137.538 23.99C137.438 24.09 137.328 24.18 137.208 24.26C137.088 24.34 136.968 24.4033 136.848 24.45C137.081 24.49 137.318 24.58 137.558 24.72C137.938 24.9267 138.234 25.2167 138.448 25.59C138.668 25.9633 138.778 26.44 138.778 27.02C138.778 27.7533 138.601 28.36 138.248 28.84C137.894 29.3133 137.408 29.64 136.788 29.82C136.528 29.8933 136.241 29.9433 135.928 29.97C135.614 29.99 135.311 30 135.018 30H129.898ZM131.698 28.55H134.918C135.058 28.55 135.224 28.5367 135.418 28.51C135.618 28.4833 135.794 28.45 135.948 28.41C136.294 28.31 136.544 28.1233 136.698 27.85C136.858 27.5767 136.938 27.28 136.938 26.96C136.938 26.5333 136.818 26.1867 136.578 25.92C136.344 25.6533 136.034 25.4867 135.648 25.42C135.508 25.38 135.354 25.3567 135.188 25.35C135.028 25.3433 134.884 25.34 134.758 25.34H131.698V28.55ZM131.698 23.87H134.378C134.564 23.87 134.761 23.86 134.968 23.84C135.174 23.8133 135.354 23.77 135.508 23.71C135.814 23.5967 136.038 23.41 136.178 23.15C136.324 22.8833 136.398 22.5933 136.398 22.28C136.398 21.9333 136.318 21.63 136.158 21.37C136.004 21.1033 135.768 20.92 135.448 20.82C135.234 20.74 134.994 20.6967 134.728 20.69C134.468 20.6767 134.301 20.67 134.228 20.67H131.698V23.87ZM144.257 30.3C143.45 30.3 142.773 30.1533 142.227 29.86C141.687 29.56 141.277 29.1667 140.997 28.68C140.723 28.1933 140.587 27.66 140.587 27.08C140.587 26.5133 140.693 26.0233 140.907 25.61C141.127 25.19 141.433 24.8433 141.827 24.57C142.22 24.29 142.69 24.07 143.237 23.91C143.75 23.77 144.323 23.65 144.957 23.55C145.597 23.4433 146.243 23.3467 146.897 23.26C147.55 23.1733 148.16 23.09 148.727 23.01L148.087 23.38C148.107 22.42 147.913 21.71 147.507 21.25C147.107 20.79 146.413 20.56 145.427 20.56C144.773 20.56 144.2 20.71 143.707 21.01C143.22 21.3033 142.877 21.7833 142.677 22.45L140.987 21.94C141.247 20.9933 141.75 20.25 142.497 19.71C143.243 19.17 144.227 18.9 145.447 18.9C146.427 18.9 147.267 19.0767 147.967 19.43C148.673 19.7767 149.18 20.3033 149.487 21.01C149.64 21.3433 149.737 21.7067 149.777 22.1C149.817 22.4867 149.837 22.8933 149.837 23.32V30H148.257V27.41L148.627 27.65C148.22 28.5233 147.65 29.1833 146.917 29.63C146.19 30.0767 145.303 30.3 144.257 30.3ZM144.527 28.81C145.167 28.81 145.72 28.6967 146.187 28.47C146.66 28.2367 147.04 27.9333 147.327 27.56C147.613 27.18 147.8 26.7667 147.887 26.32C147.987 25.9867 148.04 25.6167 148.047 25.21C148.06 24.7967 148.067 24.48 148.067 24.26L148.687 24.53C148.107 24.61 147.537 24.6867 146.977 24.76C146.417 24.8333 145.887 24.9133 145.387 25C144.887 25.08 144.437 25.1767 144.037 25.29C143.743 25.3833 143.467 25.5033 143.207 25.65C142.953 25.7967 142.747 25.9867 142.587 26.22C142.433 26.4467 142.357 26.73 142.357 27.07C142.357 27.3633 142.43 27.6433 142.577 27.91C142.73 28.1767 142.963 28.3933 143.277 28.56C143.597 28.7267 144.013 28.81 144.527 28.81ZM157.231 30V19.2H161.831C162.104 19.2 162.397 19.2167 162.711 19.25C163.031 19.2767 163.321 19.3267 163.581 19.4C164.161 19.5533 164.637 19.87 165.011 20.35C165.391 20.8233 165.581 21.4233 165.581 22.15C165.581 22.5567 165.517 22.91 165.391 23.21C165.271 23.51 165.097 23.77 164.871 23.99C164.771 24.09 164.661 24.18 164.541 24.26C164.421 24.34 164.301 24.4033 164.181 24.45C164.414 24.49 164.651 24.58 164.891 24.72C165.271 24.9267 165.567 25.2167 165.781 25.59C166.001 25.9633 166.111 26.44 166.111 27.02C166.111 27.7533 165.934 28.36 165.581 28.84C165.227 29.3133 164.741 29.64 164.121 29.82C163.861 29.8933 163.574 29.9433 163.261 29.97C162.947 29.99 162.644 30 162.351 30H157.231ZM159.031 28.55H162.251C162.391 28.55 162.557 28.5367 162.751 28.51C162.951 28.4833 163.127 28.45 163.281 28.41C163.627 28.31 163.877 28.1233 164.031 27.85C164.191 27.5767 164.271 27.28 164.271 26.96C164.271 26.5333 164.151 26.1867 163.911 25.92C163.677 25.6533 163.367 25.4867 162.981 25.42C162.841 25.38 162.687 25.3567 162.521 25.35C162.361 25.3433 162.217 25.34 162.091 25.34H159.031V28.55ZM159.031 23.87H161.711C161.897 23.87 162.094 23.86 162.301 23.84C162.507 23.8133 162.687 23.77 162.841 23.71C163.147 23.5967 163.371 23.41 163.511 23.15C163.657 22.8833 163.731 22.5933 163.731 22.28C163.731 21.9333 163.651 21.63 163.491 21.37C163.337 21.1033 163.101 20.92 162.781 20.82C162.567 20.74 162.327 20.6967 162.061 20.69C161.801 20.6767 161.634 20.67 161.561 20.67H159.031V23.87ZM171.59 30.3C170.783 30.3 170.106 30.1533 169.56 29.86C169.02 29.56 168.61 29.1667 168.33 28.68C168.056 28.1933 167.92 27.66 167.92 27.08C167.92 26.5133 168.026 26.0233 168.24 25.61C168.46 25.19 168.766 24.8433 169.16 24.57C169.553 24.29 170.023 24.07 170.57 23.91C171.083 23.77 171.656 23.65 172.29 23.55C172.93 23.4433 173.576 23.3467 174.23 23.26C174.883 23.1733 175.493 23.09 176.06 23.01L175.42 23.38C175.44 22.42 175.246 21.71 174.84 21.25C174.44 20.79 173.746 20.56 172.76 20.56C172.106 20.56 171.533 20.71 171.04 21.01C170.553 21.3033 170.21 21.7833 170.01 22.45L168.32 21.94C168.58 20.9933 169.083 20.25 169.83 19.71C170.576 19.17 171.56 18.9 172.78 18.9C173.76 18.9 174.6 19.0767 175.3 19.43C176.006 19.7767 176.513 20.3033 176.82 21.01C176.973 21.3433 177.07 21.7067 177.11 22.1C177.15 22.4867 177.17 22.8933 177.17 23.32V30H175.59V27.41L175.96 27.65C175.553 28.5233 174.983 29.1833 174.25 29.63C173.523 30.0767 172.636 30.3 171.59 30.3ZM171.86 28.81C172.5 28.81 173.053 28.6967 173.52 28.47C173.993 28.2367 174.373 27.9333 174.66 27.56C174.946 27.18 175.133 26.7667 175.22 26.32C175.32 25.9867 175.373 25.6167 175.38 25.21C175.393 24.7967 175.4 24.48 175.4 24.26L176.02 24.53C175.44 24.61 174.87 24.6867 174.31 24.76C173.75 24.8333 173.22 24.9133 172.72 25C172.22 25.08 171.77 25.1767 171.37 25.29C171.076 25.3833 170.8 25.5033 170.54 25.65C170.286 25.7967 170.08 25.9867 169.92 26.22C169.766 26.4467 169.69 26.73 169.69 27.07C169.69 27.3633 169.763 27.6433 169.91 27.91C170.063 28.1767 170.296 28.3933 170.61 28.56C170.93 28.7267 171.346 28.81 171.86 28.81ZM180.17 30V19.2H187.67V20.89H181.95V30H180.17ZM190.164 17.29V15.45H191.944V17.29H190.164ZM190.164 30V19.2H191.944V30H190.164ZM198.205 30V20.82H194.445V19.2H203.745V20.82H199.985V30H198.205ZM206.027 30V19.2H207.807V23.75H213.487V19.2H215.267V30H213.487V25.44H207.807V30H206.027ZM218.669 17.29V15.45H220.449V17.29H218.669ZM218.669 30V19.2H220.449V30H218.669ZM228.399 30.3C227.306 30.3 226.376 30.0567 225.609 29.57C224.849 29.0767 224.269 28.4 223.869 27.54C223.469 26.68 223.263 25.7 223.249 24.6C223.263 23.4733 223.473 22.4833 223.879 21.63C224.293 20.77 224.883 20.1 225.649 19.62C226.416 19.14 227.339 18.9 228.419 18.9C229.559 18.9 230.539 19.18 231.359 19.74C232.186 20.3 232.739 21.0667 233.019 22.04L231.259 22.57C231.033 21.9433 230.663 21.4567 230.149 21.11C229.643 20.7633 229.059 20.59 228.399 20.59C227.659 20.59 227.049 20.7633 226.569 21.11C226.089 21.45 225.733 21.9233 225.499 22.53C225.266 23.13 225.146 23.82 225.139 24.6C225.153 25.8 225.429 26.77 225.969 27.51C226.516 28.2433 227.326 28.61 228.399 28.61C229.106 28.61 229.693 28.45 230.159 28.13C230.626 27.8033 230.979 27.3333 231.219 26.72L233.019 27.19C232.646 28.1967 232.063 28.9667 231.269 29.5C230.476 30.0333 229.519 30.3 228.399 30.3ZM238.125 30V20.82H234.365V19.2H243.665V20.82H239.905V30H238.125ZM245.958 30L245.948 19.2H247.738V23.11H250.068C250.381 23.11 250.701 23.1167 251.028 23.13C251.354 23.1433 251.638 23.1733 251.878 23.22C252.438 23.3267 252.928 23.5133 253.348 23.78C253.768 24.0467 254.094 24.41 254.328 24.87C254.561 25.3233 254.678 25.8867 254.678 26.56C254.678 27.4933 254.434 28.2333 253.948 28.78C253.468 29.32 252.838 29.68 252.058 29.86C251.791 29.92 251.484 29.96 251.138 29.98C250.798 29.9933 250.474 30 250.168 30H245.958ZM247.738 28.53H250.198C250.398 28.53 250.621 28.5233 250.868 28.51C251.114 28.4967 251.334 28.4633 251.528 28.41C251.868 28.31 252.171 28.1133 252.438 27.82C252.711 27.5267 252.848 27.1067 252.848 26.56C252.848 26.0067 252.714 25.58 252.448 25.28C252.188 24.98 251.844 24.7833 251.418 24.69C251.224 24.6433 251.021 24.6133 250.808 24.6C250.594 24.5867 250.391 24.58 250.198 24.58H247.738V28.53Z" fill="#676767"/>
<g clip-path="url(#clip0_121_552)">
<path d="M30.5888 11.5391C30.588 11.5391 30.587 11.5391 30.5862 11.5391C30.3025 11.5391 30.0356 11.6497 29.8341 11.8507C29.6304 12.0539 29.5182 12.3245 29.5182 12.6126V28.7096C29.5182 29.2998 30.0003 29.7812 30.593 29.7828C33.0917 29.7887 37.2781 30.3095 40.166 33.3317V16.4858C40.166 16.2857 40.1149 16.0977 40.0185 15.9422C37.6481 12.1249 33.0931 11.5449 30.5888 11.5391Z" fill="url(#paint1_radial_121_552)"/>
<path d="M52.4805 28.7097V12.6126C52.4805 12.3245 52.3683 12.0539 52.1645 11.8507C51.963 11.6497 51.696 11.5391 51.4125 11.5391C51.4116 11.5391 51.4107 11.5391 51.4099 11.5391C48.9057 11.545 44.3506 12.125 41.9802 15.9423C41.8837 16.0978 41.8327 16.2858 41.8327 16.4859V33.3317C44.7207 30.3095 48.9071 29.7887 51.4058 29.7828C51.9984 29.7812 52.4805 29.2998 52.4805 28.7097Z" fill="url(#paint2_radial_121_552)"/>
<path d="M54.9257 15.251H54.1473V28.7093C54.1473 30.2164 52.9194 31.4453 51.4099 31.4491C49.2905 31.4541 45.7958 31.8686 43.3209 34.211C47.6013 33.163 52.1137 33.8443 54.6854 34.4303C55.0065 34.5034 55.3383 34.4279 55.5955 34.2228C55.8519 34.0183 55.999 33.7125 55.999 33.3844V16.3243C55.9991 15.7325 55.5175 15.251 54.9257 15.251Z" fill="url(#paint3_radial_121_552)"/>
<path d="M27.8517 28.7093V15.251H27.0733C26.4816 15.251 26 15.7325 26 16.3243V33.3841C26 33.7123 26.1471 34.018 26.4034 34.2225C26.6605 34.4275 26.992 34.5033 27.3136 34.43C29.8852 33.8438 34.3977 33.1627 38.678 34.2107C36.2031 31.8684 32.7085 31.454 30.5891 31.449C29.0797 31.4453 27.8517 30.2164 27.8517 28.7093Z" fill="url(#paint4_radial_121_552)"/>
</g>
<defs>
<radialGradient id="paint0_radial_121_552" cx="0" cy="0" r="1" gradientUnits="userSpaceOnUse" gradientTransform="translate(141.5 22.5) rotate(-10.6328) scale(159.702 129.122)">
<stop stop-color="#86C3C4"/>
<stop offset="1" stop-color="#8CC4B9"/>
</radialGradient>
<radialGradient id="paint1_radial_121_552" cx="0" cy="0" r="1" gradientUnits="userSpaceOnUse" gradientTransform="translate(34.8421 22.4354) rotate(-67.5185) scale(15.4441 24.3288)">
<stop stop-color="#86C3C4"/>
<stop offset="1" stop-color="#8CC4B9"/>
</radialGradient>
<radialGradient id="paint2_radial_121_552" cx="0" cy="0" r="1" gradientUnits="userSpaceOnUse" gradientTransform="translate(47.1566 22.4354) rotate(-67.5187) scale(15.4441 24.3286)">
<stop stop-color="#86C3C4"/>
<stop offset="1" stop-color="#8CC4B9"/>
</radialGradient>
<radialGradient id="paint3_radial_121_552" cx="0" cy="0" r="1" gradientUnits="userSpaceOnUse" gradientTransform="translate(49.6599 24.8543) rotate(-60.7909) scale(14.4092 27.3638)">
<stop stop-color="#86C3C4"/>
<stop offset="1" stop-color="#8CC4B9"/>
</radialGradient>
<radialGradient id="paint4_radial_121_552" cx="0" cy="0" r="1" gradientUnits="userSpaceOnUse" gradientTransform="translate(32.339 24.8542) rotate(-60.7908) scale(14.409 27.3636)">
<stop stop-color="#86C3C4"/>
<stop offset="1" stop-color="#8CC4B9"/>
</radialGradient>
<clipPath id="clip0_121_552">
<rect width="29.999" height="29.999" fill="white" transform="translate(26 8)"/>
</clipPath>
</defs>
</svg>
