<svg width="294" height="45" viewBox="0 0 294 45" fill="none" xmlns="http://www.w3.org/2000/svg">
<rect opacity="0.2" width="294" height="45" rx="22.5" fill="url(#paint0_radial_121_541)"/>
<path d="M69.55 13.64V11.84H71.35V13.64H69.55ZM65.63 13.64V11.84H67.43V13.64H65.63ZM67.6 30V15.6H69.38V30H67.6ZM77.3305 30.3C76.2371 30.3 75.3071 30.0567 74.5405 29.57C73.7805 29.0767 73.2005 28.4 72.8005 27.54C72.4005 26.68 72.1938 25.7 72.1805 24.6C72.1938 23.4733 72.4038 22.4833 72.8105 21.63C73.2238 20.77 73.8138 20.1 74.5805 19.62C75.3471 19.14 76.2705 18.9 77.3505 18.9C78.4905 18.9 79.4705 19.18 80.2905 19.74C81.1171 20.3 81.6705 21.0667 81.9505 22.04L80.1905 22.57C79.9638 21.9433 79.5938 21.4567 79.0805 21.11C78.5738 20.7633 77.9905 20.59 77.3305 20.59C76.5905 20.59 75.9805 20.7633 75.5005 21.11C75.0205 21.45 74.6638 21.9233 74.4305 22.53C74.1971 23.13 74.0771 23.82 74.0705 24.6C74.0838 25.8 74.3605 26.77 74.9005 27.51C75.4471 28.2433 76.2571 28.61 77.3305 28.61C78.0371 28.61 78.6238 28.45 79.0905 28.13C79.5571 27.8033 79.9105 27.3333 80.1505 26.72L81.9505 27.19C81.5771 28.1967 80.9938 28.9667 80.2005 29.5C79.4071 30.0333 78.4505 30.3 77.3305 30.3ZM87.0561 30V20.82H83.2961V19.2H92.5961V20.82H88.8361V30H87.0561ZM103.729 19.2V30H102.009V22.04L96.3491 30H94.8791V19.2H96.5991V27.05L102.269 19.2H103.729ZM111.534 17.29V15.45H113.314V17.29H111.534ZM111.534 30V19.2H113.314V30H111.534ZM125.508 30.31C124.488 30.3033 123.618 30.0833 122.898 29.65C122.178 29.21 121.618 28.5667 121.218 27.72C120.818 26.8733 120.595 25.8367 120.548 24.61C120.521 24.0433 120.528 23.42 120.568 22.74C120.615 22.06 120.688 21.4067 120.788 20.78C120.895 20.1533 121.028 19.6367 121.188 19.23C121.368 18.7433 121.621 18.2933 121.948 17.88C122.281 17.46 122.655 17.1133 123.068 16.84C123.488 16.5533 123.958 16.33 124.478 16.17C124.998 16.01 125.541 15.8867 126.108 15.8C126.681 15.7067 127.255 15.6267 127.828 15.56C128.401 15.4867 128.948 15.4 129.468 15.3L129.648 16.9C129.281 16.98 128.848 17.05 128.348 17.11C127.848 17.1633 127.328 17.2267 126.788 17.3C126.255 17.3733 125.741 17.4767 125.248 17.61C124.761 17.7367 124.341 17.9133 123.988 18.14C123.468 18.4533 123.068 18.9233 122.788 19.55C122.515 20.17 122.348 20.8667 122.288 21.64C122.701 21 123.238 20.53 123.898 20.23C124.558 19.93 125.261 19.78 126.008 19.78C126.975 19.78 127.808 20.0067 128.508 20.46C129.208 20.9067 129.745 21.5233 130.118 22.31C130.498 23.0967 130.688 23.9933 130.688 25C130.688 26.0667 130.475 27 130.048 27.8C129.621 28.6 129.018 29.22 128.238 29.66C127.465 30.1 126.555 30.3167 125.508 30.31ZM125.618 28.62C126.665 28.62 127.458 28.2967 127.998 27.65C128.538 26.9967 128.808 26.13 128.808 25.05C128.808 23.9433 128.528 23.0733 127.968 22.44C127.408 21.8 126.621 21.48 125.608 21.48C124.581 21.48 123.795 21.8 123.248 22.44C122.708 23.0733 122.438 23.9433 122.438 25.05C122.438 26.1633 122.711 27.0367 123.258 27.67C123.805 28.3033 124.591 28.62 125.618 28.62ZM134.405 34.8L136.495 29.12L136.525 30.8L131.805 19.2H133.675L137.375 28.53H136.735L140.205 19.2H142.015L136.135 34.8H134.405ZM146.926 30V20.82H143.166V19.2H152.466V20.82H148.706V30H146.926ZM163.599 19.2V30H161.879V22.04L156.219 30H154.749V19.2H156.469V27.05L162.139 19.2H163.599ZM175.074 30.3C174.007 30.3 173.064 30.07 172.244 29.61C171.424 29.1433 170.777 28.5033 170.304 27.69L171.724 26.77C172.117 27.3633 172.587 27.82 173.134 28.14C173.681 28.4533 174.304 28.61 175.004 28.61C175.737 28.61 176.321 28.4433 176.754 28.11C177.187 27.77 177.404 27.3133 177.404 26.74C177.404 26.3133 177.297 25.9867 177.084 25.76C176.871 25.5333 176.564 25.3767 176.164 25.29C175.764 25.2033 175.287 25.16 174.734 25.16H173.614V23.69H174.724C175.424 23.69 175.994 23.5767 176.434 23.35C176.874 23.1233 177.094 22.7367 177.094 22.19C177.094 21.63 176.887 21.2233 176.474 20.97C176.067 20.71 175.581 20.58 175.014 20.58C174.414 20.58 173.841 20.7067 173.294 20.96C172.747 21.2067 172.277 21.52 171.884 21.9L170.804 20.69C171.364 20.1167 172.007 19.6767 172.734 19.37C173.467 19.0567 174.264 18.9 175.124 18.9C175.817 18.9 176.451 19.0233 177.024 19.27C177.604 19.51 178.064 19.8667 178.404 20.34C178.751 20.8067 178.924 21.3767 178.924 22.05C178.924 22.6233 178.791 23.1333 178.524 23.58C178.257 24.0267 177.864 24.4167 177.344 24.75L177.274 24.12C177.714 24.2267 178.077 24.4233 178.364 24.71C178.657 24.99 178.874 25.3233 179.014 25.71C179.154 26.0967 179.224 26.5 179.224 26.92C179.224 27.6267 179.037 28.2333 178.664 28.74C178.297 29.24 177.801 29.6267 177.174 29.9C176.547 30.1667 175.847 30.3 175.074 30.3ZM181.019 32.4V28.53C181.625 28.53 182.059 28.3333 182.319 27.94C182.579 27.54 182.789 26.8833 182.949 25.97C183.055 25.3967 183.142 24.7833 183.209 24.13C183.275 23.4767 183.332 22.75 183.379 21.95C183.432 21.1433 183.482 20.2267 183.529 19.2H190.969V28.53H192.019V32.4H190.319V30H182.719V32.4H181.019ZM183.759 28.53H189.189V20.67H185.139C185.119 21.1433 185.092 21.64 185.059 22.16C185.025 22.6733 184.985 23.1867 184.939 23.7C184.899 24.2133 184.849 24.7 184.789 25.16C184.735 25.6133 184.672 26.02 184.599 26.38C184.512 26.88 184.412 27.3033 184.299 27.65C184.185 27.9967 184.005 28.29 183.759 28.53ZM199.026 30.3C197.952 30.3 197.026 30.0567 196.246 29.57C195.472 29.0833 194.876 28.41 194.456 27.55C194.036 26.69 193.826 25.7033 193.826 24.59C193.826 23.4567 194.039 22.4633 194.466 21.61C194.892 20.7567 195.496 20.0933 196.276 19.62C197.056 19.14 197.972 18.9 199.026 18.9C200.106 18.9 201.036 19.1433 201.816 19.63C202.596 20.11 203.192 20.78 203.606 21.64C204.026 22.4933 204.236 23.4767 204.236 24.59C204.236 25.7167 204.026 26.71 203.606 27.57C203.186 28.4233 202.586 29.0933 201.806 29.58C201.026 30.06 200.099 30.3 199.026 30.3ZM199.026 28.61C200.146 28.61 200.979 28.2367 201.526 27.49C202.072 26.7433 202.346 25.7767 202.346 24.59C202.346 23.37 202.069 22.4 201.516 21.68C200.962 20.9533 200.132 20.59 199.026 20.59C198.272 20.59 197.652 20.76 197.166 21.1C196.679 21.44 196.316 21.91 196.076 22.51C195.836 23.11 195.716 23.8033 195.716 24.59C195.716 25.8033 195.996 26.7767 196.556 27.51C197.116 28.2433 197.939 28.61 199.026 28.61ZM211.798 30.3C210.784 30.3 209.931 30.05 209.238 29.55C208.544 29.0433 208.018 28.36 207.658 27.5C207.304 26.6333 207.128 25.6633 207.128 24.59C207.128 23.5033 207.304 22.53 207.658 21.67C208.018 20.81 208.544 20.1333 209.238 19.64C209.938 19.1467 210.794 18.9 211.808 18.9C212.808 18.9 213.668 19.15 214.388 19.65C215.114 20.1433 215.671 20.82 216.058 21.68C216.444 22.54 216.638 23.51 216.638 24.59C216.638 25.67 216.444 26.64 216.058 27.5C215.671 28.36 215.114 29.0433 214.388 29.55C213.668 30.05 212.804 30.3 211.798 30.3ZM206.828 34.8V19.2H208.418V27.15H208.618V34.8H206.828ZM211.578 28.67C212.291 28.67 212.881 28.49 213.348 28.13C213.814 27.77 214.164 27.2833 214.398 26.67C214.631 26.05 214.748 25.3567 214.748 24.59C214.748 23.83 214.631 23.1433 214.398 22.53C214.171 21.9167 213.818 21.43 213.338 21.07C212.864 20.71 212.261 20.53 211.528 20.53C210.828 20.53 210.248 20.7033 209.788 21.05C209.328 21.39 208.984 21.8667 208.758 22.48C208.531 23.0867 208.418 23.79 208.418 24.59C208.418 25.3767 208.528 26.08 208.748 26.7C208.974 27.3133 209.321 27.7967 209.788 28.15C210.254 28.4967 210.851 28.67 211.578 28.67ZM223.83 30.3C222.756 30.3 221.83 30.0567 221.05 29.57C220.276 29.0833 219.68 28.41 219.26 27.55C218.84 26.69 218.63 25.7033 218.63 24.59C218.63 23.4567 218.843 22.4633 219.27 21.61C219.696 20.7567 220.3 20.0933 221.08 19.62C221.86 19.14 222.776 18.9 223.83 18.9C224.91 18.9 225.84 19.1433 226.62 19.63C227.4 20.11 227.996 20.78 228.41 21.64C228.83 22.4933 229.04 23.4767 229.04 24.59C229.04 25.7167 228.83 26.71 228.41 27.57C227.99 28.4233 227.39 29.0933 226.61 29.58C225.83 30.06 224.903 30.3 223.83 30.3ZM223.83 28.61C224.95 28.61 225.783 28.2367 226.33 27.49C226.876 26.7433 227.15 25.7767 227.15 24.59C227.15 23.37 226.873 22.4 226.32 21.68C225.766 20.9533 224.936 20.59 223.83 20.59C223.076 20.59 222.456 20.76 221.97 21.1C221.483 21.44 221.12 21.91 220.88 22.51C220.64 23.11 220.52 23.8033 220.52 24.59C220.52 25.8033 220.8 26.7767 221.36 27.51C221.92 28.2433 222.743 28.61 223.83 28.61ZM231.631 30V19.2H236.231C236.505 19.2 236.798 19.2167 237.111 19.25C237.431 19.2767 237.721 19.3267 237.981 19.4C238.561 19.5533 239.038 19.87 239.411 20.35C239.791 20.8233 239.981 21.4233 239.981 22.15C239.981 22.5567 239.918 22.91 239.791 23.21C239.671 23.51 239.498 23.77 239.271 23.99C239.171 24.09 239.061 24.18 238.941 24.26C238.821 24.34 238.701 24.4033 238.581 24.45C238.815 24.49 239.051 24.58 239.291 24.72C239.671 24.9267 239.968 25.2167 240.181 25.59C240.401 25.9633 240.511 26.44 240.511 27.02C240.511 27.7533 240.335 28.36 239.981 28.84C239.628 29.3133 239.141 29.64 238.521 29.82C238.261 29.8933 237.975 29.9433 237.661 29.97C237.348 29.99 237.045 30 236.751 30H231.631ZM233.431 28.55H236.651C236.791 28.55 236.958 28.5367 237.151 28.51C237.351 28.4833 237.528 28.45 237.681 28.41C238.028 28.31 238.278 28.1233 238.431 27.85C238.591 27.5767 238.671 27.28 238.671 26.96C238.671 26.5333 238.551 26.1867 238.311 25.92C238.078 25.6533 237.768 25.4867 237.381 25.42C237.241 25.38 237.088 25.3567 236.921 25.35C236.761 25.3433 236.618 25.34 236.491 25.34H233.431V28.55ZM233.431 23.87H236.111C236.298 23.87 236.495 23.86 236.701 23.84C236.908 23.8133 237.088 23.77 237.241 23.71C237.548 23.5967 237.771 23.41 237.911 23.15C238.058 22.8833 238.131 22.5933 238.131 22.28C238.131 21.9333 238.051 21.63 237.891 21.37C237.738 21.1033 237.501 20.92 237.181 20.82C236.968 20.74 236.728 20.6967 236.461 20.69C236.201 20.6767 236.035 20.67 235.961 20.67H233.431V23.87ZM251.76 19.2V30H250.04V22.04L244.38 30H242.91V19.2H244.63V27.05L250.3 19.2H251.76ZM254.951 30V19.2H256.481L260.581 27.58L264.681 19.2H266.211V30H264.491V22.91L261.051 30H260.111L256.671 22.91V30H254.951Z" fill="#676767"/>
<g clip-path="url(#clip0_121_541)">
<path d="M30.5888 11.5391C30.588 11.5391 30.587 11.5391 30.5862 11.5391C30.3025 11.5391 30.0356 11.6497 29.8341 11.8507C29.6304 12.0539 29.5182 12.3245 29.5182 12.6126V28.7096C29.5182 29.2998 30.0003 29.7812 30.593 29.7828C33.0917 29.7887 37.2781 30.3095 40.166 33.3317V16.4858C40.166 16.2857 40.1149 16.0977 40.0185 15.9422C37.6481 12.1249 33.0931 11.5449 30.5888 11.5391Z" fill="url(#paint1_radial_121_541)"/>
<path d="M52.4805 28.7097V12.6126C52.4805 12.3245 52.3683 12.0539 52.1646 11.8507C51.9631 11.6497 51.696 11.5391 51.4126 11.5391C51.4117 11.5391 51.4108 11.5391 51.4099 11.5391C48.9057 11.545 44.3507 12.125 41.9802 15.9423C41.8838 16.0978 41.8328 16.2858 41.8328 16.4859V33.3317C44.7208 30.3095 48.9071 29.7887 51.4058 29.7828C51.9984 29.7812 52.4805 29.2998 52.4805 28.7097Z" fill="url(#paint2_radial_121_541)"/>
<path d="M54.9257 15.251H54.1473V28.7093C54.1473 30.2164 52.9194 31.4453 51.4099 31.4491C49.2905 31.4541 45.7958 31.8686 43.3209 34.211C47.6013 33.163 52.1137 33.8443 54.6854 34.4303C55.0065 34.5034 55.3383 34.4279 55.5955 34.2228C55.8519 34.0183 55.999 33.7125 55.999 33.3844V16.3243C55.9991 15.7325 55.5175 15.251 54.9257 15.251Z" fill="url(#paint3_radial_121_541)"/>
<path d="M27.8517 28.7093V15.251H27.0733C26.4816 15.251 26 15.7325 26 16.3243V33.3841C26 33.7123 26.1471 34.018 26.4034 34.2225C26.6605 34.4275 26.992 34.5033 27.3136 34.43C29.8852 33.8438 34.3977 33.1627 38.678 34.2107C36.2031 31.8684 32.7085 31.454 30.5891 31.449C29.0797 31.4453 27.8517 30.2164 27.8517 28.7093Z" fill="url(#paint4_radial_121_541)"/>
</g>
<defs>
<radialGradient id="paint0_radial_121_541" cx="0" cy="0" r="1" gradientUnits="userSpaceOnUse" gradientTransform="translate(147 22.5) rotate(-10.2435) scale(165.702 129.284)">
<stop stop-color="#86C3C4"/>
<stop offset="1" stop-color="#8CC4B9"/>
</radialGradient>
<radialGradient id="paint1_radial_121_541" cx="0" cy="0" r="1" gradientUnits="userSpaceOnUse" gradientTransform="translate(34.8421 22.4354) rotate(-67.5185) scale(15.4441 24.3288)">
<stop stop-color="#86C3C4"/>
<stop offset="1" stop-color="#8CC4B9"/>
</radialGradient>
<radialGradient id="paint2_radial_121_541" cx="0" cy="0" r="1" gradientUnits="userSpaceOnUse" gradientTransform="translate(47.1566 22.4354) rotate(-67.5187) scale(15.4441 24.3286)">
<stop stop-color="#86C3C4"/>
<stop offset="1" stop-color="#8CC4B9"/>
</radialGradient>
<radialGradient id="paint3_radial_121_541" cx="0" cy="0" r="1" gradientUnits="userSpaceOnUse" gradientTransform="translate(49.6599 24.8543) rotate(-60.7909) scale(14.4092 27.3638)">
<stop stop-color="#86C3C4"/>
<stop offset="1" stop-color="#8CC4B9"/>
</radialGradient>
<radialGradient id="paint4_radial_121_541" cx="0" cy="0" r="1" gradientUnits="userSpaceOnUse" gradientTransform="translate(32.339 24.8542) rotate(-60.7908) scale(14.409 27.3636)">
<stop stop-color="#86C3C4"/>
<stop offset="1" stop-color="#8CC4B9"/>
</radialGradient>
<clipPath id="clip0_121_541">
<rect width="29.999" height="29.999" fill="white" transform="translate(26 8)"/>
</clipPath>
</defs>
</svg>
