<svg width="412" height="45" viewBox="0 0 412 45" fill="none" xmlns="http://www.w3.org/2000/svg">
<rect opacity="0.2" width="412" height="45" rx="22.5" fill="url(#paint0_radial_121_530)"/>
<path d="M73.319 30.3C71.8857 30.3 70.669 29.9833 69.669 29.35C68.669 28.7167 67.9057 27.8367 67.379 26.71C66.859 25.5833 66.599 24.28 66.599 22.8C66.599 21.32 66.859 20.0167 67.379 18.89C67.9057 17.7633 68.669 16.8833 69.669 16.25C70.669 15.6167 71.8857 15.3 73.319 15.3C74.9857 15.3 76.3557 15.7233 77.429 16.57C78.509 17.4167 79.2524 18.5567 79.659 19.99L77.849 20.47C77.5557 19.3967 77.0324 18.55 76.279 17.93C75.5257 17.31 74.539 17 73.319 17C72.2457 17 71.3524 17.2433 70.639 17.73C69.9257 18.2167 69.389 18.8967 69.029 19.77C68.669 20.6367 68.4857 21.6467 68.479 22.8C68.4724 23.9467 68.649 24.9567 69.009 25.83C69.369 26.6967 69.909 27.3767 70.629 27.87C71.349 28.3567 72.2457 28.6 73.319 28.6C74.539 28.6 75.5257 28.29 76.279 27.67C77.0324 27.0433 77.5557 26.1967 77.849 25.13L79.659 25.61C79.2524 27.0367 78.509 28.1767 77.429 29.03C76.3557 29.8767 74.9857 30.3 73.319 30.3ZM91.0921 19.2V30H89.3721V22.04L83.7121 30H82.2421V19.2H83.9621V27.05L89.6321 19.2H91.0921ZM93.2928 30V28.47C93.6928 28.5433 93.9961 28.53 94.2028 28.43C94.4161 28.3233 94.5728 28.14 94.6728 27.88C94.7794 27.6133 94.8661 27.28 94.9328 26.88C95.0461 26.2467 95.1428 25.54 95.2228 24.76C95.3094 23.98 95.3861 23.1267 95.4528 22.2C95.5261 21.2667 95.5928 20.2667 95.6528 19.2H103.203V30H101.423V20.89H97.2728C97.2328 21.5033 97.1828 22.1333 97.1228 22.78C97.0694 23.4267 97.0128 24.0567 96.9528 24.67C96.8928 25.2767 96.8261 25.8433 96.7528 26.37C96.6861 26.89 96.6128 27.34 96.5328 27.72C96.4061 28.3733 96.2294 28.8967 96.0028 29.29C95.7761 29.6767 95.4494 29.9267 95.0228 30.04C94.5961 30.16 94.0194 30.1467 93.2928 30ZM106.412 30L106.402 19.2H108.192V23.11H110.522C110.835 23.11 111.155 23.1167 111.482 23.13C111.808 23.1433 112.092 23.1733 112.332 23.22C112.892 23.3267 113.382 23.5133 113.802 23.78C114.222 24.0467 114.548 24.41 114.782 24.87C115.015 25.3233 115.132 25.8867 115.132 26.56C115.132 27.4933 114.888 28.2333 114.402 28.78C113.922 29.32 113.292 29.68 112.512 29.86C112.245 29.92 111.938 29.96 111.592 29.98C111.252 29.9933 110.928 30 110.622 30H106.412ZM108.192 28.53H110.652C110.852 28.53 111.075 28.5233 111.322 28.51C111.568 28.4967 111.788 28.4633 111.982 28.41C112.322 28.31 112.625 28.1133 112.892 27.82C113.165 27.5267 113.302 27.1067 113.302 26.56C113.302 26.0067 113.168 25.58 112.902 25.28C112.642 24.98 112.298 24.7833 111.872 24.69C111.678 24.6433 111.475 24.6133 111.262 24.6C111.048 24.5867 110.845 24.58 110.652 24.58H108.192V28.53ZM117.427 30V19.2H119.207V23.75H124.887V19.2H126.667V30H124.887V25.44H119.207V30H117.427ZM138.708 19.2V30H136.988V22.04L131.328 30H129.858V19.2H131.578V27.05L137.248 19.2H138.708ZM146.558 17.94C146.058 17.94 145.602 17.8167 145.188 17.57C144.775 17.3233 144.445 16.9967 144.198 16.59C143.952 16.1767 143.828 15.7167 143.828 15.21H145.268C145.268 15.5633 145.395 15.8667 145.648 16.12C145.902 16.3733 146.205 16.5 146.558 16.5C146.918 16.5 147.222 16.3733 147.468 16.12C147.722 15.8667 147.848 15.5633 147.848 15.21H149.288C149.288 15.7167 149.165 16.1767 148.918 16.59C148.678 16.9967 148.348 17.3233 147.928 17.57C147.515 17.8167 147.058 17.94 146.558 17.94ZM150.748 19.2V30H149.028V22.04L143.368 30H141.898V19.2H143.618V27.05L149.288 19.2H150.748ZM158.553 17.29V15.45H160.333V17.29H158.553ZM158.553 30V19.2H160.333V30H158.553ZM163.723 30V19.2H165.253L169.353 27.58L173.453 19.2H174.983V30H173.263V22.91L169.823 30H168.883L165.443 22.91V30H163.723ZM179.676 34.8L181.766 29.12L181.796 30.8L177.076 19.2H178.946L182.646 28.53H182.006L185.476 19.2H187.286L181.406 34.8H179.676ZM189.328 30V19.2H191.108V23.75H196.788V19.2H198.568V30H196.788V25.44H191.108V30H189.328ZM201.969 17.29V15.45H203.749V17.29H201.969ZM201.969 30V19.2H203.749V30H201.969ZM210.01 30V20.82H206.25V19.2H215.55V20.82H211.79V30H210.01ZM222.523 30.3C221.463 30.3 220.536 30.0667 219.743 29.6C218.956 29.1267 218.343 28.47 217.903 27.63C217.463 26.7833 217.243 25.7967 217.243 24.67C217.243 23.49 217.459 22.47 217.893 21.61C218.326 20.7433 218.929 20.0767 219.703 19.61C220.483 19.1367 221.396 18.9 222.443 18.9C223.529 18.9 224.453 19.15 225.213 19.65C225.979 20.15 226.553 20.8633 226.933 21.79C227.319 22.7167 227.486 23.82 227.433 25.1H225.633V24.46C225.613 23.1333 225.343 22.1433 224.823 21.49C224.303 20.83 223.529 20.5 222.503 20.5C221.403 20.5 220.566 20.8533 219.993 21.56C219.419 22.2667 219.133 23.28 219.133 24.6C219.133 25.8733 219.419 26.86 219.993 27.56C220.566 28.26 221.383 28.61 222.443 28.61C223.156 28.61 223.776 28.4467 224.303 28.12C224.829 27.7933 225.243 27.3233 225.543 26.71L227.253 27.3C226.833 28.2533 226.199 28.9933 225.353 29.52C224.513 30.04 223.569 30.3 222.523 30.3ZM218.533 25.1V23.67H226.513V25.1H218.533ZM232.724 30V20.82H228.964V19.2H238.264V20.82H234.504V30H232.724ZM244.761 24.43V22.96H250.761V24.43H244.761ZM262.033 30.3C260.966 30.3 260.023 30.07 259.203 29.61C258.383 29.1433 257.736 28.5033 257.263 27.69L258.683 26.77C259.076 27.3633 259.546 27.82 260.093 28.14C260.64 28.4533 261.263 28.61 261.963 28.61C262.696 28.61 263.28 28.4433 263.713 28.11C264.146 27.77 264.363 27.3133 264.363 26.74C264.363 26.3133 264.256 25.9867 264.043 25.76C263.83 25.5333 263.523 25.3767 263.123 25.29C262.723 25.2033 262.246 25.16 261.693 25.16H260.573V23.69H261.683C262.383 23.69 262.953 23.5767 263.393 23.35C263.833 23.1233 264.053 22.7367 264.053 22.19C264.053 21.63 263.846 21.2233 263.433 20.97C263.026 20.71 262.54 20.58 261.973 20.58C261.373 20.58 260.8 20.7067 260.253 20.96C259.706 21.2067 259.236 21.52 258.843 21.9L257.763 20.69C258.323 20.1167 258.966 19.6767 259.693 19.37C260.426 19.0567 261.223 18.9 262.083 18.9C262.776 18.9 263.41 19.0233 263.983 19.27C264.563 19.51 265.023 19.8667 265.363 20.34C265.71 20.8067 265.883 21.3767 265.883 22.05C265.883 22.6233 265.75 23.1333 265.483 23.58C265.216 24.0267 264.823 24.4167 264.303 24.75L264.233 24.12C264.673 24.2267 265.036 24.4233 265.323 24.71C265.616 24.99 265.833 25.3233 265.973 25.71C266.113 26.0967 266.183 26.5 266.183 26.92C266.183 27.6267 265.996 28.2333 265.623 28.74C265.256 29.24 264.76 29.6267 264.133 29.9C263.506 30.1667 262.806 30.3 262.033 30.3ZM267.978 32.4V28.53C268.585 28.53 269.018 28.3333 269.278 27.94C269.538 27.54 269.748 26.8833 269.908 25.97C270.015 25.3967 270.101 24.7833 270.168 24.13C270.235 23.4767 270.291 22.75 270.338 21.95C270.391 21.1433 270.441 20.2267 270.488 19.2H277.928V28.53H278.978V32.4H277.278V30H269.678V32.4H267.978ZM270.718 28.53H276.148V20.67H272.098C272.078 21.1433 272.051 21.64 272.018 22.16C271.985 22.6733 271.945 23.1867 271.898 23.7C271.858 24.2133 271.808 24.7 271.748 25.16C271.695 25.6133 271.631 26.02 271.558 26.38C271.471 26.88 271.371 27.3033 271.258 27.65C271.145 27.9967 270.965 28.29 270.718 28.53ZM285.985 30.3C284.912 30.3 283.985 30.0567 283.205 29.57C282.432 29.0833 281.835 28.41 281.415 27.55C280.995 26.69 280.785 25.7033 280.785 24.59C280.785 23.4567 280.998 22.4633 281.425 21.61C281.852 20.7567 282.455 20.0933 283.235 19.62C284.015 19.14 284.932 18.9 285.985 18.9C287.065 18.9 287.995 19.1433 288.775 19.63C289.555 20.11 290.152 20.78 290.565 21.64C290.985 22.4933 291.195 23.4767 291.195 24.59C291.195 25.7167 290.985 26.71 290.565 27.57C290.145 28.4233 289.545 29.0933 288.765 29.58C287.985 30.06 287.058 30.3 285.985 30.3ZM285.985 28.61C287.105 28.61 287.938 28.2367 288.485 27.49C289.032 26.7433 289.305 25.7767 289.305 24.59C289.305 23.37 289.028 22.4 288.475 21.68C287.922 20.9533 287.092 20.59 285.985 20.59C285.232 20.59 284.612 20.76 284.125 21.1C283.638 21.44 283.275 21.91 283.035 22.51C282.795 23.11 282.675 23.8033 282.675 24.59C282.675 25.8033 282.955 26.7767 283.515 27.51C284.075 28.2433 284.898 28.61 285.985 28.61ZM298.757 30.3C297.743 30.3 296.89 30.05 296.197 29.55C295.503 29.0433 294.977 28.36 294.617 27.5C294.263 26.6333 294.087 25.6633 294.087 24.59C294.087 23.5033 294.263 22.53 294.617 21.67C294.977 20.81 295.503 20.1333 296.197 19.64C296.897 19.1467 297.753 18.9 298.767 18.9C299.767 18.9 300.627 19.15 301.347 19.65C302.073 20.1433 302.63 20.82 303.017 21.68C303.403 22.54 303.597 23.51 303.597 24.59C303.597 25.67 303.403 26.64 303.017 27.5C302.63 28.36 302.073 29.0433 301.347 29.55C300.627 30.05 299.763 30.3 298.757 30.3ZM293.787 34.8V19.2H295.377V27.15H295.577V34.8H293.787ZM298.537 28.67C299.25 28.67 299.84 28.49 300.307 28.13C300.773 27.77 301.123 27.2833 301.357 26.67C301.59 26.05 301.707 25.3567 301.707 24.59C301.707 23.83 301.59 23.1433 301.357 22.53C301.13 21.9167 300.777 21.43 300.297 21.07C299.823 20.71 299.22 20.53 298.487 20.53C297.787 20.53 297.207 20.7033 296.747 21.05C296.287 21.39 295.943 21.8667 295.717 22.48C295.49 23.0867 295.377 23.79 295.377 24.59C295.377 25.3767 295.487 26.08 295.707 26.7C295.933 27.3133 296.28 27.7967 296.747 28.15C297.213 28.4967 297.81 28.67 298.537 28.67ZM310.789 30.3C309.716 30.3 308.789 30.0567 308.009 29.57C307.236 29.0833 306.639 28.41 306.219 27.55C305.799 26.69 305.589 25.7033 305.589 24.59C305.589 23.4567 305.802 22.4633 306.229 21.61C306.656 20.7567 307.259 20.0933 308.039 19.62C308.819 19.14 309.736 18.9 310.789 18.9C311.869 18.9 312.799 19.1433 313.579 19.63C314.359 20.11 314.956 20.78 315.369 21.64C315.789 22.4933 315.999 23.4767 315.999 24.59C315.999 25.7167 315.789 26.71 315.369 27.57C314.949 28.4233 314.349 29.0933 313.569 29.58C312.789 30.06 311.862 30.3 310.789 30.3ZM310.789 28.61C311.909 28.61 312.742 28.2367 313.289 27.49C313.836 26.7433 314.109 25.7767 314.109 24.59C314.109 23.37 313.832 22.4 313.279 21.68C312.726 20.9533 311.896 20.59 310.789 20.59C310.036 20.59 309.416 20.76 308.929 21.1C308.442 21.44 308.079 21.91 307.839 22.51C307.599 23.11 307.479 23.8033 307.479 24.59C307.479 25.8033 307.759 26.7767 308.319 27.51C308.879 28.2433 309.702 28.61 310.789 28.61ZM318.591 30V19.2H323.191C323.464 19.2 323.757 19.2167 324.071 19.25C324.391 19.2767 324.681 19.3267 324.941 19.4C325.521 19.5533 325.997 19.87 326.371 20.35C326.751 20.8233 326.941 21.4233 326.941 22.15C326.941 22.5567 326.877 22.91 326.751 23.21C326.631 23.51 326.457 23.77 326.231 23.99C326.131 24.09 326.021 24.18 325.901 24.26C325.781 24.34 325.661 24.4033 325.541 24.45C325.774 24.49 326.011 24.58 326.251 24.72C326.631 24.9267 326.927 25.2167 327.141 25.59C327.361 25.9633 327.471 26.44 327.471 27.02C327.471 27.7533 327.294 28.36 326.941 28.84C326.587 29.3133 326.101 29.64 325.481 29.82C325.221 29.8933 324.934 29.9433 324.621 29.97C324.307 29.99 324.004 30 323.711 30H318.591ZM320.391 28.55H323.611C323.751 28.55 323.917 28.5367 324.111 28.51C324.311 28.4833 324.487 28.45 324.641 28.41C324.987 28.31 325.237 28.1233 325.391 27.85C325.551 27.5767 325.631 27.28 325.631 26.96C325.631 26.5333 325.511 26.1867 325.271 25.92C325.037 25.6533 324.727 25.4867 324.341 25.42C324.201 25.38 324.047 25.3567 323.881 25.35C323.721 25.3433 323.577 25.34 323.451 25.34H320.391V28.55ZM320.391 23.87H323.071C323.257 23.87 323.454 23.86 323.661 23.84C323.867 23.8133 324.047 23.77 324.201 23.71C324.507 23.5967 324.731 23.41 324.871 23.15C325.017 22.8833 325.091 22.5933 325.091 22.28C325.091 21.9333 325.011 21.63 324.851 21.37C324.697 21.1033 324.461 20.92 324.141 20.82C323.927 20.74 323.687 20.6967 323.421 20.69C323.161 20.6767 322.994 20.67 322.921 20.67H320.391V23.87ZM334.559 30.3C333.499 30.3 332.573 30.0667 331.779 29.6C330.993 29.1267 330.379 28.47 329.939 27.63C329.499 26.7833 329.279 25.7967 329.279 24.67C329.279 23.49 329.496 22.47 329.929 21.61C330.363 20.7433 330.966 20.0767 331.739 19.61C332.519 19.1367 333.433 18.9 334.479 18.9C335.566 18.9 336.489 19.15 337.249 19.65C338.016 20.15 338.589 20.8633 338.969 21.79C339.356 22.7167 339.523 23.82 339.469 25.1H337.669V24.46C337.649 23.1333 337.379 22.1433 336.859 21.49C336.339 20.83 335.566 20.5 334.539 20.5C333.439 20.5 332.603 20.8533 332.029 21.56C331.456 22.2667 331.169 23.28 331.169 24.6C331.169 25.8733 331.456 26.86 332.029 27.56C332.603 28.26 333.419 28.61 334.479 28.61C335.193 28.61 335.813 28.4467 336.339 28.12C336.866 27.7933 337.279 27.3233 337.579 26.71L339.289 27.3C338.869 28.2533 338.236 28.9933 337.389 29.52C336.549 30.04 335.606 30.3 334.559 30.3ZM330.569 25.1V23.67H338.549V25.1H330.569ZM349.36 30V20.82H345.6V19.2H354.9V20.82H351.14V30H349.36ZM357.393 17.29V15.45H359.173V17.29H357.393ZM357.393 30V19.2H359.173V30H357.393ZM361.573 30V28.47C361.973 28.5433 362.277 28.53 362.483 28.43C362.697 28.3233 362.853 28.14 362.953 27.88C363.06 27.6133 363.147 27.28 363.213 26.88C363.327 26.2467 363.423 25.54 363.503 24.76C363.59 23.98 363.667 23.1267 363.733 22.2C363.807 21.2667 363.873 20.2667 363.933 19.2H371.483V30H369.703V20.89H365.553C365.513 21.5033 365.463 22.1333 365.403 22.78C365.35 23.4267 365.293 24.0567 365.233 24.67C365.173 25.2767 365.107 25.8433 365.033 26.37C364.967 26.89 364.893 27.34 364.813 27.72C364.687 28.3733 364.51 28.8967 364.283 29.29C364.057 29.6767 363.73 29.9267 363.303 30.04C362.877 30.16 362.3 30.1467 361.573 30ZM379.292 30.3C378.219 30.3 377.292 30.0567 376.512 29.57C375.739 29.0833 375.142 28.41 374.722 27.55C374.302 26.69 374.092 25.7033 374.092 24.59C374.092 23.4567 374.305 22.4633 374.732 21.61C375.159 20.7567 375.762 20.0933 376.542 19.62C377.322 19.14 378.239 18.9 379.292 18.9C380.372 18.9 381.302 19.1433 382.082 19.63C382.862 20.11 383.459 20.78 383.872 21.64C384.292 22.4933 384.502 23.4767 384.502 24.59C384.502 25.7167 384.292 26.71 383.872 27.57C383.452 28.4233 382.852 29.0933 382.072 29.58C381.292 30.06 380.365 30.3 379.292 30.3ZM379.292 28.61C380.412 28.61 381.245 28.2367 381.792 27.49C382.339 26.7433 382.612 25.7767 382.612 24.59C382.612 23.37 382.335 22.4 381.782 21.68C381.229 20.9533 380.399 20.59 379.292 20.59C378.539 20.59 377.919 20.76 377.432 21.1C376.945 21.44 376.582 21.91 376.342 22.51C376.102 23.11 375.982 23.8033 375.982 24.59C375.982 25.8033 376.262 26.7767 376.822 27.51C377.382 28.2433 378.205 28.61 379.292 28.61Z" fill="#676767"/>
<g clip-path="url(#clip0_121_530)">
<path d="M30.5888 11.5391C30.588 11.5391 30.587 11.5391 30.5862 11.5391C30.3025 11.5391 30.0356 11.6497 29.8341 11.8507C29.6304 12.0539 29.5182 12.3245 29.5182 12.6126V28.7096C29.5182 29.2998 30.0003 29.7812 30.593 29.7828C33.0917 29.7887 37.2781 30.3095 40.166 33.3317V16.4858C40.166 16.2857 40.1149 16.0977 40.0185 15.9422C37.6481 12.1249 33.0931 11.5449 30.5888 11.5391Z" fill="url(#paint1_radial_121_530)"/>
<path d="M52.4805 28.7097V12.6126C52.4805 12.3245 52.3683 12.0539 52.1646 11.8507C51.9631 11.6497 51.696 11.5391 51.4126 11.5391C51.4117 11.5391 51.4108 11.5391 51.4099 11.5391C48.9057 11.545 44.3507 12.125 41.9802 15.9423C41.8838 16.0978 41.8328 16.2858 41.8328 16.4859V33.3317C44.7208 30.3095 48.9071 29.7887 51.4058 29.7828C51.9984 29.7812 52.4805 29.2998 52.4805 28.7097Z" fill="url(#paint2_radial_121_530)"/>
<path d="M54.9257 15.251H54.1473V28.7093C54.1473 30.2164 52.9194 31.4453 51.4099 31.4491C49.2905 31.4541 45.7958 31.8686 43.3209 34.211C47.6013 33.163 52.1137 33.8443 54.6854 34.4303C55.0065 34.5034 55.3383 34.4279 55.5955 34.2228C55.8519 34.0183 55.999 33.7125 55.999 33.3844V16.3243C55.9991 15.7325 55.5175 15.251 54.9257 15.251Z" fill="url(#paint3_radial_121_530)"/>
<path d="M27.8517 28.7093V15.251H27.0733C26.4816 15.251 26 15.7325 26 16.3243V33.3841C26 33.7123 26.1471 34.018 26.4034 34.2225C26.6605 34.4275 26.992 34.5033 27.3136 34.43C29.8852 33.8438 34.3977 33.1627 38.678 34.2107C36.2031 31.8684 32.7085 31.454 30.5891 31.449C29.0797 31.4453 27.8517 30.2164 27.8517 28.7093Z" fill="url(#paint4_radial_121_530)"/>
</g>
<defs>
<radialGradient id="paint0_radial_121_530" cx="0" cy="0" r="1" gradientUnits="userSpaceOnUse" gradientTransform="translate(206 22.5) rotate(-7.34803) scale(230.4 130.299)">
<stop stop-color="#86C3C4"/>
<stop offset="1" stop-color="#8CC4B9"/>
</radialGradient>
<radialGradient id="paint1_radial_121_530" cx="0" cy="0" r="1" gradientUnits="userSpaceOnUse" gradientTransform="translate(34.8421 22.4354) rotate(-67.5185) scale(15.4441 24.3288)">
<stop stop-color="#86C3C4"/>
<stop offset="1" stop-color="#8CC4B9"/>
</radialGradient>
<radialGradient id="paint2_radial_121_530" cx="0" cy="0" r="1" gradientUnits="userSpaceOnUse" gradientTransform="translate(47.1566 22.4354) rotate(-67.5187) scale(15.4441 24.3286)">
<stop stop-color="#86C3C4"/>
<stop offset="1" stop-color="#8CC4B9"/>
</radialGradient>
<radialGradient id="paint3_radial_121_530" cx="0" cy="0" r="1" gradientUnits="userSpaceOnUse" gradientTransform="translate(49.6599 24.8543) rotate(-60.7909) scale(14.4092 27.3638)">
<stop stop-color="#86C3C4"/>
<stop offset="1" stop-color="#8CC4B9"/>
</radialGradient>
<radialGradient id="paint4_radial_121_530" cx="0" cy="0" r="1" gradientUnits="userSpaceOnUse" gradientTransform="translate(32.339 24.8542) rotate(-60.7908) scale(14.409 27.3636)">
<stop stop-color="#86C3C4"/>
<stop offset="1" stop-color="#8CC4B9"/>
</radialGradient>
<clipPath id="clip0_121_530">
<rect width="29.999" height="29.999" fill="white" transform="translate(26 8)"/>
</clipPath>
</defs>
</svg>
