<svg width="66" height="66" viewBox="0 0 66 66" fill="none" xmlns="http://www.w3.org/2000/svg">
<rect opacity="0.15" width="66" height="66" rx="20" fill="url(#paint0_radial_121_476)"/>
<rect x="6" y="6" width="54" height="54" rx="20" fill="url(#paint1_radial_121_476)"/>
<g clip-path="url(#clip0_121_476)">
<path d="M46.5908 23.1259C46.0441 22.5791 45.1577 22.5791 44.6109 23.1259L27.8381 39.8989L21.3908 33.4517C20.8441 32.9049 19.9577 32.905 19.4109 33.4517C18.8642 33.9984 18.8642 34.8848 19.4109 35.4316L26.8481 42.8686C27.3946 43.4153 28.2817 43.415 28.828 42.8686L46.5908 25.1058C47.1376 24.5591 47.1375 23.6727 46.5908 23.1259Z" fill="white"/>
</g>
<defs>
<radialGradient id="paint0_radial_121_476" cx="0" cy="0" r="1" gradientUnits="userSpaceOnUse" gradientTransform="translate(33 33) rotate(-49.7358) scale(56.6376 124.536)">
<stop stop-color="#86C3C4"/>
<stop offset="1" stop-color="#8CC4B9"/>
</radialGradient>
<radialGradient id="paint1_radial_121_476" cx="0" cy="0" r="1" gradientUnits="userSpaceOnUse" gradientTransform="translate(33 33) rotate(-49.7358) scale(46.3398 101.893)">
<stop stop-color="#86C3C4"/>
<stop offset="1" stop-color="#8CC4B9"/>
</radialGradient>
<clipPath id="clip0_121_476">
<rect width="28" height="28" fill="white" transform="translate(19 19)"/>
</clipPath>
</defs>
</svg>
