<svg width="509" height="60" viewBox="0 0 509 60" fill="none" xmlns="http://www.w3.org/2000/svg">
<rect x="0.5" y="0.5" width="508" height="59" rx="29.5" fill="url(#paint0_radial_121_468)" stroke="url(#paint1_linear_121_468)"/>
<path d="M62.775 22.3C62.7083 22.8833 62.6583 23.45 62.625 24C62.6083 24.55 62.6 24.9667 62.6 25.25C62.6 25.55 62.6083 25.8417 62.625 26.125C62.6417 26.3917 62.6583 26.6167 62.675 26.8H62.1C62 25.8167 61.8583 25.0417 61.675 24.475C61.4917 23.8917 61.175 23.4833 60.725 23.25C60.2917 23 59.6333 22.875 58.75 22.875H57.425C56.8583 22.875 56.425 22.925 56.125 23.025C55.8417 23.1083 55.65 23.3 55.55 23.6C55.45 23.8833 55.4 24.3333 55.4 24.95V37.35C55.4 37.9333 55.4333 38.3833 55.5 38.7C55.5833 39.0167 55.7417 39.2333 55.975 39.35C56.225 39.45 56.5917 39.5 57.075 39.5C58.225 39.5 59.0917 39.2917 59.675 38.875C60.275 38.4417 60.6833 37.8667 60.9 37.15C61.1167 36.4167 61.225 35.6167 61.225 34.75C61.225 33.65 61.0833 32.75 60.8 32.05C60.5333 31.3333 60.075 30.8083 59.425 30.475C58.7917 30.125 57.9333 29.95 56.85 29.95C56.6667 29.95 56.3667 29.9583 55.95 29.975C55.55 29.975 55.1583 29.9833 54.775 30C54.3917 30 54.125 30 53.975 30L53.925 29.525C54.7083 29.525 55.4583 29.5167 56.175 29.5C56.8917 29.4833 57.4 29.475 57.7 29.475C58.7 29.475 59.575 29.6083 60.325 29.875C61.0917 30.125 61.725 30.4833 62.225 30.95C62.725 31.4167 63.1 31.975 63.35 32.625C63.6 33.2583 63.725 33.9583 63.725 34.725C63.725 35.375 63.625 36.0167 63.425 36.65C63.225 37.2667 62.875 37.8333 62.375 38.35C61.8917 38.85 61.225 39.25 60.375 39.55C59.525 39.85 58.45 40 57.15 40C56.7167 40 56.2833 39.9917 55.85 39.975C55.4333 39.9417 54.8167 39.925 54 39.925C53.5333 39.925 53.0083 39.9333 52.425 39.95C51.8583 39.95 51.4 39.9667 51.05 40V39.5C51.6167 39.4667 52.0417 39.4 52.325 39.3C52.625 39.2 52.825 39 52.925 38.7C53.025 38.4 53.075 37.95 53.075 37.35V24.95C53.075 24.3333 53.025 23.8833 52.925 23.6C52.825 23.3 52.625 23.1 52.325 23C52.0417 22.8833 51.6167 22.8167 51.05 22.8V22.3C51.6667 22.3167 52.3167 22.3333 53 22.35C53.6833 22.35 54.3583 22.3583 55.025 22.375C55.6917 22.375 56.3083 22.375 56.875 22.375C57.4583 22.375 57.9333 22.375 58.3 22.375C58.95 22.375 59.6917 22.375 60.525 22.375C61.3583 22.3583 62.1083 22.3333 62.775 22.3ZM69.6676 40.175C68.9842 40.175 68.3926 40.05 67.8926 39.8C67.3926 39.5333 67.0092 39.1667 66.7426 38.7C66.4926 38.2333 66.3676 37.6917 66.3676 37.075C66.3676 36.3417 66.5342 35.7417 66.8676 35.275C67.2176 34.8083 67.6592 34.4333 68.1926 34.15C68.7259 33.8667 69.2842 33.6333 69.8676 33.45C70.4676 33.25 71.0342 33.0667 71.5676 32.9C72.1009 32.7167 72.5342 32.5083 72.8676 32.275C73.2176 32.0417 73.3926 31.7333 73.3926 31.35V29.8C73.3926 29.1 73.2842 28.5667 73.0676 28.2C72.8676 27.8333 72.5926 27.5917 72.2426 27.475C71.8926 27.3417 71.5009 27.275 71.0676 27.275C70.6509 27.275 70.2009 27.3333 69.7176 27.45C69.2509 27.5667 68.8759 27.8083 68.5926 28.175C68.9092 28.2417 69.1842 28.4083 69.4176 28.675C69.6509 28.9417 69.7676 29.2833 69.7676 29.7C69.7676 30.1167 69.6342 30.45 69.3676 30.7C69.1009 30.9333 68.7592 31.05 68.3426 31.05C67.8592 31.05 67.5009 30.9 67.2676 30.6C67.0509 30.2833 66.9426 29.9333 66.9426 29.55C66.9426 29.1167 67.0509 28.7667 67.2676 28.5C67.4842 28.2333 67.7592 27.9833 68.0926 27.75C68.4759 27.4833 68.9676 27.2583 69.5676 27.075C70.1842 26.875 70.8759 26.775 71.6426 26.775C72.3259 26.775 72.9092 26.8583 73.3926 27.025C73.8759 27.175 74.2759 27.4 74.5926 27.7C75.0259 28.1 75.3092 28.5917 75.4426 29.175C75.5759 29.7417 75.6426 30.425 75.6426 31.225V38.175C75.6426 38.5917 75.7009 38.8917 75.8176 39.075C75.9509 39.2583 76.1509 39.35 76.4176 39.35C76.6009 39.35 76.7759 39.3083 76.9426 39.225C77.1092 39.1417 77.3092 39.0083 77.5426 38.825L77.8176 39.25C77.4676 39.5167 77.1342 39.7417 76.8176 39.925C76.5009 40.0917 76.0759 40.175 75.5426 40.175C75.0592 40.175 74.6592 40.0917 74.3426 39.925C74.0259 39.7583 73.7842 39.5167 73.6176 39.2C73.4676 38.8667 73.3926 38.45 73.3926 37.95C72.9426 38.7 72.4009 39.2583 71.7676 39.625C71.1509 39.9917 70.4509 40.175 69.6676 40.175ZM70.5676 39.175C71.1176 39.175 71.6259 39.0167 72.0926 38.7C72.5759 38.3833 73.0092 37.9083 73.3926 37.275V32.375C73.1926 32.6583 72.9009 32.9 72.5176 33.1C72.1342 33.2833 71.7176 33.475 71.2676 33.675C70.8176 33.8583 70.3842 34.0833 69.9676 34.35C69.5676 34.6 69.2342 34.9333 68.9676 35.35C68.7009 35.7667 68.5676 36.3083 68.5676 36.975C68.5676 37.6417 68.7426 38.175 69.0926 38.575C69.4592 38.975 69.9509 39.175 70.5676 39.175ZM83.0438 26.85V42.2C83.0438 42.9167 83.2521 43.3917 83.6688 43.625C84.1021 43.875 84.6938 44 85.4438 44V44.525C85.0771 44.5083 84.5688 44.4833 83.9188 44.45C83.2688 44.4333 82.5771 44.425 81.8438 44.425C81.3271 44.425 80.8104 44.4333 80.2938 44.45C79.7938 44.4833 79.4104 44.5083 79.1438 44.525V44C79.7438 44 80.1688 43.8917 80.4188 43.675C80.6688 43.4583 80.7938 43.05 80.7938 42.45V29.85C80.7938 29.1 80.6604 28.55 80.3938 28.2C80.1271 27.8333 79.6271 27.65 78.8938 27.65V27.125C79.4271 27.175 79.9438 27.2 80.4438 27.2C80.9271 27.2 81.3854 27.175 81.8188 27.125C82.2688 27.0583 82.6771 26.9667 83.0438 26.85ZM87.0438 26.775C87.9271 26.775 88.7188 27.0167 89.4188 27.5C90.1188 27.9667 90.6688 28.6583 91.0688 29.575C91.4854 30.4917 91.6938 31.625 91.6938 32.975C91.6938 33.875 91.5854 34.7667 91.3688 35.65C91.1521 36.5167 90.8104 37.3083 90.3438 38.025C89.8938 38.725 89.3021 39.2917 88.5688 39.725C87.8521 40.1417 86.9854 40.35 85.9688 40.35C85.1854 40.35 84.5021 40.1667 83.9188 39.8C83.3521 39.4333 82.9688 38.9917 82.7688 38.475L83.0188 38.125C83.2521 38.5917 83.5854 38.9833 84.0188 39.3C84.4688 39.6167 85.0271 39.775 85.6937 39.775C86.6271 39.775 87.3521 39.4833 87.8688 38.9C88.3854 38.3167 88.7438 37.5417 88.9438 36.575C89.1604 35.5917 89.2688 34.5083 89.2688 33.325C89.2688 31.9917 89.1604 30.9 88.9438 30.05C88.7271 29.2 88.4021 28.5667 87.9688 28.15C87.5354 27.7333 87.0021 27.525 86.3688 27.525C85.5521 27.525 84.8104 27.8667 84.1438 28.55C83.4771 29.2167 83.0521 30.2333 82.8688 31.6L82.5688 31.25C82.7521 29.8333 83.2521 28.7333 84.0688 27.95C84.9021 27.1667 85.8938 26.775 87.0438 26.775ZM100.22 26.775C101.287 26.775 102.245 27.0083 103.095 27.475C103.945 27.9417 104.62 28.675 105.12 29.675C105.637 30.675 105.895 31.975 105.895 33.575C105.895 35.175 105.637 36.475 105.12 37.475C104.62 38.4583 103.945 39.1833 103.095 39.65C102.245 40.1167 101.287 40.35 100.22 40.35C99.1701 40.35 98.2118 40.1167 97.3451 39.65C96.4951 39.1833 95.8118 38.4583 95.2951 37.475C94.7951 36.475 94.5451 35.175 94.5451 33.575C94.5451 31.975 94.7951 30.675 95.2951 29.675C95.8118 28.675 96.4951 27.9417 97.3451 27.475C98.2118 27.0083 99.1701 26.775 100.22 26.775ZM100.22 27.275C99.2701 27.275 98.4868 27.7667 97.8701 28.75C97.2701 29.7333 96.9701 31.3417 96.9701 33.575C96.9701 35.8083 97.2701 37.4167 97.8701 38.4C98.4868 39.3667 99.2701 39.85 100.22 39.85C101.17 39.85 101.945 39.3667 102.545 38.4C103.162 37.4167 103.47 35.8083 103.47 33.575C103.47 31.3417 103.162 29.7333 102.545 28.75C101.945 27.7667 101.17 27.275 100.22 27.275ZM114.516 27.15C115.75 27.15 116.716 27.275 117.416 27.525C118.133 27.775 118.641 28.1333 118.941 28.6C119.241 29.05 119.391 29.575 119.391 30.175C119.391 31.0417 118.933 31.8 118.016 32.45C117.116 33.1 115.75 33.425 113.916 33.425C113.916 33.425 113.875 33.4083 113.791 33.375C113.725 33.3417 113.65 33.3083 113.566 33.275C113.483 33.2417 113.441 33.225 113.441 33.225C114.441 33.2083 115.2 33.1 115.716 32.9C116.25 32.6833 116.608 32.3667 116.791 31.95C116.991 31.5333 117.091 31.0083 117.091 30.375C117.091 29.8583 117.016 29.4 116.866 29C116.733 28.5833 116.458 28.2583 116.041 28.025C115.641 27.7917 115.05 27.675 114.266 27.675C113.6 27.675 113.125 27.8083 112.841 28.075C112.575 28.325 112.441 28.7917 112.441 29.475V37.675C112.441 38.375 112.575 38.85 112.841 39.1C113.125 39.35 113.625 39.475 114.341 39.475C115.275 39.475 115.991 39.3333 116.491 39.05C117.008 38.7667 117.358 38.3917 117.541 37.925C117.741 37.4583 117.841 36.95 117.841 36.4C117.841 35.3333 117.541 34.6083 116.941 34.225C116.358 33.8417 115.608 33.65 114.691 33.65H110.891C110.891 33.65 110.891 33.5833 110.891 33.45C110.891 33.3 110.891 33.225 110.891 33.225H114.466L114.691 33.275C116.025 33.275 117.091 33.4 117.891 33.65C118.708 33.8833 119.291 34.2333 119.641 34.7C120.008 35.15 120.191 35.7083 120.191 36.375C120.191 37.0417 120.008 37.65 119.641 38.2C119.291 38.75 118.708 39.1917 117.891 39.525C117.075 39.8417 115.975 40 114.591 40C114.075 40 113.541 39.9833 112.991 39.95C112.441 39.9167 111.858 39.9 111.241 39.9C110.725 39.9 110.175 39.9167 109.591 39.95C109.008 39.9667 108.575 39.9833 108.291 40V39.475C108.975 39.475 109.458 39.35 109.741 39.1C110.041 38.85 110.191 38.375 110.191 37.675V29.475C110.191 28.775 110.041 28.3 109.741 28.05C109.458 27.8 108.975 27.675 108.291 27.675V27.15C108.575 27.1667 109.008 27.1917 109.591 27.225C110.175 27.2417 110.725 27.25 111.241 27.25C111.841 27.25 112.425 27.2333 112.991 27.2C113.558 27.1667 114.066 27.15 114.516 27.15ZM125.989 40.175C125.306 40.175 124.714 40.05 124.214 39.8C123.714 39.5333 123.331 39.1667 123.064 38.7C122.814 38.2333 122.689 37.6917 122.689 37.075C122.689 36.3417 122.856 35.7417 123.189 35.275C123.539 34.8083 123.981 34.4333 124.514 34.15C125.047 33.8667 125.606 33.6333 126.189 33.45C126.789 33.25 127.356 33.0667 127.889 32.9C128.422 32.7167 128.856 32.5083 129.189 32.275C129.539 32.0417 129.714 31.7333 129.714 31.35V29.8C129.714 29.1 129.606 28.5667 129.389 28.2C129.189 27.8333 128.914 27.5917 128.564 27.475C128.214 27.3417 127.822 27.275 127.389 27.275C126.972 27.275 126.522 27.3333 126.039 27.45C125.572 27.5667 125.197 27.8083 124.914 28.175C125.231 28.2417 125.506 28.4083 125.739 28.675C125.972 28.9417 126.089 29.2833 126.089 29.7C126.089 30.1167 125.956 30.45 125.689 30.7C125.422 30.9333 125.081 31.05 124.664 31.05C124.181 31.05 123.822 30.9 123.589 30.6C123.372 30.2833 123.264 29.9333 123.264 29.55C123.264 29.1167 123.372 28.7667 123.589 28.5C123.806 28.2333 124.081 27.9833 124.414 27.75C124.797 27.4833 125.289 27.2583 125.889 27.075C126.506 26.875 127.197 26.775 127.964 26.775C128.647 26.775 129.231 26.8583 129.714 27.025C130.197 27.175 130.597 27.4 130.914 27.7C131.347 28.1 131.631 28.5917 131.764 29.175C131.897 29.7417 131.964 30.425 131.964 31.225V38.175C131.964 38.5917 132.022 38.8917 132.139 39.075C132.272 39.2583 132.472 39.35 132.739 39.35C132.922 39.35 133.097 39.3083 133.264 39.225C133.431 39.1417 133.631 39.0083 133.864 38.825L134.139 39.25C133.789 39.5167 133.456 39.7417 133.139 39.925C132.822 40.0917 132.397 40.175 131.864 40.175C131.381 40.175 130.981 40.0917 130.664 39.925C130.347 39.7583 130.106 39.5167 129.939 39.2C129.789 38.8667 129.714 38.45 129.714 37.95C129.264 38.7 128.722 39.2583 128.089 39.625C127.472 39.9917 126.772 40.175 125.989 40.175ZM126.889 39.175C127.439 39.175 127.947 39.0167 128.414 38.7C128.897 38.3833 129.331 37.9083 129.714 37.275V32.375C129.514 32.6583 129.222 32.9 128.839 33.1C128.456 33.2833 128.039 33.475 127.589 33.675C127.139 33.8583 126.706 34.0833 126.289 34.35C125.889 34.6 125.556 34.9333 125.289 35.35C125.022 35.7667 124.889 36.3083 124.889 36.975C124.889 37.6417 125.064 38.175 125.414 38.575C125.781 38.975 126.272 39.175 126.889 39.175ZM145.098 32.55V34H136.073V32.55H145.098ZM155.398 22.175L161.498 37.9C161.748 38.5333 162.032 38.9583 162.348 39.175C162.665 39.375 162.957 39.4833 163.223 39.5V40C162.89 39.9667 162.482 39.95 161.998 39.95C161.515 39.9333 161.032 39.925 160.548 39.925C159.898 39.925 159.29 39.9333 158.723 39.95C158.157 39.95 157.698 39.9667 157.348 40V39.5C158.198 39.4667 158.74 39.325 158.973 39.075C159.207 38.8083 159.157 38.25 158.823 37.4L154.173 24.975L154.573 24.65L150.223 35.95C149.957 36.6167 149.798 37.1833 149.748 37.65C149.698 38.1 149.74 38.4583 149.873 38.725C150.023 38.9917 150.265 39.1833 150.598 39.3C150.948 39.4167 151.382 39.4833 151.898 39.5V40C151.432 39.9667 150.94 39.95 150.423 39.95C149.923 39.9333 149.457 39.925 149.023 39.925C148.607 39.925 148.248 39.9333 147.948 39.95C147.665 39.95 147.398 39.9667 147.148 40V39.5C147.482 39.4167 147.823 39.225 148.173 38.925C148.523 38.6083 148.84 38.075 149.123 37.325L154.998 22.175C155.065 22.175 155.132 22.175 155.198 22.175C155.265 22.175 155.332 22.175 155.398 22.175ZM158.448 32.8V33.3H150.998L151.248 32.8H158.448ZM175.854 20.35L176.229 20.45C176.062 21 175.87 21.5 175.654 21.95C175.437 22.4 175.162 22.7583 174.829 23.025C174.562 23.2417 174.22 23.425 173.804 23.575C173.387 23.725 172.862 23.8167 172.229 23.85C171.962 23.8667 171.579 23.8917 171.079 23.925C170.579 23.9583 170.112 24.0167 169.679 24.1C168.995 24.2167 168.412 24.425 167.929 24.725C167.445 25.0083 167.037 25.425 166.704 25.975C166.387 26.525 166.129 27.2417 165.929 28.125C165.729 29.0083 165.562 30.0917 165.429 31.375L166.679 32.9L165.254 32.2C165.504 30.9333 165.895 29.95 166.429 29.25C166.979 28.5333 167.62 28.025 168.354 27.725C169.087 27.425 169.862 27.275 170.679 27.275C171.995 27.275 173.045 27.575 173.829 28.175C174.612 28.7583 175.179 29.525 175.529 30.475C175.895 31.4083 176.079 32.4167 176.079 33.5C176.079 34.8667 175.829 36.0667 175.329 37.1C174.829 38.1333 174.129 38.9333 173.229 39.5C172.345 40.0667 171.312 40.35 170.129 40.35C169.329 40.35 168.604 40.2083 167.954 39.925C167.304 39.625 166.745 39.1583 166.279 38.525C165.812 37.875 165.445 37.0333 165.179 36C164.929 34.9667 164.804 33.7 164.804 32.2C164.804 31.9833 164.812 31.625 164.829 31.125C164.845 30.625 164.887 30.05 164.954 29.4C165.02 28.75 165.129 28.0833 165.279 27.4C165.429 26.7 165.629 26.0333 165.879 25.4C166.129 24.7667 166.454 24.2333 166.854 23.8C167.187 23.4333 167.604 23.125 168.104 22.875C168.604 22.6083 169.187 22.4167 169.854 22.3C170.37 22.2167 170.912 22.1583 171.479 22.125C172.045 22.0917 172.487 22.0667 172.804 22.05C173.737 21.9833 174.412 21.8167 174.829 21.55C175.245 21.2833 175.587 20.8833 175.854 20.35ZM170.579 27.8C170.012 27.8 169.47 27.9833 168.954 28.35C168.437 28.7 168.012 29.3 167.679 30.15C167.345 31 167.179 32.1833 167.179 33.7C167.179 35.1833 167.337 36.3833 167.654 37.3C167.987 38.2 168.412 38.85 168.929 39.25C169.445 39.65 169.987 39.85 170.554 39.85C171.204 39.85 171.729 39.6417 172.129 39.225C172.545 38.7917 172.862 38.25 173.079 37.6C173.295 36.9333 173.445 36.2333 173.529 35.5C173.612 34.75 173.654 34.0583 173.654 33.425C173.654 31.3917 173.362 29.95 172.779 29.1C172.212 28.2333 171.479 27.8 170.579 27.8ZM188.528 27.15V27.675C187.845 27.675 187.353 27.8 187.053 28.05C186.77 28.3 186.628 28.775 186.628 29.475V37.675C186.628 38.375 186.761 38.85 187.028 39.1C187.311 39.35 187.903 39.475 188.803 39.475C188.736 40.0583 188.686 40.6167 188.653 41.15C188.636 41.6833 188.628 42.0917 188.628 42.375C188.628 42.675 188.636 42.9583 188.653 43.225C188.67 43.5083 188.686 43.7417 188.703 43.925H188.128C188.045 42.9417 187.928 42.15 187.778 41.55C187.645 40.9667 187.403 40.5417 187.053 40.275C186.72 40.025 186.211 39.9 185.528 39.9C185.128 39.9 184.753 39.9083 184.403 39.925C184.053 39.925 183.67 39.9333 183.253 39.95C182.853 39.9667 182.37 39.9833 181.803 40C181.236 40 180.536 40 179.703 40C179.02 40 178.503 40.1167 178.153 40.35C177.82 40.6 177.578 41.0083 177.428 41.575C177.295 42.1583 177.186 42.9417 177.103 43.925H176.528C176.561 43.7417 176.578 43.5083 176.578 43.225C176.595 42.9583 176.603 42.675 176.603 42.375C176.603 42.0917 176.586 41.6833 176.553 41.15C176.536 40.6167 176.495 40.0583 176.428 39.475H182.728C183.328 39.475 183.753 39.35 184.003 39.1C184.253 38.85 184.378 38.375 184.378 37.675V29.475C184.378 28.775 184.253 28.3 184.003 28.05C183.753 27.8 183.328 27.675 182.728 27.675H182.503C181.903 27.675 181.495 27.8 181.278 28.05C181.061 28.3 180.92 28.775 180.853 29.475C180.786 30.375 180.695 31.325 180.578 32.325C180.478 33.3083 180.336 34.2667 180.153 35.2C179.97 36.1333 179.72 36.975 179.403 37.725C179.22 38.175 178.978 38.6083 178.678 39.025C178.378 39.425 177.961 39.675 177.428 39.775L176.903 39.475C177.436 39.475 177.878 39.2833 178.228 38.9C178.578 38.5 178.836 38.0667 179.003 37.6C179.286 36.8667 179.511 36.0583 179.678 35.175C179.861 34.2917 180.011 33.3667 180.128 32.4C180.245 31.4333 180.336 30.4583 180.403 29.475C180.453 28.775 180.303 28.3 179.953 28.05C179.62 27.8 179.111 27.675 178.428 27.675V27.15C178.561 27.1667 178.77 27.1917 179.053 27.225C179.353 27.2417 179.711 27.25 180.128 27.25C180.545 27.25 180.97 27.2333 181.403 27.2C181.853 27.1667 182.311 27.15 182.778 27.15C183.245 27.15 183.67 27.1667 184.053 27.2C184.453 27.2333 184.936 27.25 185.503 27.25C186.086 27.25 186.661 27.2417 187.228 27.225C187.811 27.1917 188.245 27.1667 188.528 27.15ZM202.213 27.125V27.625C201.897 27.6583 201.605 27.8 201.338 28.05C201.072 28.3 200.822 28.7417 200.588 29.375L196.488 40.125H196.063L191.463 29.05C191.147 28.4 190.83 28.0083 190.513 27.875C190.213 27.725 189.963 27.65 189.763 27.65V27.125C190.13 27.175 190.513 27.2167 190.913 27.25C191.313 27.2667 191.747 27.275 192.213 27.275C192.73 27.275 193.272 27.2583 193.838 27.225C194.422 27.1917 194.963 27.1583 195.463 27.125V27.65C195.047 27.65 194.672 27.6833 194.338 27.75C194.022 27.8 193.822 27.975 193.738 28.275C193.655 28.5583 193.755 29.05 194.038 29.75L197.113 37.375L196.963 37.425L199.813 29.975C200.03 29.425 200.113 28.9917 200.063 28.675C200.03 28.3417 199.863 28.0917 199.563 27.925C199.263 27.7583 198.813 27.6583 198.213 27.625V27.125C198.513 27.1417 198.772 27.1583 198.988 27.175C199.205 27.175 199.413 27.1833 199.613 27.2C199.83 27.2 200.063 27.2 200.313 27.2C200.697 27.2 201.038 27.1917 201.338 27.175C201.655 27.1583 201.947 27.1417 202.213 27.125ZM196.488 40.125L195.638 42.3C195.472 42.7167 195.297 43.0667 195.113 43.35C194.947 43.6333 194.763 43.8667 194.563 44.05C194.297 44.3 193.98 44.4667 193.613 44.55C193.247 44.65 192.913 44.7 192.613 44.7C192.297 44.7 192.005 44.6417 191.738 44.525C191.488 44.4083 191.288 44.2333 191.138 44C190.988 43.7833 190.913 43.5167 190.913 43.2C190.913 42.8 191.03 42.475 191.263 42.225C191.497 41.9917 191.822 41.875 192.238 41.875C192.588 41.875 192.888 41.975 193.138 42.175C193.388 42.375 193.513 42.6667 193.513 43.05C193.513 43.3333 193.447 43.5667 193.313 43.75C193.18 43.9333 193.022 44.075 192.838 44.175C192.872 44.1917 192.897 44.2 192.913 44.2C192.947 44.2 192.972 44.2 192.988 44.2C193.438 44.2 193.838 44.0417 194.188 43.725C194.538 43.425 194.847 42.9333 195.113 42.25L196.013 39.925L196.488 40.125ZM213.65 27.15V27.675C212.966 27.675 212.475 27.8 212.175 28.05C211.891 28.3 211.75 28.775 211.75 29.475V37.675C211.75 38.375 211.891 38.85 212.175 39.1C212.475 39.35 212.966 39.475 213.65 39.475V40C213.366 39.9833 212.95 39.9667 212.4 39.95C211.85 39.9167 211.25 39.9 210.6 39.9C209.95 39.9 209.291 39.9167 208.625 39.95C207.975 39.9667 207.466 39.9833 207.1 40V39.475C207.85 39.475 208.433 39.3583 208.85 39.125C209.283 38.875 209.5 38.3917 209.5 37.675V29.475C209.5 28.775 209.375 28.3 209.125 28.05C208.875 27.8 208.45 27.675 207.85 27.675H207.625C207.208 27.675 206.933 27.8 206.8 28.05C206.666 28.3 206.566 28.775 206.5 29.475C206.366 31.025 206.2 32.5083 206 33.925C205.816 35.325 205.5 36.5917 205.05 37.725C204.883 38.125 204.675 38.5333 204.425 38.95C204.175 39.35 203.866 39.6833 203.5 39.95C203.15 40.2167 202.725 40.35 202.225 40.35C201.925 40.35 201.641 40.2917 201.375 40.175C201.108 40.075 200.891 39.9167 200.725 39.7C200.558 39.4667 200.475 39.1833 200.475 38.85C200.475 38.4333 200.6 38.1083 200.85 37.875C201.1 37.6417 201.425 37.525 201.825 37.525C202.175 37.525 202.466 37.625 202.7 37.825C202.95 38.025 203.075 38.325 203.075 38.725C203.075 38.9917 203 39.2333 202.85 39.45C202.7 39.65 202.458 39.8167 202.125 39.95C202.158 39.9667 202.2 39.975 202.25 39.975C202.316 39.975 202.358 39.975 202.375 39.975C202.791 39.975 203.141 39.8417 203.425 39.575C203.725 39.2917 203.975 38.9667 204.175 38.6C204.391 38.2167 204.55 37.8833 204.65 37.6C204.916 36.9 205.141 36.1167 205.325 35.25C205.508 34.3833 205.658 33.4583 205.775 32.475C205.891 31.4917 205.983 30.4917 206.05 29.475C206.1 28.775 205.95 28.3 205.6 28.05C205.266 27.8 204.758 27.675 204.075 27.675V27.15C204.208 27.1667 204.416 27.1917 204.7 27.225C205 27.2417 205.358 27.25 205.775 27.25C206.108 27.25 206.45 27.25 206.8 27.25C207.166 27.25 207.533 27.25 207.9 27.25C208.216 27.25 208.508 27.25 208.775 27.25C209.041 27.25 209.325 27.25 209.625 27.25C209.925 27.25 210.258 27.25 210.625 27.25C211.008 27.25 211.391 27.2417 211.775 27.225C212.175 27.2083 212.541 27.1917 212.875 27.175C213.208 27.1583 213.466 27.15 213.65 27.15ZM221.737 26.775C222.803 26.775 223.762 27.0083 224.612 27.475C225.462 27.9417 226.137 28.675 226.637 29.675C227.153 30.675 227.412 31.975 227.412 33.575C227.412 35.175 227.153 36.475 226.637 37.475C226.137 38.4583 225.462 39.1833 224.612 39.65C223.762 40.1167 222.803 40.35 221.737 40.35C220.687 40.35 219.728 40.1167 218.862 39.65C218.012 39.1833 217.328 38.4583 216.812 37.475C216.312 36.475 216.062 35.175 216.062 33.575C216.062 31.975 216.312 30.675 216.812 29.675C217.328 28.675 218.012 27.9417 218.862 27.475C219.728 27.0083 220.687 26.775 221.737 26.775ZM221.737 27.275C220.787 27.275 220.003 27.7667 219.387 28.75C218.787 29.7333 218.487 31.3417 218.487 33.575C218.487 35.8083 218.787 37.4167 219.387 38.4C220.003 39.3667 220.787 39.85 221.737 39.85C222.687 39.85 223.462 39.3667 224.062 38.4C224.678 37.4167 224.987 35.8083 224.987 33.575C224.987 31.3417 224.678 29.7333 224.062 28.75C223.462 27.7667 222.687 27.275 221.737 27.275ZM236.033 26.775C236.566 26.775 237.091 26.8417 237.608 26.975C238.141 27.1083 238.6 27.3083 238.983 27.575C239.333 27.8083 239.608 28.0917 239.808 28.425C240.025 28.7417 240.133 29.1 240.133 29.5C240.133 29.95 240.008 30.3 239.758 30.55C239.508 30.7833 239.191 30.9 238.808 30.9C238.441 30.9 238.116 30.7833 237.833 30.55C237.566 30.3 237.433 29.9667 237.433 29.55C237.433 29.2 237.525 28.9167 237.708 28.7C237.908 28.4833 238.166 28.3417 238.483 28.275C238.316 27.975 238.016 27.725 237.583 27.525C237.166 27.325 236.716 27.225 236.233 27.225C235.683 27.225 235.133 27.4083 234.583 27.775C234.033 28.1417 233.575 28.7667 233.208 29.65C232.841 30.5333 232.658 31.7667 232.658 33.35C232.658 34.8167 232.825 35.9833 233.158 36.85C233.491 37.7167 233.925 38.3417 234.458 38.725C235.008 39.0917 235.608 39.275 236.258 39.275C236.691 39.275 237.133 39.1917 237.583 39.025C238.033 38.8583 238.458 38.5917 238.858 38.225C239.258 37.8417 239.6 37.3333 239.883 36.7L240.358 36.875C240.191 37.4083 239.916 37.95 239.533 38.5C239.15 39.0333 238.65 39.475 238.033 39.825C237.416 40.175 236.658 40.35 235.758 40.35C234.725 40.35 233.791 40.0833 232.958 39.55C232.125 39.0167 231.458 38.2583 230.958 37.275C230.475 36.275 230.233 35.0917 230.233 33.725C230.233 32.3417 230.475 31.1333 230.958 30.1C231.458 29.05 232.141 28.2333 233.008 27.65C233.891 27.0667 234.9 26.775 236.033 26.775ZM235.233 32.325C235.566 32.325 235.85 32.3917 236.083 32.525C236.316 32.6583 236.558 32.8 236.808 32.95C237.058 33.0833 237.383 33.15 237.783 33.15C238.016 33.15 238.233 33.1083 238.433 33.025C238.65 32.925 238.866 32.7333 239.083 32.45L239.408 32.65C239.108 33.2167 238.791 33.6667 238.458 34C238.141 34.3167 237.733 34.475 237.233 34.475C236.883 34.475 236.575 34.4083 236.308 34.275C236.058 34.1417 235.8 34.0167 235.533 33.9C235.266 33.7667 234.95 33.7 234.583 33.7C234.233 33.7 233.866 33.7917 233.483 33.975C233.116 34.1583 232.741 34.4667 232.358 34.9L232.408 34.275C232.858 33.5917 233.333 33.1 233.833 32.8C234.35 32.4833 234.816 32.325 235.233 32.325ZM248.862 27.15C250.095 27.15 251.062 27.275 251.762 27.525C252.479 27.775 252.987 28.1333 253.287 28.6C253.587 29.05 253.737 29.575 253.737 30.175C253.737 31.0417 253.279 31.8 252.362 32.45C251.462 33.1 250.095 33.425 248.262 33.425C248.262 33.425 248.22 33.4083 248.137 33.375C248.07 33.3417 247.995 33.3083 247.912 33.275C247.829 33.2417 247.787 33.225 247.787 33.225C248.787 33.2083 249.545 33.1 250.062 32.9C250.595 32.6833 250.954 32.3667 251.137 31.95C251.337 31.5333 251.437 31.0083 251.437 30.375C251.437 29.8583 251.362 29.4 251.212 29C251.079 28.5833 250.804 28.2583 250.387 28.025C249.987 27.7917 249.395 27.675 248.612 27.675C247.945 27.675 247.47 27.8083 247.187 28.075C246.92 28.325 246.787 28.7917 246.787 29.475V37.675C246.787 38.375 246.92 38.85 247.187 39.1C247.47 39.35 247.97 39.475 248.687 39.475C249.62 39.475 250.337 39.3333 250.837 39.05C251.354 38.7667 251.704 38.3917 251.887 37.925C252.087 37.4583 252.187 36.95 252.187 36.4C252.187 35.3333 251.887 34.6083 251.287 34.225C250.704 33.8417 249.954 33.65 249.037 33.65H245.237C245.237 33.65 245.237 33.5833 245.237 33.45C245.237 33.3 245.237 33.225 245.237 33.225H248.812L249.037 33.275C250.37 33.275 251.437 33.4 252.237 33.65C253.054 33.8833 253.637 34.2333 253.987 34.7C254.354 35.15 254.537 35.7083 254.537 36.375C254.537 37.0417 254.354 37.65 253.987 38.2C253.637 38.75 253.054 39.1917 252.237 39.525C251.42 39.8417 250.32 40 248.937 40C248.42 40 247.887 39.9833 247.337 39.95C246.787 39.9167 246.204 39.9 245.587 39.9C245.07 39.9 244.52 39.9167 243.937 39.95C243.354 39.9667 242.92 39.9833 242.637 40V39.475C243.32 39.475 243.804 39.35 244.087 39.1C244.387 38.85 244.537 38.375 244.537 37.675V29.475C244.537 28.775 244.387 28.3 244.087 28.05C243.804 27.8 243.32 27.675 242.637 27.675V27.15C242.92 27.1667 243.354 27.1917 243.937 27.225C244.52 27.2417 245.07 27.25 245.587 27.25C246.187 27.25 246.77 27.2333 247.337 27.2C247.904 27.1667 248.412 27.15 248.862 27.15ZM260.335 40.175C259.651 40.175 259.06 40.05 258.56 39.8C258.06 39.5333 257.676 39.1667 257.41 38.7C257.16 38.2333 257.035 37.6917 257.035 37.075C257.035 36.3417 257.201 35.7417 257.535 35.275C257.885 34.8083 258.326 34.4333 258.86 34.15C259.393 33.8667 259.951 33.6333 260.535 33.45C261.135 33.25 261.701 33.0667 262.235 32.9C262.768 32.7167 263.201 32.5083 263.535 32.275C263.885 32.0417 264.06 31.7333 264.06 31.35V29.8C264.06 29.1 263.951 28.5667 263.735 28.2C263.535 27.8333 263.26 27.5917 262.91 27.475C262.56 27.3417 262.168 27.275 261.735 27.275C261.318 27.275 260.868 27.3333 260.385 27.45C259.918 27.5667 259.543 27.8083 259.26 28.175C259.576 28.2417 259.851 28.4083 260.085 28.675C260.318 28.9417 260.435 29.2833 260.435 29.7C260.435 30.1167 260.301 30.45 260.035 30.7C259.768 30.9333 259.426 31.05 259.01 31.05C258.526 31.05 258.168 30.9 257.935 30.6C257.718 30.2833 257.61 29.9333 257.61 29.55C257.61 29.1167 257.718 28.7667 257.935 28.5C258.151 28.2333 258.426 27.9833 258.76 27.75C259.143 27.4833 259.635 27.2583 260.235 27.075C260.851 26.875 261.543 26.775 262.31 26.775C262.993 26.775 263.576 26.8583 264.06 27.025C264.543 27.175 264.943 27.4 265.26 27.7C265.693 28.1 265.976 28.5917 266.11 29.175C266.243 29.7417 266.31 30.425 266.31 31.225V38.175C266.31 38.5917 266.368 38.8917 266.485 39.075C266.618 39.2583 266.818 39.35 267.085 39.35C267.268 39.35 267.443 39.3083 267.61 39.225C267.776 39.1417 267.976 39.0083 268.21 38.825L268.485 39.25C268.135 39.5167 267.801 39.7417 267.485 39.925C267.168 40.0917 266.743 40.175 266.21 40.175C265.726 40.175 265.326 40.0917 265.01 39.925C264.693 39.7583 264.451 39.5167 264.285 39.2C264.135 38.8667 264.06 38.45 264.06 37.95C263.61 38.7 263.068 39.2583 262.435 39.625C261.818 39.9917 261.118 40.175 260.335 40.175ZM261.235 39.175C261.785 39.175 262.293 39.0167 262.76 38.7C263.243 38.3833 263.676 37.9083 264.06 37.275V32.375C263.86 32.6583 263.568 32.9 263.185 33.1C262.801 33.2833 262.385 33.475 261.935 33.675C261.485 33.8583 261.051 34.0833 260.635 34.35C260.235 34.6 259.901 34.9333 259.635 35.35C259.368 35.7667 259.235 36.3083 259.235 36.975C259.235 37.6417 259.41 38.175 259.76 38.575C260.126 38.975 260.618 39.175 261.235 39.175ZM285.011 21.95C286.595 21.95 287.978 22.3083 289.161 23.025C290.361 23.7417 291.286 24.775 291.936 26.125C292.603 27.4583 292.936 29.0833 292.936 31C292.936 32.8667 292.595 34.5 291.911 35.9C291.245 37.3 290.311 38.3917 289.111 39.175C287.911 39.9583 286.536 40.35 284.986 40.35C283.403 40.35 282.011 39.9917 280.811 39.275C279.628 38.5583 278.703 37.525 278.036 36.175C277.386 34.825 277.061 33.2 277.061 31.3C277.061 29.4333 277.403 27.8 278.086 26.4C278.77 25 279.703 23.9083 280.886 23.125C282.086 22.3417 283.461 21.95 285.011 21.95ZM284.911 22.4C283.828 22.4 282.886 22.775 282.086 23.525C281.286 24.275 280.661 25.3083 280.211 26.625C279.778 27.9417 279.561 29.4667 279.561 31.2C279.561 32.9667 279.803 34.5083 280.286 35.825C280.786 37.125 281.453 38.1333 282.286 38.85C283.136 39.55 284.07 39.9 285.086 39.9C286.17 39.9 287.111 39.525 287.911 38.775C288.711 38.025 289.328 36.9917 289.761 35.675C290.211 34.3417 290.436 32.8167 290.436 31.1C290.436 29.3167 290.186 27.775 289.686 26.475C289.203 25.175 288.545 24.175 287.711 23.475C286.878 22.7583 285.945 22.4 284.911 22.4ZM307.287 27.15V27.675C306.603 27.675 306.112 27.8 305.812 28.05C305.528 28.3 305.387 28.775 305.387 29.475V37.675C305.387 38.375 305.528 38.85 305.812 39.1C306.112 39.35 306.603 39.475 307.287 39.475V40C307.003 39.9833 306.587 39.9667 306.037 39.95C305.487 39.9167 304.887 39.9 304.237 39.9C303.587 39.9 302.928 39.9167 302.262 39.95C301.612 39.9667 301.103 39.9833 300.737 40V39.475C301.487 39.475 302.07 39.3583 302.487 39.125C302.92 38.875 303.137 38.3917 303.137 37.675V29.475C303.137 28.775 303.012 28.3 302.762 28.05C302.512 27.8 302.087 27.675 301.487 27.675H301.262C300.845 27.675 300.57 27.8 300.437 28.05C300.303 28.3 300.203 28.775 300.137 29.475C300.003 31.025 299.837 32.5083 299.637 33.925C299.453 35.325 299.137 36.5917 298.687 37.725C298.52 38.125 298.312 38.5333 298.062 38.95C297.812 39.35 297.503 39.6833 297.137 39.95C296.787 40.2167 296.362 40.35 295.862 40.35C295.562 40.35 295.278 40.2917 295.012 40.175C294.745 40.075 294.528 39.9167 294.362 39.7C294.195 39.4667 294.112 39.1833 294.112 38.85C294.112 38.4333 294.237 38.1083 294.487 37.875C294.737 37.6417 295.062 37.525 295.462 37.525C295.812 37.525 296.103 37.625 296.337 37.825C296.587 38.025 296.712 38.325 296.712 38.725C296.712 38.9917 296.637 39.2333 296.487 39.45C296.337 39.65 296.095 39.8167 295.762 39.95C295.795 39.9667 295.837 39.975 295.887 39.975C295.953 39.975 295.995 39.975 296.012 39.975C296.428 39.975 296.778 39.8417 297.062 39.575C297.362 39.2917 297.612 38.9667 297.812 38.6C298.028 38.2167 298.187 37.8833 298.287 37.6C298.553 36.9 298.778 36.1167 298.962 35.25C299.145 34.3833 299.295 33.4583 299.412 32.475C299.528 31.4917 299.62 30.4917 299.687 29.475C299.737 28.775 299.587 28.3 299.237 28.05C298.903 27.8 298.395 27.675 297.712 27.675V27.15C297.845 27.1667 298.053 27.1917 298.337 27.225C298.637 27.2417 298.995 27.25 299.412 27.25C299.745 27.25 300.087 27.25 300.437 27.25C300.803 27.25 301.17 27.25 301.537 27.25C301.853 27.25 302.145 27.25 302.412 27.25C302.678 27.25 302.962 27.25 303.262 27.25C303.562 27.25 303.895 27.25 304.262 27.25C304.645 27.25 305.028 27.2417 305.412 27.225C305.812 27.2083 306.178 27.1917 306.512 27.175C306.845 27.1583 307.103 27.15 307.287 27.15ZM315.248 27.15V27.675C314.565 27.675 314.073 27.8 313.773 28.05C313.49 28.3 313.348 28.775 313.348 29.475V37.675C313.348 38.3417 313.482 38.8083 313.748 39.075C314.032 39.3417 314.507 39.475 315.173 39.475C316.073 39.475 316.757 39.325 317.223 39.025C317.707 38.725 318.04 38.325 318.223 37.825C318.407 37.325 318.498 36.7917 318.498 36.225C318.498 35.075 318.173 34.2417 317.523 33.725C316.89 33.1917 315.832 32.925 314.348 32.925C313.932 32.925 313.515 32.925 313.098 32.925C312.682 32.925 312.265 32.925 311.848 32.925L311.798 32.5C312.482 32.5 313.157 32.5 313.823 32.5C314.49 32.5 315.157 32.5 315.823 32.5C317.64 32.5 318.932 32.8417 319.698 33.525C320.465 34.1917 320.848 35.0417 320.848 36.075C320.848 36.6917 320.673 37.3 320.323 37.9C319.99 38.5 319.423 39 318.623 39.4C317.84 39.8 316.782 40 315.448 40C314.982 40 314.465 39.9833 313.898 39.95C313.332 39.9167 312.748 39.9 312.148 39.9C311.632 39.9 311.082 39.9167 310.498 39.95C309.915 39.9667 309.482 39.9833 309.198 40V39.475C309.882 39.475 310.365 39.35 310.648 39.1C310.948 38.85 311.098 38.375 311.098 37.675V29.475C311.098 28.775 310.973 28.3 310.723 28.05C310.473 27.8 310.048 27.675 309.448 27.675V27.15C309.715 27.1667 310.107 27.1917 310.623 27.225C311.157 27.2417 311.698 27.25 312.248 27.25C312.798 27.25 313.365 27.2417 313.948 27.225C314.532 27.1917 314.965 27.1667 315.248 27.15ZM332.936 27.15C332.869 27.7333 332.819 28.2917 332.786 28.825C332.769 29.3583 332.761 29.7667 332.761 30.05C332.761 30.35 332.769 30.6417 332.786 30.925C332.802 31.1917 332.819 31.4167 332.836 31.6H332.261C332.177 30.6167 332.061 29.8417 331.911 29.275C331.777 28.6917 331.536 28.275 331.186 28.025C330.852 27.775 330.344 27.65 329.661 27.65C329.494 27.65 329.319 27.65 329.136 27.65C328.952 27.65 328.769 27.65 328.586 27.65C327.986 27.65 327.561 27.7833 327.311 28.05C327.061 28.3 326.936 28.775 326.936 29.475V37.425C326.936 38.2417 327.169 38.7917 327.636 39.075C328.119 39.3417 328.769 39.475 329.586 39.475V40C329.202 39.9833 328.661 39.9667 327.961 39.95C327.261 39.9167 326.519 39.9 325.736 39.9C325.169 39.9 324.602 39.9167 324.036 39.95C323.486 39.9667 323.069 39.9833 322.786 40V39.475C323.469 39.475 323.952 39.35 324.236 39.1C324.536 38.85 324.686 38.375 324.686 37.675V29.475C324.686 28.775 324.536 28.3 324.236 28.05C323.952 27.8 323.469 27.675 322.786 27.675V27.15C323.069 27.1667 323.502 27.1917 324.086 27.225C324.669 27.2417 325.236 27.25 325.786 27.25C326.336 27.25 326.894 27.2333 327.461 27.2C328.027 27.1667 328.552 27.15 329.036 27.15H332.936ZM338.457 40.175C337.773 40.175 337.182 40.05 336.682 39.8C336.182 39.5333 335.798 39.1667 335.532 38.7C335.282 38.2333 335.157 37.6917 335.157 37.075C335.157 36.3417 335.323 35.7417 335.657 35.275C336.007 34.8083 336.448 34.4333 336.982 34.15C337.515 33.8667 338.073 33.6333 338.657 33.45C339.257 33.25 339.823 33.0667 340.357 32.9C340.89 32.7167 341.323 32.5083 341.657 32.275C342.007 32.0417 342.182 31.7333 342.182 31.35V29.8C342.182 29.1 342.073 28.5667 341.857 28.2C341.657 27.8333 341.382 27.5917 341.032 27.475C340.682 27.3417 340.29 27.275 339.857 27.275C339.44 27.275 338.99 27.3333 338.507 27.45C338.04 27.5667 337.665 27.8083 337.382 28.175C337.698 28.2417 337.973 28.4083 338.207 28.675C338.44 28.9417 338.557 29.2833 338.557 29.7C338.557 30.1167 338.423 30.45 338.157 30.7C337.89 30.9333 337.548 31.05 337.132 31.05C336.648 31.05 336.29 30.9 336.057 30.6C335.84 30.2833 335.732 29.9333 335.732 29.55C335.732 29.1167 335.84 28.7667 336.057 28.5C336.273 28.2333 336.548 27.9833 336.882 27.75C337.265 27.4833 337.757 27.2583 338.357 27.075C338.973 26.875 339.665 26.775 340.432 26.775C341.115 26.775 341.698 26.8583 342.182 27.025C342.665 27.175 343.065 27.4 343.382 27.7C343.815 28.1 344.098 28.5917 344.232 29.175C344.365 29.7417 344.432 30.425 344.432 31.225V38.175C344.432 38.5917 344.49 38.8917 344.607 39.075C344.74 39.2583 344.94 39.35 345.207 39.35C345.39 39.35 345.565 39.3083 345.732 39.225C345.898 39.1417 346.098 39.0083 346.332 38.825L346.607 39.25C346.257 39.5167 345.923 39.7417 345.607 39.925C345.29 40.0917 344.865 40.175 344.332 40.175C343.848 40.175 343.448 40.0917 343.132 39.925C342.815 39.7583 342.573 39.5167 342.407 39.2C342.257 38.8667 342.182 38.45 342.182 37.95C341.732 38.7 341.19 39.2583 340.557 39.625C339.94 39.9917 339.24 40.175 338.457 40.175ZM339.357 39.175C339.907 39.175 340.415 39.0167 340.882 38.7C341.365 38.3833 341.798 37.9083 342.182 37.275V32.375C341.982 32.6583 341.69 32.9 341.307 33.1C340.923 33.2833 340.507 33.475 340.057 33.675C339.607 33.8583 339.173 34.0833 338.757 34.35C338.357 34.6 338.023 34.9333 337.757 35.35C337.49 35.7667 337.357 36.3083 337.357 36.975C337.357 37.6417 337.532 38.175 337.882 38.575C338.248 38.975 338.74 39.175 339.357 39.175ZM363.133 21.95C364.233 21.95 365.133 22.1167 365.833 22.45C366.55 22.7667 367.183 23.1417 367.733 23.575C368.067 23.825 368.317 23.8583 368.483 23.675C368.667 23.475 368.792 23.0167 368.858 22.3H369.433C369.4 22.9167 369.375 23.6667 369.358 24.55C369.342 25.4333 369.333 26.6 369.333 28.05H368.758C368.642 27.3333 368.533 26.7667 368.433 26.35C368.333 25.9167 368.208 25.55 368.058 25.25C367.925 24.95 367.742 24.65 367.508 24.35C366.992 23.6667 366.342 23.175 365.558 22.875C364.775 22.5583 363.95 22.4 363.083 22.4C362.267 22.4 361.525 22.6083 360.858 23.025C360.208 23.425 359.642 24.0083 359.158 24.775C358.692 25.5417 358.325 26.4667 358.058 27.55C357.808 28.6333 357.683 29.85 357.683 31.2C357.683 32.6 357.825 33.8417 358.108 34.925C358.392 35.9917 358.783 36.8917 359.283 37.625C359.8 38.3583 360.4 38.9167 361.083 39.3C361.783 39.6667 362.533 39.85 363.333 39.85C364.083 39.85 364.867 39.7 365.683 39.4C366.5 39.1 367.142 38.6167 367.608 37.95C367.975 37.4667 368.225 36.9417 368.358 36.375C368.508 35.8083 368.642 35.0167 368.758 34H369.333C369.333 35.5167 369.342 36.7417 369.358 37.675C369.375 38.5917 369.4 39.3667 369.433 40H368.858C368.792 39.2833 368.675 38.8333 368.508 38.65C368.358 38.4667 368.1 38.4917 367.733 38.725C367.117 39.1583 366.458 39.5417 365.758 39.875C365.075 40.1917 364.192 40.35 363.108 40.35C361.525 40.35 360.133 39.9917 358.933 39.275C357.75 38.5583 356.825 37.525 356.158 36.175C355.508 34.825 355.183 33.2 355.183 31.3C355.183 29.4333 355.525 27.8 356.208 26.4C356.892 25 357.825 23.9083 359.008 23.125C360.208 22.3417 361.583 21.95 363.133 21.95ZM360.633 29.475C361.167 29.475 361.65 29.575 362.083 29.775C362.533 29.9583 362.958 30.175 363.358 30.425C363.758 30.675 364.167 30.9 364.583 31.1C365 31.2833 365.458 31.375 365.958 31.375C366.392 31.375 366.8 31.2667 367.183 31.05C367.567 30.8333 367.842 30.475 368.008 29.975L368.383 30.15C368.167 31.0167 367.742 31.6667 367.108 32.1C366.475 32.5167 365.767 32.725 364.983 32.725C364.417 32.725 363.908 32.6333 363.458 32.45C363.025 32.25 362.608 32.025 362.208 31.775C361.825 31.525 361.425 31.3083 361.008 31.125C360.592 30.925 360.125 30.825 359.608 30.825C359.192 30.825 358.8 30.925 358.433 31.125C358.083 31.325 357.8 31.675 357.583 32.175L357.408 32.05C357.625 31.1833 358.025 30.5417 358.608 30.125C359.208 29.6917 359.883 29.475 360.633 29.475ZM378.594 27.15C379.827 27.15 380.794 27.275 381.494 27.525C382.21 27.775 382.719 28.1333 383.019 28.6C383.319 29.05 383.469 29.575 383.469 30.175C383.469 31.0417 383.01 31.8 382.094 32.45C381.194 33.1 379.827 33.425 377.994 33.425C377.994 33.425 377.952 33.4083 377.869 33.375C377.802 33.3417 377.727 33.3083 377.644 33.275C377.56 33.2417 377.519 33.225 377.519 33.225C378.519 33.2083 379.277 33.1 379.794 32.9C380.327 32.6833 380.685 32.3667 380.869 31.95C381.069 31.5333 381.169 31.0083 381.169 30.375C381.169 29.8583 381.094 29.4 380.944 29C380.81 28.5833 380.535 28.2583 380.119 28.025C379.719 27.7917 379.127 27.675 378.344 27.675C377.677 27.675 377.202 27.8083 376.919 28.075C376.652 28.325 376.519 28.7917 376.519 29.475V37.675C376.519 38.375 376.652 38.85 376.919 39.1C377.202 39.35 377.702 39.475 378.419 39.475C379.352 39.475 380.069 39.3333 380.569 39.05C381.085 38.7667 381.435 38.3917 381.619 37.925C381.819 37.4583 381.919 36.95 381.919 36.4C381.919 35.3333 381.619 34.6083 381.019 34.225C380.435 33.8417 379.685 33.65 378.769 33.65H374.969C374.969 33.65 374.969 33.5833 374.969 33.45C374.969 33.3 374.969 33.225 374.969 33.225H378.544L378.769 33.275C380.102 33.275 381.169 33.4 381.969 33.65C382.785 33.8833 383.369 34.2333 383.719 34.7C384.085 35.15 384.269 35.7083 384.269 36.375C384.269 37.0417 384.085 37.65 383.719 38.2C383.369 38.75 382.785 39.1917 381.969 39.525C381.152 39.8417 380.052 40 378.669 40C378.152 40 377.619 39.9833 377.069 39.95C376.519 39.9167 375.935 39.9 375.319 39.9C374.802 39.9 374.252 39.9167 373.669 39.95C373.085 39.9667 372.652 39.9833 372.369 40V39.475C373.052 39.475 373.535 39.35 373.819 39.1C374.119 38.85 374.269 38.375 374.269 37.675V29.475C374.269 28.775 374.119 28.3 373.819 28.05C373.535 27.8 373.052 27.675 372.369 27.675V27.15C372.652 27.1667 373.085 27.1917 373.669 27.225C374.252 27.2417 374.802 27.25 375.319 27.25C375.919 27.25 376.502 27.2333 377.069 27.2C377.635 27.1667 378.144 27.15 378.594 27.15ZM396.666 27.15C396.599 27.7333 396.549 28.2917 396.516 28.825C396.499 29.3583 396.491 29.7667 396.491 30.05C396.491 30.35 396.499 30.6417 396.516 30.925C396.533 31.1917 396.549 31.4167 396.566 31.6H395.991C395.908 30.6167 395.791 29.8417 395.641 29.275C395.508 28.6917 395.266 28.275 394.916 28.025C394.583 27.775 394.074 27.65 393.391 27.65C393.224 27.65 393.049 27.65 392.866 27.65C392.683 27.65 392.499 27.65 392.316 27.65C391.716 27.65 391.291 27.7833 391.041 28.05C390.791 28.3 390.666 28.775 390.666 29.475V37.425C390.666 38.2417 390.899 38.7917 391.366 39.075C391.849 39.3417 392.499 39.475 393.316 39.475V40C392.933 39.9833 392.391 39.9667 391.691 39.95C390.991 39.9167 390.249 39.9 389.466 39.9C388.899 39.9 388.333 39.9167 387.766 39.95C387.216 39.9667 386.799 39.9833 386.516 40V39.475C387.199 39.475 387.683 39.35 387.966 39.1C388.266 38.85 388.416 38.375 388.416 37.675V29.475C388.416 28.775 388.266 28.3 387.966 28.05C387.683 27.8 387.199 27.675 386.516 27.675V27.15C386.799 27.1667 387.233 27.1917 387.816 27.225C388.399 27.2417 388.966 27.25 389.516 27.25C390.066 27.25 390.624 27.2333 391.191 27.2C391.758 27.1667 392.283 27.15 392.766 27.15H396.666ZM404.712 26.775C406.179 26.775 407.32 27.225 408.137 28.125C408.97 29.0083 409.387 30.3917 409.387 32.275H400.562L400.537 31.8H406.987C407.02 30.9833 406.954 30.2333 406.787 29.55C406.62 28.85 406.354 28.2917 405.987 27.875C405.637 27.4583 405.179 27.25 404.612 27.25C403.845 27.25 403.162 27.6333 402.562 28.4C401.979 29.1667 401.629 30.3833 401.512 32.05L401.587 32.15C401.554 32.4 401.529 32.675 401.512 32.975C401.495 33.275 401.487 33.575 401.487 33.875C401.487 35.0083 401.67 35.9833 402.037 36.8C402.404 37.6167 402.879 38.2417 403.462 38.675C404.062 39.0917 404.679 39.3 405.312 39.3C405.812 39.3 406.287 39.225 406.737 39.075C407.187 38.9083 407.604 38.6417 407.987 38.275C408.37 37.9083 408.704 37.4167 408.987 36.8L409.487 37C409.304 37.55 409.004 38.0833 408.587 38.6C408.17 39.1167 407.645 39.5417 407.012 39.875C406.379 40.1917 405.645 40.35 404.812 40.35C403.612 40.35 402.579 40.075 401.712 39.525C400.862 38.975 400.204 38.2167 399.737 37.25C399.287 36.2667 399.062 35.1417 399.062 33.875C399.062 32.4083 399.295 31.15 399.762 30.1C400.229 29.0333 400.887 28.2167 401.737 27.65C402.587 27.0667 403.579 26.775 404.712 26.775ZM425.609 27.15V27.675C424.925 27.675 424.434 27.8 424.134 28.05C423.85 28.3 423.709 28.775 423.709 29.475V37.675C423.709 38.375 423.85 38.85 424.134 39.1C424.434 39.35 424.925 39.475 425.609 39.475V40C425.325 39.9833 424.892 39.9667 424.309 39.95C423.725 39.9167 423.159 39.9 422.609 39.9C422.059 39.9 421.517 39.9167 420.984 39.95C420.467 39.9667 420.075 39.9833 419.809 40V39.475C420.409 39.475 420.834 39.35 421.084 39.1C421.334 38.85 421.459 38.375 421.459 37.675V29.475C421.459 28.775 421.334 28.3 421.084 28.05C420.834 27.8 420.409 27.675 419.809 27.675V27.15C420.075 27.1667 420.467 27.1917 420.984 27.225C421.517 27.2417 422.059 27.25 422.609 27.25C423.159 27.25 423.725 27.2417 424.309 27.225C424.892 27.1917 425.325 27.1667 425.609 27.15ZM417.584 27.15V27.675C416.984 27.675 416.559 27.8 416.309 28.05C416.059 28.3 415.934 28.775 415.934 29.475V37.675C415.934 38.375 416.059 38.85 416.309 39.1C416.559 39.35 416.984 39.475 417.584 39.475V40C417.317 39.9833 416.917 39.9667 416.384 39.95C415.867 39.9167 415.334 39.9 414.784 39.9C414.234 39.9 413.667 39.9167 413.084 39.95C412.5 39.9667 412.067 39.9833 411.784 40V39.475C412.467 39.475 412.95 39.35 413.234 39.1C413.534 38.85 413.684 38.375 413.684 37.675V29.475C413.684 28.775 413.534 28.3 413.234 28.05C412.95 27.8 412.467 27.675 411.784 27.675V27.15C412.067 27.1667 412.5 27.1917 413.084 27.225C413.667 27.2417 414.234 27.25 414.784 27.25C415.334 27.25 415.867 27.2417 416.384 27.225C416.917 27.1917 417.317 27.1667 417.584 27.15ZM422.159 33.125V33.625H415.109V33.125H422.159ZM430.367 20.875C430.8 20.875 431.175 21.0333 431.492 21.35C431.808 21.6667 431.967 22.0417 431.967 22.475C431.967 22.9083 431.808 23.2833 431.492 23.6C431.175 23.9167 430.8 24.075 430.367 24.075C429.933 24.075 429.558 23.9167 429.242 23.6C428.925 23.2833 428.767 22.9083 428.767 22.475C428.767 22.0417 428.925 21.6667 429.242 21.35C429.558 21.0333 429.933 20.875 430.367 20.875ZM431.717 26.85V37.675C431.717 38.375 431.858 38.85 432.142 39.1C432.442 39.35 432.933 39.475 433.617 39.475V40C433.333 39.9833 432.9 39.9667 432.317 39.95C431.75 39.9167 431.175 39.9 430.592 39.9C430.025 39.9 429.45 39.9167 428.867 39.95C428.283 39.9667 427.85 39.9833 427.567 40V39.475C428.25 39.475 428.733 39.35 429.017 39.1C429.317 38.85 429.467 38.375 429.467 37.675V29.85C429.467 29.1 429.333 28.55 429.067 28.2C428.8 27.8333 428.3 27.65 427.567 27.65V27.125C428.1 27.175 428.617 27.2 429.117 27.2C429.6 27.2 430.058 27.175 430.492 27.125C430.942 27.0583 431.35 26.9667 431.717 26.85ZM441.616 27.15C442.849 27.15 443.816 27.275 444.516 27.525C445.233 27.775 445.741 28.1333 446.041 28.6C446.341 29.05 446.491 29.575 446.491 30.175C446.491 31.0417 446.033 31.8 445.116 32.45C444.216 33.1 442.849 33.425 441.016 33.425C441.016 33.425 440.974 33.4083 440.891 33.375C440.824 33.3417 440.749 33.3083 440.666 33.275C440.583 33.2417 440.541 33.225 440.541 33.225C441.541 33.2083 442.299 33.1 442.816 32.9C443.349 32.6833 443.708 32.3667 443.891 31.95C444.091 31.5333 444.191 31.0083 444.191 30.375C444.191 29.8583 444.116 29.4 443.966 29C443.833 28.5833 443.558 28.2583 443.141 28.025C442.741 27.7917 442.149 27.675 441.366 27.675C440.699 27.675 440.224 27.8083 439.941 28.075C439.674 28.325 439.541 28.7917 439.541 29.475V37.675C439.541 38.375 439.674 38.85 439.941 39.1C440.224 39.35 440.724 39.475 441.441 39.475C442.374 39.475 443.091 39.3333 443.591 39.05C444.108 38.7667 444.458 38.3917 444.641 37.925C444.841 37.4583 444.941 36.95 444.941 36.4C444.941 35.3333 444.641 34.6083 444.041 34.225C443.458 33.8417 442.708 33.65 441.791 33.65H437.991C437.991 33.65 437.991 33.5833 437.991 33.45C437.991 33.3 437.991 33.225 437.991 33.225H441.566L441.791 33.275C443.124 33.275 444.191 33.4 444.991 33.65C445.808 33.8833 446.391 34.2333 446.741 34.7C447.108 35.15 447.291 35.7083 447.291 36.375C447.291 37.0417 447.108 37.65 446.741 38.2C446.391 38.75 445.808 39.1917 444.991 39.525C444.174 39.8417 443.074 40 441.691 40C441.174 40 440.641 39.9833 440.091 39.95C439.541 39.9167 438.958 39.9 438.341 39.9C437.824 39.9 437.274 39.9167 436.691 39.95C436.108 39.9667 435.674 39.9833 435.391 40V39.475C436.074 39.475 436.558 39.35 436.841 39.1C437.141 38.85 437.291 38.375 437.291 37.675V29.475C437.291 28.775 437.141 28.3 436.841 28.05C436.558 27.8 436.074 27.675 435.391 27.675V27.15C435.674 27.1667 436.108 27.1917 436.691 27.225C437.274 27.2417 437.824 27.25 438.341 27.25C438.941 27.25 439.524 27.2333 440.091 27.2C440.658 27.1667 441.166 27.15 441.616 27.15ZM463.363 27.15V27.675C462.68 27.675 462.188 27.8 461.888 28.05C461.605 28.3 461.463 28.775 461.463 29.475V37.675C461.463 38.375 461.605 38.85 461.888 39.1C462.188 39.35 462.68 39.475 463.363 39.475V40C463.08 39.9833 462.647 39.9667 462.063 39.95C461.48 39.9167 460.913 39.9 460.363 39.9C459.813 39.9 459.272 39.9167 458.738 39.95C458.222 39.9667 457.83 39.9833 457.563 40V39.475C458.163 39.475 458.588 39.35 458.838 39.1C459.088 38.85 459.213 38.375 459.213 37.675V29.475C459.213 28.775 459.088 28.3 458.838 28.05C458.588 27.8 458.163 27.675 457.563 27.675V27.15C457.83 27.1667 458.222 27.1917 458.738 27.225C459.272 27.2417 459.813 27.25 460.363 27.25C460.913 27.25 461.48 27.2417 462.063 27.225C462.647 27.1917 463.08 27.1667 463.363 27.15ZM455.338 27.15V27.675C454.738 27.675 454.313 27.8 454.063 28.05C453.813 28.3 453.688 28.775 453.688 29.475V37.675C453.688 38.375 453.813 38.85 454.063 39.1C454.313 39.35 454.738 39.475 455.338 39.475V40C455.072 39.9833 454.672 39.9667 454.138 39.95C453.622 39.9167 453.088 39.9 452.538 39.9C451.988 39.9 451.422 39.9167 450.838 39.95C450.255 39.9667 449.822 39.9833 449.538 40V39.475C450.222 39.475 450.705 39.35 450.988 39.1C451.288 38.85 451.438 38.375 451.438 37.675V29.475C451.438 28.775 451.288 28.3 450.988 28.05C450.705 27.8 450.222 27.675 449.538 27.675V27.15C449.822 27.1667 450.255 27.1917 450.838 27.225C451.422 27.2417 451.988 27.25 452.538 27.25C453.088 27.25 453.622 27.2417 454.138 27.225C454.672 27.1917 455.072 27.1667 455.338 27.15ZM459.913 33.125V33.625H452.863V33.125H459.913ZM468.872 40.175C468.188 40.175 467.597 40.05 467.097 39.8C466.597 39.5333 466.213 39.1667 465.947 38.7C465.697 38.2333 465.572 37.6917 465.572 37.075C465.572 36.3417 465.738 35.7417 466.072 35.275C466.422 34.8083 466.863 34.4333 467.397 34.15C467.93 33.8667 468.488 33.6333 469.072 33.45C469.672 33.25 470.238 33.0667 470.772 32.9C471.305 32.7167 471.738 32.5083 472.072 32.275C472.422 32.0417 472.597 31.7333 472.597 31.35V29.8C472.597 29.1 472.488 28.5667 472.272 28.2C472.072 27.8333 471.797 27.5917 471.447 27.475C471.097 27.3417 470.705 27.275 470.272 27.275C469.855 27.275 469.405 27.3333 468.922 27.45C468.455 27.5667 468.08 27.8083 467.797 28.175C468.113 28.2417 468.388 28.4083 468.622 28.675C468.855 28.9417 468.972 29.2833 468.972 29.7C468.972 30.1167 468.838 30.45 468.572 30.7C468.305 30.9333 467.963 31.05 467.547 31.05C467.063 31.05 466.705 30.9 466.472 30.6C466.255 30.2833 466.147 29.9333 466.147 29.55C466.147 29.1167 466.255 28.7667 466.472 28.5C466.688 28.2333 466.963 27.9833 467.297 27.75C467.68 27.4833 468.172 27.2583 468.772 27.075C469.388 26.875 470.08 26.775 470.847 26.775C471.53 26.775 472.113 26.8583 472.597 27.025C473.08 27.175 473.48 27.4 473.797 27.7C474.23 28.1 474.513 28.5917 474.647 29.175C474.78 29.7417 474.847 30.425 474.847 31.225V38.175C474.847 38.5917 474.905 38.8917 475.022 39.075C475.155 39.2583 475.355 39.35 475.622 39.35C475.805 39.35 475.98 39.3083 476.147 39.225C476.313 39.1417 476.513 39.0083 476.747 38.825L477.022 39.25C476.672 39.5167 476.338 39.7417 476.022 39.925C475.705 40.0917 475.28 40.175 474.747 40.175C474.263 40.175 473.863 40.0917 473.547 39.925C473.23 39.7583 472.988 39.5167 472.822 39.2C472.672 38.8667 472.597 38.45 472.597 37.95C472.147 38.7 471.605 39.2583 470.972 39.625C470.355 39.9917 469.655 40.175 468.872 40.175ZM469.772 39.175C470.322 39.175 470.83 39.0167 471.297 38.7C471.78 38.3833 472.213 37.9083 472.597 37.275V32.375C472.397 32.6583 472.105 32.9 471.722 33.1C471.338 33.2833 470.922 33.475 470.472 33.675C470.022 33.8583 469.588 34.0833 469.172 34.35C468.772 34.6 468.438 34.9333 468.172 35.35C467.905 35.7667 467.772 36.3083 467.772 36.975C467.772 37.6417 467.947 38.175 468.297 38.575C468.663 38.975 469.155 39.175 469.772 39.175Z" fill="white"/>
<circle cx="35" cy="32" r="5" fill="white"/>
<defs>
<radialGradient id="paint0_radial_121_468" cx="0" cy="0" r="1" gradientUnits="userSpaceOnUse" gradientTransform="translate(254.5 30) rotate(-7.92317) scale(285.027 173.498)">
<stop stop-color="#65ABB5"/>
<stop offset="1" stop-color="#8CC4B9"/>
</radialGradient>
<linearGradient id="paint1_linear_121_468" x1="-3.42522e-08" y1="30" x2="476" y2="69" gradientUnits="userSpaceOnUse">
<stop stop-color="#EBF5F5"/>
<stop offset="1" stop-color="#EBF5F5" stop-opacity="0"/>
</linearGradient>
</defs>
</svg>
