<svg width="190" height="190" viewBox="0 0 190 190" fill="none" xmlns="http://www.w3.org/2000/svg">
<path d="M155.134 95.1569L167.269 95.7661L167.011 100.905L165.378 100.823L165.525 97.8864L155.023 97.3591L155.134 95.1569Z" fill="#9A9A9A"/>
<path d="M154.131 104.397C154.273 103.549 154.543 102.9 154.943 102.45C155.343 101.999 155.856 101.715 156.484 101.597C157.113 101.479 157.831 101.487 158.64 101.622L163.123 102.371C163.931 102.506 164.604 102.73 165.14 103.043C165.685 103.357 166.069 103.791 166.291 104.345C166.512 104.899 166.552 105.601 166.411 106.449C166.266 107.317 165.999 107.972 165.611 108.414C165.221 108.866 164.717 109.152 164.099 109.271C163.489 109.403 162.78 109.401 161.971 109.266L157.473 108.514C156.674 108.381 155.998 108.151 155.444 107.826C154.898 107.511 154.505 107.076 154.263 106.518C154.03 105.972 153.986 105.265 154.131 104.397ZM155.744 104.667C155.683 105.032 155.717 105.311 155.847 105.505C155.975 105.709 156.172 105.864 156.438 105.969C156.705 106.074 157.001 106.154 157.326 106.209L162.845 107.131C163.18 107.187 163.486 107.207 163.762 107.193C164.038 107.178 164.265 107.094 164.443 106.941C164.629 106.8 164.752 106.547 164.813 106.182C164.871 105.837 164.835 105.562 164.707 105.358C164.589 105.156 164.401 105.003 164.145 104.899C163.889 104.796 163.593 104.716 163.257 104.66L157.739 103.738C157.413 103.684 157.108 103.658 156.824 103.661C156.538 103.674 156.301 103.756 156.114 103.907C155.926 104.059 155.803 104.312 155.744 104.667Z" fill="#9A9A9A"/>
<path d="M153.41 109.258L165.009 112.878L163.945 116.285C163.728 116.982 163.423 117.505 163.031 117.854C162.637 118.213 162.16 118.415 161.601 118.461C161.048 118.519 160.424 118.439 159.727 118.222C158.973 117.986 158.402 117.667 158.015 117.263C157.637 116.862 157.416 116.395 157.352 115.862C157.285 115.338 157.35 114.761 157.546 114.131L157.904 112.986L152.749 111.377L153.41 109.258ZM159.393 113.451L159.143 114.253C159.024 114.634 158.984 114.947 159.023 115.189C159.069 115.445 159.2 115.648 159.415 115.799C159.636 115.962 159.952 116.108 160.362 116.236C160.782 116.367 161.132 116.439 161.41 116.453C161.696 116.479 161.933 116.406 162.123 116.235C162.309 116.073 162.471 115.773 162.608 115.334L162.858 114.532L159.393 113.451Z" fill="#9A9A9A"/>
<path d="M150.354 118.152L159.944 122.463L160.737 120.699L162.229 121.369L159.744 126.896L158.252 126.226L159.034 124.488L149.443 120.176L150.354 118.152Z" fill="#9A9A9A"/>
<path d="M148.638 122.139L157.802 130.479L156.582 132.511L144.915 128.337L145.973 126.576L148.625 127.609L149.714 125.795L147.565 123.927L148.638 122.139ZM150.807 126.714L149.957 128.129L154.754 130.048L150.807 126.714Z" fill="#9A9A9A"/>
<path d="M144.097 129.563L153.601 137.133L152.47 138.553L146.475 133.777L150.395 141.157L149.47 142.319L139.966 134.749L141.107 133.317L147.196 138.168L143.191 130.701L144.097 129.563ZM152.174 140.465C152.623 139.902 153.115 139.597 153.65 139.551C154.187 139.518 154.718 139.711 155.242 140.128L154.513 141.043C154.232 140.819 153.97 140.706 153.728 140.705C153.486 140.704 153.249 140.848 153.019 141.138C152.794 141.419 152.71 141.678 152.765 141.914C152.828 142.156 152.996 142.386 153.27 142.604L152.541 143.519C152.017 143.101 151.714 142.623 151.632 142.085C151.551 141.56 151.732 141.02 152.174 140.465Z" fill="#9A9A9A"/>
<path d="M128.691 144.651L135.138 154.95L130.777 157.68L129.91 156.294L132.402 154.734L126.822 145.821L128.691 144.651Z" fill="#9A9A9A"/>
<path d="M120.41 149.161C121.188 148.794 121.875 148.646 122.473 148.718C123.071 148.79 123.598 149.05 124.053 149.498C124.508 149.947 124.91 150.542 125.26 151.284L127.201 155.393C127.551 156.135 127.75 156.815 127.799 157.433C127.852 158.061 127.714 158.624 127.385 159.122C127.057 159.62 126.503 160.052 125.726 160.419C124.93 160.795 124.24 160.95 123.655 160.883C123.062 160.82 122.54 160.569 122.089 160.13C121.633 159.703 121.23 159.119 120.88 158.378L118.933 154.254C118.587 153.522 118.39 152.835 118.342 152.195C118.289 151.567 118.423 150.995 118.743 150.479C119.059 149.976 119.614 149.537 120.41 149.161ZM121.108 150.64C120.774 150.798 120.564 150.985 120.478 151.203C120.384 151.424 120.369 151.674 120.434 151.953C120.5 152.232 120.603 152.521 120.744 152.819L123.132 157.878C123.278 158.186 123.435 158.449 123.605 158.667C123.774 158.886 123.972 159.025 124.199 159.083C124.421 159.155 124.699 159.113 125.034 158.955C125.35 158.805 125.556 158.62 125.65 158.398C125.749 158.186 125.768 157.944 125.707 157.675C125.646 157.405 125.543 157.116 125.398 156.809L123.009 151.749C122.868 151.451 122.715 151.186 122.55 150.954C122.377 150.727 122.174 150.579 121.943 150.511C121.712 150.443 121.434 150.486 121.108 150.64Z" fill="#9A9A9A"/>
<path d="M116.128 151.275L119.792 162.859L116.388 163.936C115.692 164.156 115.088 164.205 114.578 164.083C114.058 163.964 113.62 163.689 113.262 163.256C112.899 162.836 112.607 162.278 112.387 161.582C112.149 160.829 112.085 160.178 112.194 159.629C112.307 159.09 112.564 158.642 112.965 158.285C113.356 157.93 113.866 157.653 114.496 157.454L115.64 157.093L114.012 151.944L116.128 151.275ZM116.11 158.58L115.309 158.833C114.928 158.954 114.649 159.1 114.472 159.271C114.289 159.455 114.197 159.678 114.196 159.94C114.189 160.215 114.25 160.558 114.38 160.968C114.512 161.387 114.653 161.715 114.801 161.952C114.942 162.201 115.138 162.354 115.387 162.411C115.626 162.472 115.965 162.433 116.404 162.294L117.205 162.041L116.11 158.58Z" fill="#9A9A9A"/>
<path d="M107.095 153.832L109.065 164.161L110.966 163.799L111.272 165.405L105.319 166.54L105.013 164.934L106.884 164.577L104.914 154.248L107.095 153.832Z" fill="#9A9A9A"/>
<path d="M102.828 154.691L101.247 166.98L98.883 167.145L95.6158 155.193L97.6659 155.05L98.3393 157.815L100.449 157.668L100.748 154.836L102.828 154.691ZM100.323 159.091L98.6766 159.205L99.8534 164.236L100.323 159.091Z" fill="#9A9A9A"/>
<path d="M93.8712 155.202L93.0749 167.325L91.2638 167.207L91.7661 159.558L87.9409 166.988L86.4591 166.891L87.2554 154.767L89.0815 154.887L88.5713 162.655L92.4193 155.106L93.8712 155.202ZM89.5245 168.054C90.2429 168.102 90.774 168.332 91.1176 168.745C91.4506 169.168 91.5952 169.714 91.5512 170.382L90.3838 170.306C90.4074 169.946 90.3505 169.667 90.2133 169.468C90.0761 169.268 89.8229 169.156 89.4537 169.132C89.0944 169.108 88.8338 169.187 88.6716 169.366C88.5089 169.556 88.416 169.826 88.3931 170.175L87.2256 170.098C87.2695 169.43 87.4891 168.908 87.8846 168.533C88.2694 168.167 88.816 168.008 89.5245 168.054Z" fill="#9A9A9A"/>
<path d="M68.6593 149.348L63.028 160.114L58.469 157.729L59.2268 156.281L61.8319 157.643L66.7055 148.326L68.6593 149.348Z" fill="#9A9A9A"/>
<path d="M60.5963 144.476C61.3045 144.964 61.7778 145.485 62.0162 146.038C62.2546 146.59 62.2942 147.176 62.135 147.795C61.9757 148.414 61.6635 149.061 61.1982 149.736L58.6195 153.479C58.1543 154.154 57.6666 154.668 57.1563 155.021C56.6404 155.382 56.0845 155.546 55.4887 155.511C54.8928 155.477 54.2408 155.216 53.5326 154.728C52.808 154.229 52.3277 153.71 52.0919 153.171C51.8478 152.626 51.8026 152.049 51.9561 151.438C52.0958 150.83 52.3983 150.188 52.8635 149.513L55.4507 145.758C55.9103 145.091 56.405 144.576 56.9348 144.212C57.4507 143.851 58.0122 143.68 58.6194 143.697C59.2127 143.717 59.8717 143.977 60.5963 144.476ZM59.6687 145.823C59.364 145.613 59.0963 145.525 58.8655 145.561C58.6265 145.59 58.4029 145.703 58.1946 145.9C57.9864 146.096 57.7886 146.331 57.6014 146.602L54.427 151.21C54.2341 151.49 54.0857 151.758 53.9819 152.014C53.8782 152.271 53.8578 152.512 53.9209 152.737C53.9702 152.965 54.1471 153.185 54.4518 153.394C54.74 153.593 55.0036 153.677 55.2426 153.648C55.4759 153.626 55.6939 153.522 55.8965 153.333C56.0991 153.145 56.2968 152.911 56.4897 152.631L59.6642 148.024C59.8514 147.752 60.0038 147.487 60.1215 147.228C60.231 146.963 60.257 146.714 60.1995 146.48C60.1421 146.246 59.9652 146.027 59.6687 145.823Z" fill="#9A9A9A"/>
<path d="M56.6244 141.856L48.4811 150.873L45.8316 148.48C45.2898 147.991 44.9425 147.495 44.7894 146.993C44.629 146.485 44.6451 145.967 44.8378 145.44C45.0164 144.914 45.3503 144.38 45.8395 143.839C46.369 143.252 46.8982 142.868 47.427 142.685C47.9491 142.51 48.4656 142.505 48.9768 142.67C49.4804 142.828 49.9772 143.129 50.467 143.571L51.3576 144.375L54.9769 140.368L56.6244 141.856ZM50.312 145.533L49.6886 144.97C49.3918 144.702 49.1248 144.535 48.8878 144.469C48.6367 144.404 48.3977 144.438 48.1708 144.57C47.9297 144.702 47.6651 144.928 47.3769 145.247C47.082 145.574 46.87 145.861 46.741 146.108C46.5979 146.356 46.5644 146.602 46.6405 146.846C46.7092 147.083 46.9143 147.356 47.2557 147.664L47.8791 148.227L50.312 145.533Z" fill="#9A9A9A"/>
<path d="M49.829 135.349L41.8984 142.254L43.169 143.713L41.9359 144.787L37.9567 140.216L39.1898 139.143L40.4407 140.579L48.3713 133.675L49.829 135.349Z" fill="#9A9A9A"/>
<path d="M46.937 132.133L35.5353 136.984L34.1978 135.027L42.8567 126.164L44.0165 127.861L41.9717 129.84L43.1653 131.586L45.7603 130.412L46.937 132.133ZM41.8743 132.196L40.9432 130.834L37.1985 134.393L41.8743 132.196Z" fill="#9A9A9A"/>
<path d="M42.0958 124.928L31.2473 130.399L30.43 128.779L37.2739 125.327L28.9305 125.805L28.2618 124.479L39.1102 119.008L39.9343 120.642L32.9833 124.148L41.4406 123.629L42.0958 124.928ZM28.8164 127.711C29.1406 128.354 29.2119 128.928 29.0303 129.434C28.8352 129.936 28.4386 130.337 27.8404 130.639L27.3135 129.594C27.6349 129.432 27.8467 129.241 27.9488 129.022C28.0509 128.802 28.0187 128.527 27.852 128.197C27.6899 127.876 27.4903 127.691 27.2531 127.642C27.007 127.599 26.7277 127.655 26.4152 127.813L25.8883 126.768C26.4865 126.467 27.0475 126.391 27.5713 126.541C28.0816 126.687 28.4966 127.077 28.8164 127.711Z" fill="#9A9A9A"/>
<path d="M34.2886 100.251L22.1539 100.861L21.8959 95.7222L23.5289 95.6402L23.6763 98.5765L34.1781 98.0492L34.2886 100.251Z" fill="#9A9A9A"/>
<path d="M34.3751 90.6584C34.3154 91.5163 34.1083 92.1885 33.7537 92.6751C33.3991 93.1617 32.9149 93.4939 32.301 93.6717C31.6872 93.8495 30.9713 93.91 30.1533 93.8531L25.6192 93.5378C24.8012 93.4809 24.1105 93.3226 23.5472 93.0629C22.9739 92.8025 22.5503 92.4071 22.2764 91.8768C22.0025 91.3465 21.8955 90.6524 21.9551 89.7945C22.0162 88.9166 22.2187 88.2391 22.5626 87.7618C22.9073 87.2745 23.3815 86.9416 23.9854 86.7631C24.5799 86.5739 25.2862 86.5077 26.1042 86.5646L30.6532 86.881C31.4613 86.9372 32.1566 87.1009 32.7392 87.3719C33.3125 87.6323 33.7461 88.0284 34.0399 88.56C34.3244 89.081 34.4362 89.7805 34.3751 90.6584ZM32.7441 90.5449C32.7697 90.1758 32.7087 89.9009 32.5608 89.7202C32.4137 89.5295 32.2026 89.3946 31.9274 89.3153C31.6522 89.236 31.3501 89.1849 31.0209 89.162L25.4393 88.7738C25.1002 88.7502 24.7938 88.759 24.5203 88.8001C24.2468 88.8412 24.029 88.9464 23.8668 89.1155C23.6954 89.274 23.5969 89.5378 23.5712 89.9069C23.5469 90.2561 23.6084 90.526 23.7555 90.7167C23.8926 90.9066 24.0938 91.0409 24.359 91.1195C24.6242 91.1981 24.9264 91.2492 25.2655 91.2728L30.847 91.661C31.1763 91.6839 31.4823 91.6801 31.765 91.6496C32.0485 91.6092 32.2763 91.5048 32.4484 91.3363C32.6205 91.1678 32.7191 90.904 32.7441 90.5449Z" fill="#9A9A9A"/>
<path d="M34.6054 85.8381L22.7067 83.3797L23.4291 79.8835C23.5768 79.1686 23.8284 78.6181 24.1838 78.2321C24.5413 77.8362 24.996 77.5881 25.5477 77.4876C26.0917 77.3754 26.7211 77.3931 27.436 77.5408C28.2096 77.7007 28.8091 77.9624 29.2343 78.3259C29.6498 78.6875 29.9156 79.1304 30.0319 79.6548C30.1502 80.1694 30.1426 80.7499 30.0091 81.3962L29.7663 82.5714L35.0546 83.6641L34.6054 85.8381ZM28.2385 82.2557L28.4085 81.4331C28.4895 81.0414 28.4983 80.7267 28.4351 80.489C28.3641 80.2395 28.2143 80.0502 27.9857 79.9213C27.7493 79.7805 27.4205 79.6667 26.9994 79.5797C26.5685 79.4906 26.2138 79.4531 25.9352 79.467C25.6488 79.4691 25.4198 79.5647 25.2479 79.7539C25.0781 79.9332 24.9467 80.2481 24.8536 80.6986L24.6836 81.5212L28.2385 82.2557Z" fill="#9A9A9A"/>
<path d="M36.7094 76.8639L26.7327 73.5426L26.1215 75.3786L24.5702 74.8622L26.4843 69.1124L28.0356 69.6288L27.4339 71.4363L37.4106 74.7575L36.7094 76.8639Z" fill="#9A9A9A"/>
<path d="M38.0096 72.6982L28.0602 65.3133L29.0721 63.1701L41.0965 66.1603L40.2191 68.0186L37.4777 67.255L36.5747 69.1676L38.8998 70.8128L38.0096 72.6982ZM35.3957 68.3621L36.1002 66.87L31.1362 65.4386L35.3957 68.3621Z" fill="#9A9A9A"/>
<path d="M41.9151 64.6097L31.7366 57.9749L32.7277 56.4544L39.149 60.64L34.5461 53.6647L35.357 52.4207L45.5356 59.0554L44.5363 60.5885L38.0145 56.3374L42.7097 63.3907L41.9151 64.6097ZM32.8409 54.5228C32.4477 55.126 31.9868 55.476 31.458 55.573C30.9263 55.6562 30.3798 55.5148 29.8185 55.149L30.4574 54.1688C30.759 54.3654 31.0304 54.4527 31.2714 54.4308C31.5125 54.4089 31.7341 54.243 31.9361 53.933C32.1327 53.6314 32.1924 53.3659 32.1151 53.1365C32.0295 52.9017 31.8401 52.6887 31.5468 52.4975L32.1857 51.5174C32.747 51.8832 33.0942 52.3304 33.2273 52.8588C33.3574 53.3733 33.2286 53.928 32.8409 54.5228Z" fill="#9A9A9A"/>
<path d="M59.2138 45.4555L52.5418 35.3014L56.8417 32.4761L57.7395 33.8425L55.2825 35.457L61.0566 44.2447L59.2138 45.4555Z" fill="#9A9A9A"/>
<path d="M67.2918 40.7884C66.5225 41.1728 65.8382 41.3359 65.239 41.2776C64.6397 41.2193 64.1076 40.971 63.6426 40.5326C63.1776 40.0942 62.7618 39.5083 62.3953 38.7747L60.3637 34.7091C59.9972 33.9755 59.7827 33.3002 59.7202 32.683C59.6533 32.0569 59.7787 31.4912 60.0963 30.9859C60.414 30.4807 60.9574 30.0358 61.7267 29.6514C62.5139 29.2581 63.2004 29.0883 63.7863 29.1421C64.3811 29.1914 64.9087 29.4308 65.3692 29.8603C65.8342 30.2763 66.25 30.8511 66.6165 31.5846L68.6548 35.6637C69.0169 36.3882 69.2291 37.0703 69.2916 37.7098C69.3585 38.3359 69.2376 38.9106 68.9289 39.4337C68.6247 39.9435 68.079 40.395 67.2918 40.7884ZM66.561 39.3258C66.8919 39.1604 67.0977 38.9682 67.1783 38.7491C67.2678 38.5255 67.2768 38.2751 67.2053 37.9978C67.1338 37.7205 67.0243 37.4342 66.8768 37.139L64.3759 32.1341C64.2239 31.83 64.0607 31.5705 63.8864 31.3558C63.712 31.1411 63.5108 31.0069 63.2827 30.9532C63.0591 30.886 62.7818 30.9352 62.4509 31.1006C62.1378 31.257 61.9365 31.447 61.847 31.6706C61.753 31.8852 61.7395 32.1267 61.8066 32.3951C61.8736 32.6634 61.9831 32.9497 62.135 33.2538L64.636 38.2588C64.7835 38.554 64.9422 38.8156 65.1121 39.0437C65.2909 39.2674 65.4966 39.4105 65.7291 39.4732C65.9616 39.5359 66.2389 39.4868 66.561 39.3258Z" fill="#9A9A9A"/>
<path d="M71.5389 38.5349L67.6145 27.0361L70.9932 25.883C71.684 25.6473 72.286 25.5845 72.7991 25.6946C73.3217 25.8016 73.7663 26.0672 74.133 26.4915C74.5059 26.9031 74.8103 27.4544 75.0461 28.1452C75.3012 28.8929 75.3802 29.5422 75.2829 30.0931C75.1824 30.6346 74.9358 31.0886 74.5432 31.4551C74.16 31.8183 73.656 32.1065 73.0314 32.3197L71.8957 32.7073L73.6399 37.8179L71.5389 38.5349ZM71.3919 31.2309L72.1868 30.9596C72.5654 30.8304 72.841 30.6782 73.0137 30.5031C73.1926 30.3152 73.2795 30.09 73.2745 29.8276C73.2757 29.5525 73.2069 29.2114 73.068 28.8045C72.9259 28.3881 72.7781 28.0634 72.6246 27.8305C72.4774 27.5849 72.2787 27.4361 72.0285 27.3841C71.7877 27.3289 71.4497 27.3756 71.0144 27.5242L70.2194 27.7955L71.3919 31.2309Z" fill="#9A9A9A"/>
<path d="M80.255 35.7988L78.0488 25.5178L76.1569 25.9238L75.8138 24.3252L81.7389 23.0537L82.082 24.6523L80.2194 25.052L82.4256 35.333L80.255 35.7988Z" fill="#9A9A9A"/>
<path d="M84.5054 34.7865L85.8021 22.4639L88.162 22.2449L91.7044 34.1183L89.6582 34.3082L88.921 31.5596L86.8151 31.7551L86.5814 34.5938L84.5054 34.7865ZM86.9088 30.3303L88.5518 30.1778L87.259 25.1759L86.9088 30.3303Z" fill="#9A9A9A"/>
<path d="M93.3964 34.0095L93.912 21.8704L95.7254 21.9474L95.4001 29.6055L99.0524 22.0888L100.536 22.1518L100.02 34.2908L98.1921 34.2132L98.5225 26.4352L94.8501 34.0712L93.3964 34.0095ZM97.4446 21.0596C96.7253 21.029 96.189 20.8111 95.8359 20.4057C95.4932 19.9908 95.3361 19.4487 95.3645 18.7793L96.5335 18.8289C96.5182 19.1886 96.5814 19.4665 96.7232 19.6627C96.865 19.8589 97.1208 19.9649 97.4904 19.9806C97.8501 19.9959 98.1089 19.9118 98.2668 19.7283C98.4252 19.5348 98.5118 19.2633 98.5267 18.9136L99.6956 18.9632C99.6672 19.6326 99.4596 20.1593 99.073 20.5432C98.6968 20.9176 98.154 21.0897 97.4446 21.0596Z" fill="#9A9A9A"/>
<path d="M118.949 39.1534L124.339 28.2647L128.95 30.5474L128.225 32.0126L125.59 30.7082L120.925 40.1317L118.949 39.1534Z" fill="#9A9A9A"/>
<path d="M127.081 43.768C126.36 43.2984 125.874 42.7903 125.621 42.2438C125.369 41.6972 125.314 41.1125 125.458 40.4897C125.601 39.8669 125.896 39.2121 126.344 38.5251L128.826 34.7176C129.274 34.0307 129.748 33.5043 130.249 33.1386C130.756 32.7644 131.307 32.5868 131.904 32.6056C132.5 32.6243 133.159 32.8686 133.879 33.3382C134.617 33.8187 135.11 34.3254 135.36 34.8581C135.618 35.3963 135.678 35.9726 135.54 36.587C135.416 37.1985 135.13 37.8477 134.682 38.5346L132.192 42.3547C131.75 43.0333 131.268 43.5611 130.748 43.9382C130.241 44.3123 129.684 44.4983 129.077 44.4963C128.483 44.4913 127.818 44.2486 127.081 43.768ZM127.974 42.3983C128.284 42.6004 128.553 42.6808 128.783 42.6396C129.021 42.6038 129.242 42.4851 129.445 42.2833C129.648 42.0815 129.84 41.8423 130.02 41.5659L133.076 36.8787C133.261 36.5939 133.403 36.322 133.5 36.063C133.597 35.8041 133.611 35.5626 133.542 35.3387C133.487 35.1118 133.305 34.8974 132.995 34.6953C132.702 34.5042 132.436 34.4265 132.198 34.4622C131.965 34.4896 131.75 34.6 131.552 34.7934C131.354 34.9869 131.163 35.226 130.977 35.5108L127.922 40.198C127.742 40.4744 127.596 40.7436 127.485 41.0055C127.382 41.2728 127.363 41.5226 127.426 41.755C127.49 41.9873 127.672 42.2017 127.974 42.3983Z" fill="#9A9A9A"/>
<path d="M131.362 46.4368L139.307 37.2442L142.008 39.5785C142.56 40.0559 142.918 40.5438 143.082 41.0423C143.254 41.5474 143.249 42.0653 143.068 42.596C142.901 43.1258 142.579 43.6668 142.101 44.2191C141.585 44.8168 141.064 45.2128 140.539 45.4069C140.021 45.5936 139.505 45.6099 138.99 45.4559C138.483 45.3085 137.98 45.019 137.481 44.5875L136.573 43.8028L133.042 47.8884L131.362 46.4368ZM137.593 42.6225L138.228 43.1718C138.531 43.4333 138.801 43.5944 139.04 43.6551C139.292 43.7147 139.531 43.676 139.755 43.5392C139.993 43.4013 140.252 43.1697 140.533 42.8444C140.821 42.5115 141.027 42.22 141.15 41.97C141.288 41.7189 141.316 41.4722 141.235 41.23C141.161 40.9944 140.95 40.7261 140.602 40.4253L139.966 39.8761L137.593 42.6225Z" fill="#9A9A9A"/>
<path d="M138.191 52.6527L145.943 45.5487L144.635 44.1221L145.841 43.0174L149.935 47.4852L148.73 48.5899L147.443 47.1854L139.69 54.2894L138.191 52.6527Z" fill="#9A9A9A"/>
<path d="M141.348 55.9992L152.641 50.8995L154.021 52.8262L145.558 61.8769L144.362 60.2063L146.363 58.1826L145.131 56.4632L142.562 57.6943L141.348 55.9992ZM146.408 55.8251L147.369 57.1665L151.035 53.5259L146.408 55.8251Z" fill="#9A9A9A"/>
<path d="M146.33 63.0451L157.054 57.3343L157.907 58.9364L151.142 62.5391L159.473 61.8756L160.171 63.1863L149.446 68.8971L148.586 67.2819L155.458 63.6227L147.014 64.3294L146.33 63.0451ZM159.544 59.968C159.206 59.3325 159.122 58.7598 159.292 58.2499C159.476 57.7441 159.864 57.3338 160.455 57.0189L161.005 58.0516C160.687 58.2208 160.48 58.4162 160.383 58.6379C160.285 58.8596 160.324 59.1338 160.498 59.4604C160.667 59.7781 160.871 59.9586 161.109 60.0016C161.356 60.04 161.634 59.977 161.943 59.8125L162.493 60.8452C161.901 61.1601 161.342 61.2483 160.815 61.1097C160.302 60.9752 159.878 60.5947 159.544 59.968Z" fill="#9A9A9A"/>
</svg>
