<svg width="51" height="51" viewBox="0 0 51 51" fill="none" xmlns="http://www.w3.org/2000/svg">
<path d="M45.2043 13.7925H28.1348V22.3882H48.0696V16.6577C48.0696 15.0879 46.7894 13.7925 45.2043 13.7925ZM5.10621 13.7925C3.52118 13.7925 2.24097 15.0727 2.24097 16.6577V22.3882H22.2977V13.7925H5.10621ZM5.10621 25.2535V45.3101C5.10621 46.8952 6.38642 48.1754 7.97145 48.1754H22.2977V25.2535H5.10621ZM42.3391 48.1754C43.9241 48.1754 45.2043 46.8952 45.2043 45.3101V25.2535H28.1348V48.1754H42.3391ZM25.1629 10.912C25.1781 10.912 25.1781 10.9273 25.1781 10.9425H36.6391C40.6017 10.9425 42.3696 8.96121 42.3696 6.53795C42.3696 4.11469 40.5864 2.1334 36.6391 2.1334C32.9356 2.1334 30.0247 3.84036 28.0434 5.82164C26.2755 4.70907 24.0351 4.69383 22.2519 5.76068C20.2706 3.79463 17.3749 2.11816 13.7019 2.11816C9.73936 2.11816 7.97145 4.09945 7.97145 6.52271C7.97145 8.94597 9.73936 10.9273 13.7019 10.9273H25.1629V10.912ZM39.4739 6.64463C39.4739 7.8334 37.9193 8.07725 36.6086 8.07725H30.1009C30.0856 8.03153 30.0551 8.00105 30.0399 7.95533C31.503 6.53795 33.6976 5.21201 36.6086 5.21201C37.9193 5.21201 39.4739 5.45586 39.4739 6.64463ZM10.8367 6.64463C10.8367 5.45586 12.3912 5.21201 13.7019 5.21201C16.5519 5.21201 18.7161 6.49223 20.164 7.84864C20.1182 7.92485 20.0878 8.00105 20.042 8.07725H13.7019C12.3912 8.07725 10.8367 7.81816 10.8367 6.64463Z" fill="white"/>
</svg>
