<svg width="22" height="22" viewBox="0 0 22 22" fill="none" xmlns="http://www.w3.org/2000/svg">
<g clip-path="url(#clip0_20_117)">
<path fill-rule="evenodd" clip-rule="evenodd" d="M5.95817 0.916504C3.17373 0.916504 0.916504 3.17373 0.916504 5.95817V16.0415C0.916504 18.826 3.17373 21.0832 5.95817 21.0832H16.0415C18.826 21.0832 21.0832 18.826 21.0832 16.0415V5.95817C21.0832 3.17373 18.826 0.916504 16.0415 0.916504H5.95817ZM10.9998 7.33317C8.97479 7.33317 7.33317 8.97479 7.33317 10.9998C7.33317 13.0248 8.97479 14.6665 10.9998 14.6665C13.0248 14.6665 14.6665 13.0248 14.6665 10.9998C14.6665 8.97479 13.0248 7.33317 10.9998 7.33317ZM5.49984 10.9998C5.49984 7.96227 7.96227 5.49984 10.9998 5.49984C14.0374 5.49984 16.4998 7.96227 16.4998 10.9998C16.4998 14.0374 14.0374 16.4998 10.9998 16.4998C7.96227 16.4998 5.49984 14.0374 5.49984 10.9998ZM16.4998 3.6665C15.4873 3.6665 14.6665 4.48731 14.6665 5.49984C14.6665 6.51236 15.4873 7.33317 16.4998 7.33317C17.5124 7.33317 18.3332 6.51236 18.3332 5.49984C18.3332 4.48731 17.5124 3.6665 16.4998 3.6665Z" fill="#9A9A9A"/>
</g>
<defs>
<clipPath id="clip0_20_117">
<rect width="22" height="22" fill="white"/>
</clipPath>
</defs>
</svg>
