<svg width="327" height="60" viewBox="0 0 327 60" fill="none" xmlns="http://www.w3.org/2000/svg">
<rect x="0.5" y="0.5" width="326" height="59" rx="29.5" stroke="url(#paint0_radial_121_563)"/>
<path d="M94.3 23.3C95.75 23.3 97.0583 23.5333 98.225 24C99.4083 24.4667 100.35 25.2083 101.05 26.225C101.75 27.225 102.1 28.5417 102.1 30.175C102.1 31.575 101.875 32.8417 101.425 33.975C100.975 35.1083 100.383 36.075 99.65 36.875C98.9333 37.675 98.15 38.2917 97.3 38.725C96.4667 39.1417 95.65 39.35 94.85 39.35C94.1833 39.35 93.7167 39.2083 93.45 38.925C93.1833 38.6417 93.05 38.3 93.05 37.9C93.05 37.4833 93.1 37.0833 93.2 36.7C93.3 36.3167 93.375 36.0333 93.425 35.85L94.95 28.4C95.3333 28.4 95.725 28.375 96.125 28.325C96.525 28.275 96.8833 28.1833 97.2 28.05L95.1 37.225C95 37.5917 94.95 37.8917 94.95 38.125C94.95 38.3417 95.0083 38.5 95.125 38.6C95.2583 38.6833 95.4417 38.725 95.675 38.725C96.1583 38.725 96.7333 38.5417 97.4 38.175C98.0667 37.7917 98.7167 37.2417 99.35 36.525C100 35.7917 100.533 34.8917 100.95 33.825C101.383 32.7583 101.6 31.5333 101.6 30.15C101.6 28.6 101.267 27.3583 100.6 26.425C99.9333 25.4917 99.05 24.8167 97.95 24.4C96.85 23.9667 95.6417 23.75 94.325 23.75C93.1083 23.75 91.925 23.9667 90.775 24.4C89.625 24.8333 88.5583 25.45 87.575 26.25C86.6083 27.0333 85.7583 27.9583 85.025 29.025C84.3083 30.075 83.7417 31.225 83.325 32.475C82.925 33.725 82.725 35.025 82.725 36.375C82.725 38.0917 83.05 39.475 83.7 40.525C84.35 41.5917 85.2417 42.3667 86.375 42.85C87.5083 43.3333 88.7917 43.575 90.225 43.575C91.125 43.575 92 43.4667 92.85 43.25C93.7167 43.05 94.5583 42.7083 95.375 42.225L95.55 42.55C94.9333 42.9833 94.1667 43.3333 93.25 43.6C92.3333 43.8833 91.3167 44.025 90.2 44.025C88.65 44.025 87.275 43.7583 86.075 43.225C84.875 42.6917 83.9333 41.8667 83.25 40.75C82.5667 39.6333 82.225 38.1917 82.225 36.425C82.225 35.075 82.425 33.7667 82.825 32.5C83.225 31.2167 83.7917 30.025 84.525 28.925C85.275 27.8083 86.15 26.8333 87.15 26C88.15 25.15 89.25 24.4917 90.45 24.025C91.6667 23.5417 92.95 23.3 94.3 23.3ZM92.95 28.05C93.3333 28.05 93.6667 28.125 93.95 28.275C94.25 28.425 94.475 28.6667 94.625 29C94.7917 29.3167 94.85 29.7583 94.8 30.325L94.6 30.425C94.6 29.9917 94.5417 29.6417 94.425 29.375C94.3083 29.1083 94.1333 28.9167 93.9 28.8C93.6667 28.6833 93.3833 28.625 93.05 28.625C92.5 28.625 91.9833 28.85 91.5 29.3C91.0333 29.75 90.6167 30.35 90.25 31.1C89.9 31.8333 89.625 32.6417 89.425 33.525C89.225 34.4083 89.125 35.2917 89.125 36.175C89.125 36.9917 89.2333 37.6 89.45 38C89.6833 38.4 90.0083 38.6 90.425 38.6C91.075 38.6 91.7333 38.0917 92.4 37.075C93.0833 36.0583 93.6333 34.6583 94.05 32.875L94.25 33.275C93.8833 34.6583 93.4833 35.8 93.05 36.7C92.6167 37.6 92.1167 38.2667 91.55 38.7C91 39.1333 90.3417 39.35 89.575 39.35C88.9417 39.35 88.4333 39.2167 88.05 38.95C87.6833 38.6833 87.4167 38.325 87.25 37.875C87.0833 37.4083 87 36.8917 87 36.325C87 35.375 87.175 34.4167 87.525 33.45C87.875 32.4667 88.3333 31.575 88.9 30.775C89.4833 29.9583 90.125 29.3 90.825 28.8C91.525 28.3 92.2333 28.05 92.95 28.05ZM111.598 26.775C112.965 26.775 114.098 27.3417 114.998 28.475C115.898 29.5917 116.348 31.2917 116.348 33.575C116.348 35.075 116.09 36.3333 115.573 37.35C115.073 38.35 114.398 39.1 113.548 39.6C112.698 40.1 111.773 40.35 110.773 40.35C109.94 40.35 109.132 40.1167 108.348 39.65C107.582 39.1667 107.007 38.4583 106.623 37.525L107.123 37.8C107.54 38.4667 108.057 38.9667 108.673 39.3C109.29 39.6167 109.923 39.775 110.573 39.775C111.69 39.775 112.523 39.275 113.073 38.275C113.64 37.2583 113.923 35.6917 113.923 33.575C113.923 32.225 113.815 31.1 113.598 30.2C113.382 29.3 113.048 28.6333 112.598 28.2C112.148 27.75 111.573 27.525 110.873 27.525C110.107 27.525 109.39 27.875 108.723 28.575C108.073 29.2583 107.673 30.2667 107.523 31.6L107.223 31.25C107.407 29.8333 107.898 28.7333 108.698 27.95C109.515 27.1667 110.482 26.775 111.598 26.775ZM107.698 20.425V38.7C107.482 38.8833 107.257 39.075 107.023 39.275C106.807 39.4583 106.59 39.6417 106.373 39.825C106.157 40.0083 105.932 40.2 105.698 40.4L105.273 40.225C105.34 39.9917 105.382 39.7583 105.398 39.525C105.432 39.275 105.448 39.025 105.448 38.775V23.425C105.448 22.675 105.315 22.125 105.048 21.775C104.782 21.4083 104.282 21.225 103.548 21.225V20.7C104.082 20.75 104.598 20.775 105.098 20.775C105.582 20.775 106.04 20.75 106.473 20.7C106.923 20.6333 107.332 20.5417 107.698 20.425ZM124.835 26.775C126.302 26.775 127.443 27.225 128.26 28.125C129.093 29.0083 129.51 30.3917 129.51 32.275H120.685L120.66 31.8H127.11C127.143 30.9833 127.077 30.2333 126.91 29.55C126.743 28.85 126.477 28.2917 126.11 27.875C125.76 27.4583 125.302 27.25 124.735 27.25C123.968 27.25 123.285 27.6333 122.685 28.4C122.102 29.1667 121.752 30.3833 121.635 32.05L121.71 32.15C121.677 32.4 121.652 32.675 121.635 32.975C121.618 33.275 121.61 33.575 121.61 33.875C121.61 35.0083 121.793 35.9833 122.16 36.8C122.527 37.6167 123.002 38.2417 123.585 38.675C124.185 39.0917 124.802 39.3 125.435 39.3C125.935 39.3 126.41 39.225 126.86 39.075C127.31 38.9083 127.727 38.6417 128.11 38.275C128.493 37.9083 128.827 37.4167 129.11 36.8L129.61 37C129.427 37.55 129.127 38.0833 128.71 38.6C128.293 39.1167 127.768 39.5417 127.135 39.875C126.502 40.1917 125.768 40.35 124.935 40.35C123.735 40.35 122.702 40.075 121.835 39.525C120.985 38.975 120.327 38.2167 119.86 37.25C119.41 36.2667 119.185 35.1417 119.185 33.875C119.185 32.4083 119.418 31.15 119.885 30.1C120.352 29.0333 121.01 28.2167 121.86 27.65C122.71 27.0667 123.702 26.775 124.835 26.775ZM135.882 20.4V37.675C135.882 38.375 136.023 38.85 136.307 39.1C136.607 39.35 137.098 39.475 137.782 39.475V40C137.498 39.9833 137.065 39.9667 136.482 39.95C135.915 39.9167 135.34 39.9 134.757 39.9C134.19 39.9 133.615 39.9167 133.032 39.95C132.448 39.9667 132.015 39.9833 131.732 40V39.475C132.415 39.475 132.898 39.35 133.182 39.1C133.482 38.85 133.632 38.375 133.632 37.675V23.4C133.632 22.65 133.498 22.1 133.232 21.75C132.965 21.3833 132.465 21.2 131.732 21.2V20.675C132.265 20.725 132.782 20.75 133.282 20.75C133.765 20.75 134.223 20.725 134.657 20.675C135.107 20.6083 135.515 20.5167 135.882 20.4ZM143.535 20.4V37.675C143.535 38.375 143.677 38.85 143.96 39.1C144.26 39.35 144.752 39.475 145.435 39.475V40C145.152 39.9833 144.718 39.9667 144.135 39.95C143.568 39.9167 142.993 39.9 142.41 39.9C141.843 39.9 141.268 39.9167 140.685 39.95C140.102 39.9667 139.668 39.9833 139.385 40V39.475C140.068 39.475 140.552 39.35 140.835 39.1C141.135 38.85 141.285 38.375 141.285 37.675V23.4C141.285 22.65 141.152 22.1 140.885 21.75C140.618 21.3833 140.118 21.2 139.385 21.2V20.675C139.918 20.725 140.435 20.75 140.935 20.75C141.418 20.75 141.877 20.725 142.31 20.675C142.76 20.6083 143.168 20.5167 143.535 20.4ZM150.763 40.175C150.08 40.175 149.488 40.05 148.988 39.8C148.488 39.5333 148.105 39.1667 147.838 38.7C147.588 38.2333 147.463 37.6917 147.463 37.075C147.463 36.3417 147.63 35.7417 147.963 35.275C148.313 34.8083 148.755 34.4333 149.288 34.15C149.822 33.8667 150.38 33.6333 150.963 33.45C151.563 33.25 152.13 33.0667 152.663 32.9C153.197 32.7167 153.63 32.5083 153.963 32.275C154.313 32.0417 154.488 31.7333 154.488 31.35V29.8C154.488 29.1 154.38 28.5667 154.163 28.2C153.963 27.8333 153.688 27.5917 153.338 27.475C152.988 27.3417 152.597 27.275 152.163 27.275C151.747 27.275 151.297 27.3333 150.813 27.45C150.347 27.5667 149.972 27.8083 149.688 28.175C150.005 28.2417 150.28 28.4083 150.513 28.675C150.747 28.9417 150.863 29.2833 150.863 29.7C150.863 30.1167 150.73 30.45 150.463 30.7C150.197 30.9333 149.855 31.05 149.438 31.05C148.955 31.05 148.597 30.9 148.363 30.6C148.147 30.2833 148.038 29.9333 148.038 29.55C148.038 29.1167 148.147 28.7667 148.363 28.5C148.58 28.2333 148.855 27.9833 149.188 27.75C149.572 27.4833 150.063 27.2583 150.663 27.075C151.28 26.875 151.972 26.775 152.738 26.775C153.422 26.775 154.005 26.8583 154.488 27.025C154.972 27.175 155.372 27.4 155.688 27.7C156.122 28.1 156.405 28.5917 156.538 29.175C156.672 29.7417 156.738 30.425 156.738 31.225V38.175C156.738 38.5917 156.797 38.8917 156.913 39.075C157.047 39.2583 157.247 39.35 157.513 39.35C157.697 39.35 157.872 39.3083 158.038 39.225C158.205 39.1417 158.405 39.0083 158.638 38.825L158.913 39.25C158.563 39.5167 158.23 39.7417 157.913 39.925C157.597 40.0917 157.172 40.175 156.638 40.175C156.155 40.175 155.755 40.0917 155.438 39.925C155.122 39.7583 154.88 39.5167 154.713 39.2C154.563 38.8667 154.488 38.45 154.488 37.95C154.038 38.7 153.497 39.2583 152.863 39.625C152.247 39.9917 151.547 40.175 150.763 40.175ZM151.663 39.175C152.213 39.175 152.722 39.0167 153.188 38.7C153.672 38.3833 154.105 37.9083 154.488 37.275V32.375C154.288 32.6583 153.997 32.9 153.613 33.1C153.23 33.2833 152.813 33.475 152.363 33.675C151.913 33.8583 151.48 34.0833 151.063 34.35C150.663 34.6 150.33 34.9333 150.063 35.35C149.797 35.7667 149.663 36.3083 149.663 36.975C149.663 37.6417 149.838 38.175 150.188 38.575C150.555 38.975 151.047 39.175 151.663 39.175ZM171.539 20.4V37.275C171.539 38.025 171.673 38.5833 171.939 38.95C172.223 39.3 172.723 39.475 173.439 39.475V40C172.923 39.95 172.406 39.925 171.889 39.925C171.406 39.925 170.939 39.95 170.489 40C170.056 40.05 169.656 40.1417 169.289 40.275V23.4C169.289 22.65 169.156 22.1 168.889 21.75C168.623 21.3833 168.123 21.2 167.389 21.2V20.675C167.923 20.725 168.439 20.75 168.939 20.75C169.423 20.75 169.881 20.725 170.314 20.675C170.764 20.6083 171.173 20.5167 171.539 20.4ZM166.289 26.775C167.023 26.775 167.706 26.95 168.339 27.3C168.989 27.65 169.423 28.25 169.639 29.1L169.314 29.35C169.081 28.65 168.714 28.1417 168.214 27.825C167.731 27.5083 167.156 27.35 166.489 27.35C165.506 27.35 164.681 27.8583 164.014 28.875C163.364 29.8917 163.048 31.4583 163.064 33.575C163.064 34.925 163.189 36.05 163.439 36.95C163.706 37.8333 164.089 38.5 164.589 38.95C165.106 39.3833 165.731 39.6 166.464 39.6C167.164 39.6 167.798 39.3 168.364 38.7C168.931 38.1 169.273 37.2167 169.389 36.05L169.689 36.4C169.556 37.6667 169.148 38.6417 168.464 39.325C167.798 40.0083 166.889 40.35 165.739 40.35C164.706 40.35 163.798 40.1 163.014 39.6C162.248 39.1 161.656 38.35 161.239 37.35C160.839 36.35 160.639 35.0917 160.639 33.575C160.639 32.0583 160.898 30.8 161.414 29.8C161.948 28.7833 162.639 28.025 163.489 27.525C164.356 27.025 165.289 26.775 166.289 26.775ZM181.316 26.775C182.382 26.775 183.341 27.0083 184.191 27.475C185.041 27.9417 185.716 28.675 186.216 29.675C186.732 30.675 186.991 31.975 186.991 33.575C186.991 35.175 186.732 36.475 186.216 37.475C185.716 38.4583 185.041 39.1833 184.191 39.65C183.341 40.1167 182.382 40.35 181.316 40.35C180.266 40.35 179.307 40.1167 178.441 39.65C177.591 39.1833 176.907 38.4583 176.391 37.475C175.891 36.475 175.641 35.175 175.641 33.575C175.641 31.975 175.891 30.675 176.391 29.675C176.907 28.675 177.591 27.9417 178.441 27.475C179.307 27.0083 180.266 26.775 181.316 26.775ZM181.316 27.275C180.366 27.275 179.582 27.7667 178.966 28.75C178.366 29.7333 178.066 31.3417 178.066 33.575C178.066 35.8083 178.366 37.4167 178.966 38.4C179.582 39.3667 180.366 39.85 181.316 39.85C182.266 39.85 183.041 39.3667 183.641 38.4C184.257 37.4167 184.566 35.8083 184.566 33.575C184.566 31.3417 184.257 29.7333 183.641 28.75C183.041 27.7667 182.266 27.275 181.316 27.275ZM197.787 26.775C198.42 26.775 198.945 26.8583 199.362 27.025C199.795 27.1917 200.154 27.425 200.437 27.725C200.754 28.0583 200.979 28.475 201.112 28.975C201.245 29.475 201.312 30.15 201.312 31V37.675C201.312 38.375 201.454 38.85 201.737 39.1C202.037 39.35 202.529 39.475 203.212 39.475V40C202.929 39.9833 202.495 39.9667 201.912 39.95C201.329 39.9167 200.762 39.9 200.212 39.9C199.662 39.9 199.12 39.9167 198.587 39.95C198.07 39.9667 197.679 39.9833 197.412 40V39.475C198.012 39.475 198.437 39.35 198.687 39.1C198.937 38.85 199.062 38.375 199.062 37.675V30.45C199.062 29.9333 199.02 29.4583 198.937 29.025C198.854 28.5917 198.662 28.2417 198.362 27.975C198.079 27.7083 197.637 27.575 197.037 27.575C196.337 27.575 195.72 27.775 195.187 28.175C194.67 28.575 194.262 29.125 193.962 29.825C193.679 30.5083 193.537 31.275 193.537 32.125V37.675C193.537 38.375 193.662 38.85 193.912 39.1C194.162 39.35 194.587 39.475 195.187 39.475V40C194.92 39.9833 194.52 39.9667 193.987 39.95C193.47 39.9167 192.937 39.9 192.387 39.9C191.837 39.9 191.27 39.9167 190.687 39.95C190.104 39.9667 189.67 39.9833 189.387 40V39.475C190.07 39.475 190.554 39.35 190.837 39.1C191.137 38.85 191.287 38.375 191.287 37.675V29.85C191.287 29.1 191.154 28.55 190.887 28.2C190.62 27.8333 190.12 27.65 189.387 27.65V27.125C189.92 27.175 190.437 27.2 190.937 27.2C191.42 27.2 191.879 27.175 192.312 27.125C192.762 27.0583 193.17 26.9667 193.537 26.85V29.8C193.97 28.6667 194.57 27.8833 195.337 27.45C196.12 27 196.937 26.775 197.787 26.775ZM213.204 26.775C213.837 26.775 214.362 26.8583 214.779 27.025C215.212 27.1917 215.571 27.425 215.854 27.725C216.171 28.0583 216.396 28.475 216.529 28.975C216.662 29.475 216.729 30.15 216.729 31V37.675C216.729 38.375 216.871 38.85 217.154 39.1C217.454 39.35 217.946 39.475 218.629 39.475V40C218.346 39.9833 217.912 39.9667 217.329 39.95C216.746 39.9167 216.179 39.9 215.629 39.9C215.079 39.9 214.537 39.9167 214.004 39.95C213.487 39.9667 213.096 39.9833 212.829 40V39.475C213.429 39.475 213.854 39.35 214.104 39.1C214.354 38.85 214.479 38.375 214.479 37.675V30.45C214.479 29.9333 214.437 29.4583 214.354 29.025C214.271 28.5917 214.079 28.2417 213.779 27.975C213.496 27.7083 213.054 27.575 212.454 27.575C211.754 27.575 211.137 27.775 210.604 28.175C210.087 28.575 209.679 29.125 209.379 29.825C209.096 30.5083 208.954 31.275 208.954 32.125V37.675C208.954 38.375 209.079 38.85 209.329 39.1C209.579 39.35 210.004 39.475 210.604 39.475V40C210.337 39.9833 209.937 39.9667 209.404 39.95C208.887 39.9167 208.354 39.9 207.804 39.9C207.254 39.9 206.687 39.9167 206.104 39.95C205.521 39.9667 205.087 39.9833 204.804 40V39.475C205.487 39.475 205.971 39.35 206.254 39.1C206.554 38.85 206.704 38.375 206.704 37.675V29.85C206.704 29.1 206.571 28.55 206.304 28.2C206.037 27.8333 205.537 27.65 204.804 27.65V27.125C205.337 27.175 205.854 27.2 206.354 27.2C206.837 27.2 207.296 27.175 207.729 27.125C208.179 27.0583 208.587 26.9667 208.954 26.85V29.8C209.387 28.6667 209.987 27.8833 210.754 27.45C211.537 27 212.354 26.775 213.204 26.775ZM223.771 40.175C223.088 40.175 222.496 40.05 221.996 39.8C221.496 39.5333 221.113 39.1667 220.846 38.7C220.596 38.2333 220.471 37.6917 220.471 37.075C220.471 36.3417 220.638 35.7417 220.971 35.275C221.321 34.8083 221.763 34.4333 222.296 34.15C222.829 33.8667 223.388 33.6333 223.971 33.45C224.571 33.25 225.138 33.0667 225.671 32.9C226.204 32.7167 226.638 32.5083 226.971 32.275C227.321 32.0417 227.496 31.7333 227.496 31.35V29.8C227.496 29.1 227.388 28.5667 227.171 28.2C226.971 27.8333 226.696 27.5917 226.346 27.475C225.996 27.3417 225.604 27.275 225.171 27.275C224.754 27.275 224.304 27.3333 223.821 27.45C223.354 27.5667 222.979 27.8083 222.696 28.175C223.013 28.2417 223.288 28.4083 223.521 28.675C223.754 28.9417 223.871 29.2833 223.871 29.7C223.871 30.1167 223.738 30.45 223.471 30.7C223.204 30.9333 222.863 31.05 222.446 31.05C221.963 31.05 221.604 30.9 221.371 30.6C221.154 30.2833 221.046 29.9333 221.046 29.55C221.046 29.1167 221.154 28.7667 221.371 28.5C221.588 28.2333 221.863 27.9833 222.196 27.75C222.579 27.4833 223.071 27.2583 223.671 27.075C224.288 26.875 224.979 26.775 225.746 26.775C226.429 26.775 227.013 26.8583 227.496 27.025C227.979 27.175 228.379 27.4 228.696 27.7C229.129 28.1 229.413 28.5917 229.546 29.175C229.679 29.7417 229.746 30.425 229.746 31.225V38.175C229.746 38.5917 229.804 38.8917 229.921 39.075C230.054 39.2583 230.254 39.35 230.521 39.35C230.704 39.35 230.879 39.3083 231.046 39.225C231.213 39.1417 231.413 39.0083 231.646 38.825L231.921 39.25C231.571 39.5167 231.238 39.7417 230.921 39.925C230.604 40.0917 230.179 40.175 229.646 40.175C229.163 40.175 228.763 40.0917 228.446 39.925C228.129 39.7583 227.888 39.5167 227.721 39.2C227.571 38.8667 227.496 38.45 227.496 37.95C227.046 38.7 226.504 39.2583 225.871 39.625C225.254 39.9917 224.554 40.175 223.771 40.175ZM224.671 39.175C225.221 39.175 225.729 39.0167 226.196 38.7C226.679 38.3833 227.113 37.9083 227.496 37.275V32.375C227.296 32.6583 227.004 32.9 226.621 33.1C226.238 33.2833 225.821 33.475 225.371 33.675C224.921 33.8583 224.488 34.0833 224.071 34.35C223.671 34.6 223.338 34.9333 223.071 35.35C222.804 35.7667 222.671 36.3083 222.671 36.975C222.671 37.6417 222.846 38.175 223.196 38.575C223.563 38.975 224.054 39.175 224.671 39.175ZM239.422 26.775C239.956 26.775 240.472 26.8417 240.972 26.975C241.472 27.1083 241.922 27.3083 242.322 27.575C242.706 27.825 242.997 28.1167 243.197 28.45C243.397 28.7667 243.497 29.1167 243.497 29.5C243.497 29.95 243.372 30.3 243.122 30.55C242.872 30.7833 242.556 30.9 242.172 30.9C241.806 30.9 241.481 30.7917 241.197 30.575C240.931 30.3583 240.797 30.05 240.797 29.65C240.797 29.2667 240.897 28.9583 241.097 28.725C241.314 28.4917 241.564 28.3417 241.847 28.275C241.681 27.975 241.381 27.725 240.947 27.525C240.531 27.325 240.081 27.225 239.597 27.225C239.181 27.225 238.764 27.325 238.347 27.525C237.931 27.725 237.547 28.0583 237.197 28.525C236.847 28.975 236.564 29.6 236.347 30.4C236.131 31.1833 236.022 32.1667 236.022 33.35C236.022 34.8167 236.189 35.9833 236.522 36.85C236.856 37.7167 237.289 38.3417 237.822 38.725C238.372 39.0917 238.972 39.275 239.622 39.275C240.056 39.275 240.497 39.1917 240.947 39.025C241.397 38.8583 241.822 38.5917 242.222 38.225C242.622 37.8417 242.964 37.3333 243.247 36.7L243.722 36.875C243.556 37.4083 243.281 37.95 242.897 38.5C242.514 39.0333 242.014 39.475 241.397 39.825C240.781 40.175 240.022 40.35 239.122 40.35C238.089 40.35 237.156 40.0833 236.322 39.55C235.489 39.0167 234.822 38.2583 234.322 37.275C233.839 36.275 233.597 35.0917 233.597 33.725C233.597 32.3583 233.839 31.1583 234.322 30.125C234.822 29.075 235.514 28.2583 236.397 27.675C237.281 27.075 238.289 26.775 239.422 26.775ZM251.905 26.775C253.372 26.775 254.514 27.225 255.33 28.125C256.164 29.0083 256.58 30.3917 256.58 32.275H247.755L247.73 31.8H254.18C254.214 30.9833 254.147 30.2333 253.98 29.55C253.814 28.85 253.547 28.2917 253.18 27.875C252.83 27.4583 252.372 27.25 251.805 27.25C251.039 27.25 250.355 27.6333 249.755 28.4C249.172 29.1667 248.822 30.3833 248.705 32.05L248.78 32.15C248.747 32.4 248.722 32.675 248.705 32.975C248.689 33.275 248.68 33.575 248.68 33.875C248.68 35.0083 248.864 35.9833 249.23 36.8C249.597 37.6167 250.072 38.2417 250.655 38.675C251.255 39.0917 251.872 39.3 252.505 39.3C253.005 39.3 253.48 39.225 253.93 39.075C254.38 38.9083 254.797 38.6417 255.18 38.275C255.564 37.9083 255.897 37.4167 256.18 36.8L256.68 37C256.497 37.55 256.197 38.0833 255.78 38.6C255.364 39.1167 254.839 39.5417 254.205 39.875C253.572 40.1917 252.839 40.35 252.005 40.35C250.805 40.35 249.772 40.075 248.905 39.525C248.055 38.975 247.397 38.2167 246.93 37.25C246.48 36.2667 246.255 35.1417 246.255 33.875C246.255 32.4083 246.489 31.15 246.955 30.1C247.422 29.0333 248.08 28.2167 248.93 27.65C249.78 27.0667 250.772 26.775 251.905 26.775ZM267.377 26.775C268.01 26.775 268.535 26.8583 268.952 27.025C269.385 27.1917 269.744 27.425 270.027 27.725C270.344 28.0583 270.569 28.475 270.702 28.975C270.835 29.475 270.902 30.15 270.902 31V37.675C270.902 38.375 271.044 38.85 271.327 39.1C271.627 39.35 272.119 39.475 272.802 39.475V40C272.519 39.9833 272.085 39.9667 271.502 39.95C270.919 39.9167 270.352 39.9 269.802 39.9C269.252 39.9 268.71 39.9167 268.177 39.95C267.66 39.9667 267.269 39.9833 267.002 40V39.475C267.602 39.475 268.027 39.35 268.277 39.1C268.527 38.85 268.652 38.375 268.652 37.675V30.45C268.652 29.9333 268.61 29.4583 268.527 29.025C268.444 28.5917 268.252 28.2417 267.952 27.975C267.669 27.7083 267.227 27.575 266.627 27.575C265.927 27.575 265.31 27.775 264.777 28.175C264.26 28.575 263.852 29.125 263.552 29.825C263.269 30.5083 263.127 31.275 263.127 32.125V37.675C263.127 38.375 263.252 38.85 263.502 39.1C263.752 39.35 264.177 39.475 264.777 39.475V40C264.51 39.9833 264.11 39.9667 263.577 39.95C263.06 39.9167 262.527 39.9 261.977 39.9C261.427 39.9 260.86 39.9167 260.277 39.95C259.694 39.9667 259.26 39.9833 258.977 40V39.475C259.66 39.475 260.144 39.35 260.427 39.1C260.727 38.85 260.877 38.375 260.877 37.675V29.85C260.877 29.1 260.744 28.55 260.477 28.2C260.21 27.8333 259.71 27.65 258.977 27.65V27.125C259.51 27.175 260.027 27.2 260.527 27.2C261.01 27.2 261.469 27.175 261.902 27.125C262.352 27.0583 262.76 26.9667 263.127 26.85V29.8C263.56 28.6667 264.16 27.8833 264.927 27.45C265.71 27 266.527 26.775 267.377 26.775ZM278.419 22.975V27.15H282.119V27.65H278.419V37.325C278.419 38.1083 278.561 38.6583 278.844 38.975C279.127 39.2917 279.519 39.45 280.019 39.45C280.519 39.45 280.952 39.25 281.319 38.85C281.686 38.4333 282.002 37.7417 282.269 36.775L282.769 36.9C282.602 37.8667 282.269 38.6833 281.769 39.35C281.286 40.0167 280.536 40.35 279.519 40.35C278.952 40.35 278.486 40.275 278.119 40.125C277.752 39.9917 277.427 39.7917 277.144 39.525C276.777 39.1417 276.519 38.6833 276.369 38.15C276.236 37.6167 276.169 36.9083 276.169 36.025V27.65H273.769V27.15H276.169V23.325C276.586 23.3083 276.986 23.275 277.369 23.225C277.752 23.175 278.102 23.0917 278.419 22.975ZM291.507 26.775C291.957 26.775 292.349 26.8667 292.682 27.05C293.032 27.2333 293.299 27.475 293.482 27.775C293.682 28.0583 293.782 28.3833 293.782 28.75C293.782 29.1667 293.649 29.5333 293.382 29.85C293.132 30.1667 292.79 30.325 292.357 30.325C292.007 30.325 291.699 30.2167 291.432 30C291.165 29.7667 291.032 29.4417 291.032 29.025C291.032 28.7083 291.115 28.4417 291.282 28.225C291.465 27.9917 291.665 27.8083 291.882 27.675C291.765 27.5083 291.59 27.425 291.357 27.425C290.84 27.425 290.365 27.5833 289.932 27.9C289.499 28.2 289.132 28.5917 288.832 29.075C288.532 29.5583 288.299 30.075 288.132 30.625C287.965 31.1583 287.882 31.6583 287.882 32.125V37.425C287.882 38.2417 288.115 38.7917 288.582 39.075C289.065 39.3417 289.715 39.475 290.532 39.475V40C290.149 39.9833 289.607 39.9667 288.907 39.95C288.207 39.9167 287.465 39.9 286.682 39.9C286.115 39.9 285.549 39.9167 284.982 39.95C284.432 39.9667 284.015 39.9833 283.732 40V39.475C284.415 39.475 284.899 39.35 285.182 39.1C285.482 38.85 285.632 38.375 285.632 37.675V29.85C285.632 29.1 285.499 28.55 285.232 28.2C284.965 27.8333 284.465 27.65 283.732 27.65V27.125C284.265 27.175 284.782 27.2 285.282 27.2C285.765 27.2 286.224 27.175 286.657 27.125C287.107 27.0583 287.515 26.9667 287.882 26.85V29.975C288.065 29.4917 288.324 29.0083 288.657 28.525C289.007 28.025 289.424 27.6083 289.907 27.275C290.39 26.9417 290.924 26.775 291.507 26.775Z" fill="#676767"/>
<path d="M48 49C58.4934 49 67 40.4934 67 30C67 19.5066 58.4934 11 48 11C37.5066 11 29 19.5066 29 30C29 40.4934 37.5066 49 48 49Z" fill="url(#paint1_linear_121_563)"/>
<path d="M52.0367 19.4443H43.9722C40.3749 19.4443 37.4531 22.3661 37.4531 25.9634V34.0279C37.4531 37.6252 40.3749 40.547 43.9722 40.547H52.0367C55.634 40.547 58.5558 37.6252 58.5558 34.0279V25.9634C58.5558 22.3661 55.634 19.4443 52.0367 19.4443ZM56.1998 34.0363C56.1998 36.3332 54.3336 38.2079 52.0282 38.2079H43.9638C41.6669 38.2079 39.7922 36.3417 39.7922 34.0363V25.9719C39.7922 23.675 41.6585 21.8003 43.9638 21.8003H52.0282C54.3251 21.8003 56.1998 23.6666 56.1998 25.9719V34.0363Z" fill="white"/>
<path d="M47.9995 24.6035C45.0271 24.6035 42.6035 27.0271 42.6035 29.9995C42.6035 32.972 45.0271 35.3955 47.9995 35.3955C50.972 35.3955 53.3955 32.972 53.3955 29.9995C53.3955 27.0271 50.972 24.6035 47.9995 24.6035ZM47.9995 33.276C46.1924 33.276 44.7231 31.8066 44.7231 29.9995C44.7231 28.1924 46.1924 26.7231 47.9995 26.7231C49.8066 26.7231 51.276 28.1924 51.276 29.9995C51.276 31.8066 49.8066 33.276 47.9995 33.276Z" fill="white"/>
<path d="M53.8072 25.1954C54.3044 25.1148 54.642 24.6465 54.5614 24.1493C54.4809 23.6522 54.0125 23.3145 53.5154 23.3951C53.0182 23.4757 52.6806 23.944 52.7612 24.4412C52.8417 24.9383 53.3101 25.276 53.8072 25.1954Z" fill="white"/>
<defs>
<radialGradient id="paint0_radial_121_563" cx="0" cy="0" r="1" gradientUnits="userSpaceOnUse" gradientTransform="translate(163.5 30) rotate(-12.2233) scale(185.571 171.199)">
<stop stop-color="#3F7B83"/>
<stop offset="1" stop-color="#8CC4B9"/>
</radialGradient>
<linearGradient id="paint1_linear_121_563" x1="33.5329" y1="44.4671" x2="60.534" y2="17.466" gradientUnits="userSpaceOnUse">
<stop stop-color="#FEE411"/>
<stop offset="0.0518459" stop-color="#FEDB16"/>
<stop offset="0.1381" stop-color="#FEC125"/>
<stop offset="0.2481" stop-color="#FE983D"/>
<stop offset="0.3762" stop-color="#FE5F5E"/>
<stop offset="0.5" stop-color="#FE2181"/>
<stop offset="1" stop-color="#9000DC"/>
</linearGradient>
</defs>
</svg>
