<svg width="105" height="105" viewBox="0 0 105 105" fill="none" xmlns="http://www.w3.org/2000/svg">
<circle opacity="0.2" cx="52.5" cy="52.5" r="52.5" transform="rotate(-180 52.5 52.5)" fill="url(#paint0_radial_121_594)"/>
<circle cx="52.5" cy="52.5" r="32.5" transform="rotate(-180 52.5 52.5)" fill="url(#paint1_radial_121_594)"/>
<path d="M47.0581 51.9989L59.2584 63.1425C59.6843 63.5673 59.6843 64.2566 59.2584 64.6814C58.8325 65.1062 58.1411 65.1062 57.7152 64.6814L44.7325 52.8236C44.5049 52.5971 44.4085 52.2958 44.4237 52C44.4085 51.7031 44.5049 51.4029 44.7325 51.1764L57.7152 39.3186C58.1411 38.8938 58.8325 38.8938 59.2584 39.3186C59.6843 39.7434 59.6843 40.4327 59.2584 40.8575L47.0581 51.9989Z" fill="white"/>
<defs>
<radialGradient id="paint0_radial_121_594" cx="0" cy="0" r="1" gradientUnits="userSpaceOnUse" gradientTransform="translate(55.5 65) rotate(-59.3614) scale(75.5463 166.113)">
<stop offset="0.203537" stop-color="#86C3C4" stop-opacity="0.83"/>
<stop offset="0.53425" stop-color="#86C3C4"/>
<stop offset="1" stop-color="#8CC4B9"/>
</radialGradient>
<radialGradient id="paint1_radial_121_594" cx="0" cy="0" r="1" gradientUnits="userSpaceOnUse" gradientTransform="translate(52.5 52.5) rotate(-49.7358) scale(55.7794 122.649)">
<stop stop-color="#86C3C4"/>
<stop offset="1" stop-color="#8CC4B9"/>
</radialGradient>
</defs>
</svg>
