<svg width="424" height="100" viewBox="0 0 424 100" fill="none" xmlns="http://www.w3.org/2000/svg">
<g clip-path="url(#clip0_185_2)">
<path d="M6.574 22.8021C6.574 20.3197 6.2522 18.4808 5.56262 17.2855C4.87303 16.0902 3.53985 15.4926 1.4711 15.4926H0V14.0215H18.9864C24.2732 14.0215 28.9164 14.895 32.824 16.6419C36.7317 18.3888 38.7084 21.7908 38.7084 26.8017C38.7084 29.1003 37.9269 31.1691 36.3639 33.0079C34.8008 34.8468 32.4103 36.3179 29.1922 37.3753C33.6515 38.1108 36.7776 39.444 38.5705 41.3748C40.3634 43.3057 41.2369 45.8801 41.2369 49.0981C41.2369 54.0171 39.3061 57.4191 35.4444 59.3499C31.5828 61.2807 26.8017 62.2461 21.1471 62.2461H6.574V22.8021ZM20.0898 36.3179C22.0666 36.3179 23.9514 35.9501 25.7443 35.1686C27.5372 34.4331 28.9624 33.2838 30.1117 31.8127C31.215 30.3416 31.8126 28.5486 31.8126 26.4339C31.8126 24.2273 31.169 22.3884 29.8358 20.9173C28.5027 19.4462 26.8477 18.3429 24.8249 17.6533C22.8021 16.9637 20.7334 16.5959 18.6646 16.5959C16.9637 16.5959 15.1248 16.8258 13.194 17.3315V36.3179H20.0898ZM30.3415 57.0513C32.7321 55.3044 33.9733 52.7759 33.9733 49.4659C33.9733 46.1559 32.7781 43.6275 30.4335 41.8805C28.0889 40.1336 24.641 39.2601 20.0898 39.2601H13.148V58.7063C15.4926 59.3959 17.7912 59.7177 20.0898 59.7177C24.5031 59.6717 27.951 58.7982 30.3415 57.0513Z" fill="white"/>
<path d="M54.4768 60.5907C52.1782 59.0276 50.4772 56.867 49.282 54.1546C48.1327 51.4423 47.535 48.4081 47.535 45.0521C47.535 41.7422 48.1327 38.708 49.282 35.9956C50.4313 33.2833 52.1322 31.1226 54.3389 29.5136C56.5455 27.9505 59.166 27.123 62.1082 27.123C67.0272 27.123 70.7049 28.5022 73.0955 31.2605C75.486 34.0189 76.7273 37.9724 76.7273 43.2133L76.5894 46.1555H54.4768C54.4768 50.247 55.3503 53.6029 57.0972 56.1774C58.8442 58.7518 61.2807 60.039 64.3148 60.039C66.6134 60.039 68.5442 59.5333 70.1073 58.5679C71.6703 57.6025 73.1415 56.1314 74.5206 54.2006L75.9917 55.3039C74.3827 57.9703 72.4978 59.9471 70.3831 61.1423C68.2224 62.3376 65.74 62.9812 62.8437 62.9812C59.5797 62.9353 56.7754 62.1537 54.4768 60.5907ZM69.8315 43.2592C69.8315 38.9838 69.1879 35.7198 67.9466 33.4672C66.6594 31.2146 64.7745 30.1112 62.2001 30.1112C60.729 30.1112 59.4418 30.6629 58.2465 31.8122C57.0972 32.9615 56.1778 34.5245 55.4882 36.5013C54.8446 38.4781 54.5228 40.7308 54.5228 43.2133H69.8315V43.2592Z" fill="white"/>
<path d="M85.4621 22.8021C85.4621 20.3197 85.1403 18.4808 84.4507 17.2855C83.7611 16.0902 82.4279 15.4926 80.3592 15.4926H78.8881V14.0215H85.4621C87.255 14.0215 88.6341 14.2513 89.5076 14.7111C90.427 15.1708 91.0706 15.9983 91.4384 17.2395C91.8062 18.4348 92.0361 20.3197 92.0361 22.8021V62.2461H85.4621V22.8021Z" fill="white"/>
<path d="M103.115 22.8021C103.115 20.3197 102.793 18.4808 102.104 17.2855C101.414 16.0902 100.081 15.4926 98.0124 15.4926H96.5413V14.0215H103.115C104.908 14.0215 106.287 14.2513 107.161 14.7111C108.08 15.1708 108.724 15.9983 109.092 17.2395C109.459 18.4348 109.689 20.3197 109.689 22.8021V62.2461H103.115V22.8021Z" fill="white"/>
<path d="M123.941 61.9698C122.332 61.3262 120.952 60.2229 119.803 58.7058C118.654 57.1888 118.102 55.212 118.102 52.7295C118.102 49.0517 119.803 46.3853 123.251 44.8223C126.699 43.2592 131.158 42.4777 136.721 42.4777H138.928C138.928 37.6966 138.284 34.4326 136.951 32.6857C135.618 30.9387 133.733 30.0653 131.25 30.0653C129.044 30.0653 127.297 30.525 126.009 31.4444C124.676 32.3639 123.757 33.9729 123.251 36.2715H119.987C119.987 34.6165 120.079 33.3293 120.263 32.3639C120.447 31.3984 120.952 30.525 121.78 29.6975C122.653 28.824 124.125 28.1804 126.147 27.7667C128.17 27.3529 130.377 27.123 132.767 27.123C136.721 27.123 139.847 28.1804 142.1 30.2951C144.398 32.4098 145.547 36.4554 145.547 42.4317V62.1537H141.916L139.341 58.8897H138.973C138.1 59.993 136.813 60.9585 135.112 61.74C133.411 62.5215 131.296 62.8893 128.768 62.8893C127.113 62.9353 125.55 62.6135 123.941 61.9698ZM135.985 58.5219C137.043 57.7404 138.008 56.6831 138.928 55.3039V45.4199H136.721C133.135 45.4199 130.285 46.1095 128.17 47.4427C126.055 48.7759 125.044 50.5688 125.044 52.7295C125.044 54.9821 125.734 56.6831 127.067 57.8783C128.4 59.0736 130.055 59.6712 131.986 59.6712C133.549 59.6712 134.882 59.3035 135.985 58.5219Z" fill="white"/>
<path d="M231.147 22.8021C231.147 20.3197 230.825 18.4808 230.136 17.2855C229.446 16.0902 228.113 15.4926 226.044 15.4926H224.573V14.0215H243.698C253.122 14.0215 260.294 16.1362 265.121 20.3197C269.948 24.5031 272.384 30.3416 272.384 37.835C272.384 42.6621 271.373 46.8915 269.304 50.5692C267.281 54.247 264.247 57.0973 260.202 59.166C256.202 61.1888 251.283 62.2461 245.582 62.2461H231.101V22.8021H231.147ZM255.099 57.0053C257.995 55.2124 260.294 52.7299 261.948 49.4659C263.603 46.2479 264.431 42.4322 264.431 38.1108C264.431 33.8814 263.604 30.1117 261.994 26.8477C260.385 23.5837 258.087 21.0552 255.145 19.2623C252.202 17.4694 248.892 16.5499 245.215 16.5499C242.87 16.5499 240.434 16.9177 237.905 17.6992V58.6603C240.617 59.3039 243.1 59.6257 245.353 59.6257C248.984 59.6717 252.202 58.7982 255.099 57.0053Z" fill="white"/>
<path d="M286.314 60.5907C283.877 59.0276 282.038 56.8669 280.751 54.1086C279.464 51.3963 278.866 48.3621 278.866 45.0521C278.866 41.7422 279.51 38.708 280.751 35.9956C282.038 33.2833 283.877 31.1226 286.314 29.5136C288.75 27.9505 291.6 27.123 294.91 27.123C298.22 27.123 301.071 27.9046 303.507 29.5136C305.944 31.0766 307.783 33.2373 309.07 35.9956C310.357 38.708 310.955 41.7422 310.955 45.0521C310.955 48.3621 310.311 51.3963 309.07 54.1086C307.783 56.821 305.944 58.9817 303.507 60.5907C301.071 62.1537 298.22 62.9812 294.91 62.9812C291.646 62.9353 288.75 62.1537 286.314 60.5907ZM299.738 58.0622C301.117 56.729 302.174 54.9361 302.956 52.6375C303.691 50.3389 304.105 47.8105 304.105 45.0521C304.105 42.2938 303.737 39.7654 302.956 37.4668C302.22 35.1682 301.117 33.3752 299.738 32.0421C298.358 30.7089 296.749 30.0653 294.956 30.0653C293.164 30.0653 291.555 30.7089 290.175 32.0421C288.796 33.3752 287.739 35.1682 286.957 37.4668C286.222 39.7654 285.808 42.2938 285.808 45.0521C285.808 47.8105 286.176 50.3389 286.957 52.6375C287.693 54.9361 288.796 56.729 290.175 58.0622C291.555 59.3954 293.164 60.039 294.956 60.039C296.749 60.039 298.358 59.3954 299.738 58.0622Z" fill="white"/>
<path d="M320.655 36.6856C320.655 34.2032 320.333 32.3643 319.643 31.169C318.954 29.9737 317.621 29.3761 315.552 29.3761H314.081V27.905H320.655C322.448 27.905 323.827 28.1348 324.792 28.6405C325.758 29.1462 326.447 29.8358 326.861 30.8472C328.056 29.8818 329.527 29.0083 331.228 28.2728C332.929 27.5372 334.722 27.1694 336.745 27.1694C340.377 27.1694 343.365 28.1348 345.71 30.1116C348.008 32.0425 349.157 35.4904 349.157 40.3174V62.2461H342.583V40.3174C342.583 36.9155 341.802 34.433 340.285 32.824C338.768 31.2609 336.837 30.4334 334.538 30.4334C331.964 30.4334 329.527 31.7207 327.229 34.2951V62.2001H320.655V36.6856Z" fill="white"/>
<path d="M360.375 36.6856C360.375 34.2032 360.053 32.3643 359.363 31.169C358.674 29.9737 357.341 29.3761 355.272 29.3761H353.801V27.905H360.375C362.168 27.905 363.547 28.1348 364.512 28.6405C365.478 29.1462 366.167 29.8358 366.581 30.8472C367.776 29.8818 369.247 29.0083 370.948 28.2728C372.649 27.5372 374.442 27.1694 376.465 27.1694C380.097 27.1694 383.085 28.1348 385.43 30.1116C387.728 32.0425 388.877 35.4904 388.877 40.3174V62.2461H382.303V40.3174C382.303 36.9155 381.522 34.433 380.005 32.824C378.488 31.2609 376.557 30.4334 374.258 30.4334C371.684 30.4334 369.247 31.7207 366.949 34.2951V62.2001H360.375V36.6856Z" fill="white"/>
<path d="M402.439 61.9698C400.83 61.3262 399.451 60.2229 398.302 58.7058C397.152 57.1888 396.601 55.212 396.601 52.7295C396.601 49.0517 398.302 46.3853 401.75 44.8223C405.197 43.2592 409.657 42.4777 415.219 42.4777H417.426C417.426 37.6966 416.782 34.4326 415.449 32.6857C414.116 30.9387 412.231 30.0653 409.749 30.0653C407.542 30.0653 405.795 30.525 404.508 31.4444C403.175 32.3639 402.255 33.9729 401.75 36.2715H398.486C398.486 34.6165 398.578 33.3293 398.761 32.3639C398.945 31.3984 399.451 30.525 400.278 29.6975C401.152 28.824 402.623 28.1804 404.646 27.7667C406.669 27.3529 408.875 27.123 411.266 27.123C415.219 27.123 418.345 28.1804 420.598 30.2951C422.897 32.4098 424.046 36.4554 424.046 42.4317V62.1537H420.414L417.84 58.8897H417.426C416.553 59.993 415.265 60.9585 413.564 61.74C411.863 62.5215 409.749 62.8893 407.22 62.8893C405.657 62.9353 404.048 62.6135 402.439 61.9698ZM414.484 58.5219C415.541 57.7404 416.507 56.6831 417.426 55.3039V45.4199H415.219C411.634 45.4199 408.783 46.1095 406.669 47.4427C404.554 48.7759 403.542 50.5688 403.542 52.7295C403.542 54.9821 404.232 56.6831 405.565 57.8783C406.898 59.0736 408.553 59.6712 410.484 59.6712C412.093 59.6712 413.426 59.3035 414.484 58.5219Z" fill="white"/>
<path d="M183.704 57.649C183.704 57.649 179.153 47.765 180.624 37.2374C182.923 20.5496 178.647 7.40157 162.143 -0.0458984C162.143 -0.0458984 163.66 5.83852 161.5 15.9983C159.339 26.2041 145.456 59.5339 186.279 62.2002C186.279 62.2002 155.018 57.695 163.339 28.3648C163.339 28.4108 163.063 51.6267 183.704 57.649Z" fill="white"/>
<path d="M186.003 57.6488C186.003 57.6488 181.681 49.7416 183.428 42.6159C185.175 35.4903 213.08 21.193 209.449 7.40137C209.449 7.40137 229.952 51.5805 187.06 59.5336C187.06 59.5336 210.138 53.1895 210.874 33.6054C210.874 33.6514 205.725 51.0748 186.003 57.6488Z" fill="white"/>
<path opacity="0.32" d="M162.143 0C162.143 0 179.337 8.64274 179.199 28.6865C179.199 28.6865 179.429 34.433 178.647 40.4554C177.866 46.4777 180.348 55.7641 183.704 57.6489C183.704 57.6489 179.153 47.7649 180.624 37.2373C182.923 20.5955 178.647 7.44747 162.143 0Z" fill="white"/>
<path opacity="0.32" d="M187.888 39.3978C189.543 36.8694 201.174 27.0773 201.174 27.0773C211.104 17.6531 210.736 11.217 209.954 8.68851C209.632 7.90699 209.449 7.44727 209.449 7.44727C213.08 21.1929 185.175 35.5362 183.428 42.6618C181.681 49.7875 186.003 57.6947 186.003 57.6947C182.877 43.7652 186.233 41.9263 187.888 39.3978Z" fill="white"/>
<path d="M183.015 36.8698C183.015 36.8698 188.761 14.7572 176.027 3.21826C176.027 3.21826 199.013 9.5624 198.691 25.2848C198.691 25.2848 191.29 15.3089 189.175 14.9411C189.175 14.9411 193.312 22.2967 183.015 36.8698Z" fill="white"/>
<path d="M2.29858 94.1507V79.8994H4.22941V92.4498H12.9181V79.8994H14.8489V94.1507H2.29858ZM15.3546 97.5986V94.0128L15.8603 94.1967H12.9641V92.4957H17.1935V97.6446H15.3546V97.5986Z" fill="white"/>
<path d="M42.9838 94.2888C41.5127 94.2888 40.1795 93.967 39.0762 93.3694C37.9728 92.7258 37.0994 91.8983 36.4558 90.7949C35.8122 89.6916 35.4904 88.4504 35.4904 87.0252C35.4904 85.6001 35.8122 84.3588 36.4098 83.3015C37.0074 82.1982 37.8349 81.3707 38.8923 80.7271C39.9496 80.0834 41.1449 79.8076 42.4781 79.8076C43.8113 79.8076 45.0066 80.1294 46.0639 80.7271C47.1213 81.3247 47.9028 82.1982 48.5004 83.2555C49.0981 84.3129 49.3739 85.6001 49.3739 87.0252C49.3739 87.1172 49.3739 87.2091 49.3739 87.3011C49.3739 87.393 49.3739 87.4849 49.3739 87.6229H36.9615V86.1977H48.3166L47.535 86.7494C47.535 85.738 47.3052 84.8186 46.8914 83.9911C46.4317 83.1636 45.8341 82.5659 45.0985 82.1062C44.317 81.6465 43.4435 81.4166 42.4781 81.4166C41.5127 81.4166 40.6392 81.6465 39.8577 82.1062C39.0762 82.5659 38.4785 83.2095 38.0188 83.9911C37.6051 84.8186 37.3752 85.738 37.3752 86.7954V87.0712C37.3752 88.1745 37.6051 89.094 38.1108 89.9215C38.5705 90.749 39.2601 91.3926 40.1335 91.8523C41.007 92.312 41.9724 92.5419 43.0757 92.5419C43.9492 92.5419 44.7307 92.404 45.5123 92.0821C46.2478 91.7603 46.8914 91.3006 47.4431 90.657L48.5464 91.8983C47.9028 92.6798 47.1213 93.2314 46.1559 93.6452C45.1905 94.0589 44.1331 94.2888 42.9838 94.2888Z" fill="white"/>
<path d="M69.6936 94.1507V79.8994H71.6244V86.1976H80.589V79.8994H82.5198V94.1507H80.589V87.8526H71.6244V94.1507H69.6936Z" fill="white"/>
<path d="M106.701 94.1507V81.0947L107.207 81.6004H101.322V79.8994H114.057V81.6004H108.172L108.678 81.0947V94.1507H106.701Z" fill="white"/>
<path d="M132.859 99.4373V79.9451H134.698V84.2205L134.514 87.0708L134.79 89.967V99.4832H132.859V99.4373ZM140.215 94.2884C138.973 94.2884 137.87 94.0126 136.859 93.4149C135.847 92.8633 135.066 92.0358 134.468 90.9324C133.871 89.8751 133.595 88.5419 133.595 86.9788C133.595 85.4158 133.871 84.1286 134.468 83.0252C135.066 81.9679 135.847 81.1404 136.813 80.5887C137.824 80.0371 138.927 79.7612 140.169 79.7612C141.502 79.7612 142.743 80.083 143.8 80.6807C144.858 81.2783 145.731 82.1518 146.329 83.2091C146.927 84.3125 147.248 85.5537 147.248 86.9788C147.248 88.404 146.927 89.6912 146.329 90.7945C145.731 91.8978 144.858 92.7253 143.8 93.323C142.789 93.9666 141.594 94.2884 140.215 94.2884ZM140.077 92.5874C141.088 92.5874 142.008 92.3576 142.789 91.8978C143.571 91.4381 144.214 90.7945 144.674 89.967C145.134 89.1395 145.364 88.1741 145.364 87.0708C145.364 85.9675 145.134 85.002 144.674 84.1745C144.214 83.3471 143.571 82.7034 142.789 82.2437C142.008 81.784 141.088 81.5541 140.077 81.5541C139.065 81.5541 138.146 81.784 137.364 82.2437C136.537 82.7034 135.939 83.3471 135.48 84.1745C135.02 85.002 134.79 85.9675 134.79 87.0708C134.79 88.1741 135.02 89.1395 135.48 89.967C135.939 90.7945 136.583 91.4381 137.364 91.8978C138.146 92.3576 139.065 92.5874 140.077 92.5874Z" fill="white"/>
<path d="M191.381 93.875C190.37 93.5991 189.497 93.1394 188.715 92.5418L189.359 91.1166C190.048 91.6223 190.83 91.9901 191.749 92.2659C192.669 92.5418 193.542 92.6797 194.416 92.6797C195.289 92.6797 196.071 92.5418 196.714 92.3119C197.358 92.0821 197.864 91.7602 198.231 91.3465C198.599 90.9328 198.783 90.473 198.783 89.9214C198.783 89.1398 198.461 88.5882 197.772 88.1285C197.082 87.7147 196.163 87.4849 194.967 87.4849H192.531V86.0597H194.829C195.519 86.0597 196.163 85.9678 196.714 85.7839C197.266 85.6 197.68 85.3242 197.955 85.0024C198.231 84.6806 198.415 84.2668 198.415 83.7611C198.415 83.2554 198.231 82.8417 197.864 82.4739C197.496 82.1061 197.036 81.8303 196.392 81.6464C195.795 81.4625 195.059 81.3706 194.324 81.3706C193.634 81.3706 192.899 81.5085 192.117 81.6924C191.335 81.8763 190.6 82.1521 189.864 82.5658L189.313 81.0947C190.14 80.681 190.968 80.3132 191.795 80.0834C192.623 79.8535 193.45 79.7615 194.278 79.7615C195.427 79.7156 196.438 79.8535 197.358 80.1753C198.277 80.4971 199.013 80.9109 199.519 81.5085C200.07 82.0602 200.346 82.7497 200.346 83.5772C200.346 84.2668 200.116 84.9104 199.702 85.4161C199.289 85.9218 198.691 86.3355 197.955 86.6574C197.22 86.9332 196.392 87.0711 195.473 87.0711L195.565 86.5654C197.174 86.5654 198.461 86.8872 199.381 87.5308C200.3 88.1744 200.76 89.0019 200.76 90.1053C200.76 90.9328 200.484 91.7143 199.932 92.3579C199.381 93.0015 198.599 93.5072 197.68 93.875C196.714 94.2427 195.657 94.4266 194.508 94.4266C193.45 94.3347 192.393 94.1508 191.381 93.875Z" fill="white"/>
<path d="M218.643 97.5986V92.4497H235.055V97.5986H233.216V94.1507H220.436V97.5986H218.643ZM230.917 93.2312V81.6003H224.068L223.884 84.7724C223.838 85.7378 223.792 86.6572 223.7 87.5767C223.608 88.4961 223.47 89.3236 223.286 90.1051C223.102 90.8867 222.826 91.4843 222.505 91.99C222.183 92.4497 221.723 92.7255 221.171 92.8175L219.241 92.4497C219.792 92.4497 220.252 92.2658 220.62 91.8521C220.988 91.4383 221.263 90.8407 221.447 90.1051C221.631 89.3696 221.769 88.4961 221.861 87.5767C221.953 86.6113 222.045 85.6458 222.091 84.6804L222.275 79.9453H232.802V93.2772H230.917V93.2312Z" fill="white"/>
<path d="M260.707 94.2887C259.328 94.2887 258.087 93.9669 256.984 93.3693C255.88 92.7257 255.053 91.8982 254.409 90.7949C253.766 89.6915 253.444 88.4503 253.444 87.0711C253.444 85.646 253.766 84.4047 254.409 83.3014C255.053 82.1981 255.88 81.3706 256.984 80.773C258.087 80.1753 259.328 79.8535 260.707 79.8535C262.132 79.8535 263.374 80.1753 264.477 80.773C265.58 81.4166 266.408 82.2441 267.051 83.3014C267.695 84.3588 267.971 85.646 267.971 87.0711C267.971 88.4963 267.649 89.7375 267.051 90.8408C266.408 91.9442 265.58 92.7717 264.477 93.4153C263.328 93.9669 262.086 94.2887 260.707 94.2887ZM260.707 92.5878C261.719 92.5878 262.638 92.3579 263.466 91.8982C264.247 91.4385 264.891 90.7949 265.35 89.9674C265.81 89.1399 266.04 88.1745 266.04 87.0711C266.04 85.9678 265.81 84.9564 265.35 84.1289C264.891 83.3014 264.247 82.6578 263.466 82.1981C262.684 81.7384 261.765 81.5085 260.753 81.5085C259.742 81.5085 258.822 81.7384 258.041 82.1981C257.259 82.6578 256.616 83.3014 256.156 84.1289C255.696 84.9564 255.467 85.9218 255.467 87.0711C255.467 88.1745 255.696 89.1399 256.156 89.9674C256.616 90.7949 257.259 91.4385 258.041 91.8982C258.776 92.3579 259.696 92.5878 260.707 92.5878Z" fill="white"/>
<path d="M288.107 99.4373V79.9451H289.946V84.2205L289.762 87.0708L290.038 89.967V99.4832H288.107V99.4373ZM295.462 94.2884C294.221 94.2884 293.118 94.0126 292.106 93.4149C291.095 92.8633 290.313 92.0358 289.716 90.9324C289.118 89.8751 288.842 88.5419 288.842 86.9788C288.842 85.4158 289.118 84.1286 289.716 83.0252C290.313 81.9679 291.095 81.1404 292.06 80.5887C293.072 80.0371 294.175 79.7612 295.416 79.7612C296.795 79.7612 297.991 80.083 299.048 80.6807C300.105 81.2783 300.979 82.1518 301.576 83.2091C302.174 84.3125 302.496 85.5537 302.496 86.9788C302.496 88.404 302.174 89.6912 301.576 90.7945C300.979 91.8978 300.105 92.7253 299.048 93.323C298.037 93.9666 296.841 94.2884 295.462 94.2884ZM295.324 92.5874C296.336 92.5874 297.255 92.3576 298.037 91.8978C298.818 91.4381 299.462 90.7945 299.922 89.967C300.381 89.1395 300.611 88.1741 300.611 87.0708C300.611 85.9675 300.381 85.002 299.922 84.1745C299.462 83.3471 298.818 82.7034 298.037 82.2437C297.255 81.784 296.336 81.5541 295.324 81.5541C294.313 81.5541 293.393 81.784 292.612 82.2437C291.784 82.7034 291.187 83.3471 290.727 84.1745C290.267 85.002 290.038 85.9675 290.038 87.0708C290.038 88.1741 290.267 89.1395 290.727 89.967C291.187 90.7945 291.83 91.4381 292.612 91.8978C293.439 92.3576 294.313 92.5874 295.324 92.5874Z" fill="white"/>
<path d="M328.608 94.2887C327.229 94.2887 325.988 93.9669 324.884 93.3693C323.781 92.7257 322.953 91.8982 322.31 90.7949C321.666 89.6915 321.344 88.4503 321.344 87.0711C321.344 85.646 321.666 84.4047 322.31 83.3014C322.953 82.1981 323.781 81.3706 324.884 80.773C325.988 80.1753 327.229 79.8535 328.608 79.8535C330.033 79.8535 331.274 80.1753 332.378 80.773C333.481 81.4166 334.309 82.2441 334.952 83.3014C335.596 84.3588 335.872 85.646 335.872 87.0711C335.872 88.4963 335.55 89.7375 334.952 90.8408C334.309 91.9442 333.481 92.7717 332.378 93.4153C331.274 93.9669 330.033 94.2887 328.608 94.2887ZM328.608 92.5878C329.619 92.5878 330.539 92.3579 331.366 91.8982C332.148 91.4385 332.792 90.7949 333.251 89.9674C333.711 89.1399 333.941 88.1745 333.941 87.0711C333.941 85.9678 333.711 84.9564 333.251 84.1289C332.792 83.3014 332.148 82.6578 331.366 82.1981C330.585 81.7384 329.665 81.5085 328.654 81.5085C327.643 81.5085 326.723 81.7384 325.942 82.1981C325.16 82.6578 324.517 83.3014 324.057 84.1289C323.597 84.9564 323.367 85.9218 323.367 87.0711C323.367 88.1745 323.597 89.1399 324.057 89.9674C324.517 90.7949 325.16 91.4385 325.942 91.8982C326.723 92.3579 327.597 92.5878 328.608 92.5878Z" fill="white"/>
<path d="M356.053 94.1507V79.8994H362.352C363.961 79.8994 365.248 80.2212 366.167 80.8189C367.087 81.4165 367.546 82.3359 367.546 83.5312C367.546 84.6805 367.087 85.5999 366.213 86.1976C365.34 86.8412 364.145 87.117 362.719 87.117L363.087 86.5654C364.788 86.5654 366.029 86.8872 366.811 87.5308C367.592 88.1744 368.006 89.0938 368.006 90.2891C368.006 91.5303 367.546 92.4498 366.673 93.1394C365.8 93.8289 364.374 94.1507 362.49 94.1507H356.053ZM357.892 86.2436H362.168C363.271 86.2436 364.099 86.0137 364.696 85.5999C365.294 85.1862 365.57 84.5886 365.57 83.7611C365.57 82.9795 365.294 82.3819 364.696 81.9682C364.099 81.5544 363.271 81.3705 362.168 81.3705H357.892V86.2436ZM357.892 92.6337H362.444C363.639 92.6337 364.558 92.4498 365.202 92.036C365.846 91.6683 366.121 91.0246 366.121 90.1512C366.121 89.2777 365.845 88.6341 365.294 88.2663C364.742 87.8526 363.869 87.6687 362.627 87.6687H357.892V92.6337Z" fill="white"/>
<path d="M387.36 80.6349L388.556 75.624L388.785 76.7733C388.372 76.7733 388.004 76.6353 387.728 76.3595C387.452 76.0837 387.314 75.7619 387.314 75.3022C387.314 74.8884 387.452 74.5206 387.728 74.2448C388.004 73.969 388.326 73.8311 388.739 73.8311C389.153 73.8311 389.475 73.969 389.751 74.2448C390.027 74.5206 390.165 74.8884 390.165 75.3022C390.165 75.4401 390.165 75.578 390.119 75.7159C390.119 75.8538 390.073 76.0377 390.027 76.1756C389.981 76.3595 389.935 76.5434 389.843 76.8192L388.693 80.543H387.36V80.6349Z" fill="white"/>
<path d="M409.105 94.1507L413.013 88.6801H415.035L411.22 94.1507H409.105ZM419.541 94.1507V89.0019L419.908 89.4156H415.081C413.242 89.4156 411.817 89.0019 410.806 88.2203C409.795 87.4388 409.243 86.2895 409.243 84.7265C409.243 83.1175 409.795 81.8762 410.898 81.0947C412.001 80.2672 413.472 79.8994 415.311 79.8994H421.288V94.1507H419.541ZM419.541 88.4502V81.0027L419.908 81.5544H415.357C414.024 81.5544 413.013 81.8302 412.277 82.3359C411.541 82.8416 411.174 83.6691 411.174 84.8184C411.174 86.9331 412.507 87.9905 415.219 87.9905H419.862L419.541 88.4502Z" fill="white"/>
</g>
<defs>
<clipPath id="clip0_185_2">
<rect width="424" height="99.4375" fill="white"/>
</clipPath>
</defs>
</svg>
