<svg width="33" height="34" viewBox="0 0 33 34" fill="none" xmlns="http://www.w3.org/2000/svg">
<rect opacity="0.15" y="0.324219" width="33" height="33" rx="10" fill="url(#paint0_radial_121_844)"/>
<rect x="3" y="3.32422" width="27" height="27" rx="10" fill="url(#paint1_radial_121_844)"/>
<path d="M13.6032 11.4942C14.3732 11.4942 15.0432 11.7092 15.6132 12.1392C16.1932 12.5692 16.6432 13.1892 16.9632 13.9992C17.2932 14.7992 17.4582 15.7742 17.4582 16.9242C17.4582 18.0442 17.2882 19.0242 16.9482 19.8642C16.6182 20.7042 16.1632 21.3592 15.5832 21.8292C15.0032 22.2992 14.3382 22.5342 13.5882 22.5342C12.8182 22.5342 12.1432 22.3192 11.5632 21.8892C10.9832 21.4592 10.5332 20.8392 10.2132 20.0292C9.89324 19.2192 9.73324 18.2442 9.73324 17.1042C9.73324 15.9842 9.89824 15.0042 10.2282 14.1642C10.5582 13.3242 11.0132 12.6692 11.5932 12.1992C12.1832 11.7292 12.8532 11.4942 13.6032 11.4942ZM13.5432 11.7642C12.8532 11.7642 12.3382 12.2192 11.9982 13.1292C11.6682 14.0392 11.5032 15.3442 11.5032 17.0442C11.5032 18.7942 11.6932 20.1042 12.0732 20.9742C12.4532 21.8342 12.9782 22.2642 13.6482 22.2642C14.3382 22.2642 14.8482 21.8092 15.1782 20.8992C15.5182 19.9892 15.6882 18.6842 15.6882 16.9842C15.6882 15.2342 15.4932 13.9292 15.1032 13.0692C14.7232 12.1992 14.2032 11.7642 13.5432 11.7642ZM22.3943 11.5542V20.7792C22.3943 21.1192 22.4243 21.3792 22.4843 21.5592C22.5443 21.7292 22.6593 21.8442 22.8293 21.9042C22.9993 21.9642 23.2443 22.0042 23.5643 22.0242V22.3242C23.3443 22.3042 23.0543 22.2942 22.6943 22.2942C22.3443 22.2842 21.9693 22.2792 21.5693 22.2792C21.1393 22.2792 20.7143 22.2842 20.2943 22.2942C19.8743 22.2942 19.5343 22.3042 19.2743 22.3242V22.0242C19.6743 22.0042 19.9843 21.9642 20.2043 21.9042C20.4243 21.8342 20.5743 21.7042 20.6543 21.5142C20.7343 21.3242 20.7743 21.0492 20.7743 20.6892V13.9542C20.7743 13.6042 20.7243 13.3492 20.6243 13.1892C20.5243 13.0192 20.3493 12.9092 20.0993 12.8592C19.8493 12.8092 19.5043 12.7842 19.0643 12.7842V12.4692C19.9243 12.3492 20.6093 12.2092 21.1193 12.0492C21.6293 11.8792 22.0543 11.7142 22.3943 11.5542Z" fill="white"/>
<defs>
<radialGradient id="paint0_radial_121_844" cx="0" cy="0" r="1" gradientUnits="userSpaceOnUse" gradientTransform="translate(16.5 16.8242) rotate(-49.7358) scale(28.3188 62.2681)">
<stop stop-color="#86C3C4"/>
<stop offset="1" stop-color="#8CC4B9"/>
</radialGradient>
<radialGradient id="paint1_radial_121_844" cx="0" cy="0" r="1" gradientUnits="userSpaceOnUse" gradientTransform="translate(16.5 16.8242) rotate(-49.7358) scale(23.1699 50.9466)">
<stop stop-color="#86C3C4"/>
<stop offset="1" stop-color="#8CC4B9"/>
</radialGradient>
</defs>
</svg>
