<svg width="33" height="33" viewBox="0 0 33 33" fill="none" xmlns="http://www.w3.org/2000/svg">
<rect opacity="0.15" width="33" height="33" rx="10" fill="url(#paint0_radial_121_1028)"/>
<rect x="3" y="3" width="27" height="27" rx="10" fill="url(#paint1_radial_121_1028)"/>
<path d="M12.7632 11.23V20.455C12.7632 20.795 12.7932 21.055 12.8532 21.235C12.9132 21.405 13.0282 21.52 13.1982 21.58C13.3682 21.64 13.6132 21.68 13.9332 21.7V22C13.7132 21.98 13.4232 21.97 13.0632 21.97C12.7132 21.96 12.3382 21.955 11.9382 21.955C11.5082 21.955 11.0832 21.96 10.6632 21.97C10.2432 21.97 9.90324 21.98 9.64324 22V21.7C10.0432 21.68 10.3532 21.64 10.5732 21.58C10.7932 21.51 10.9432 21.38 11.0232 21.19C11.1032 21 11.1432 20.725 11.1432 20.365V13.63C11.1432 13.28 11.0932 13.025 10.9932 12.865C10.8932 12.695 10.7182 12.585 10.4682 12.535C10.2182 12.485 9.87324 12.46 9.43324 12.46V12.145C10.2932 12.025 10.9782 11.885 11.4882 11.725C11.9982 11.555 12.4232 11.39 12.7632 11.23ZM19.4257 11.17C20.1957 11.17 20.8657 11.385 21.4357 11.815C22.0157 12.245 22.4657 12.865 22.7857 13.675C23.1157 14.475 23.2807 15.45 23.2807 16.6C23.2807 17.72 23.1107 18.7 22.7707 19.54C22.4407 20.38 21.9857 21.035 21.4057 21.505C20.8257 21.975 20.1607 22.21 19.4107 22.21C18.6407 22.21 17.9657 21.995 17.3857 21.565C16.8057 21.135 16.3557 20.515 16.0357 19.705C15.7157 18.895 15.5557 17.92 15.5557 16.78C15.5557 15.66 15.7207 14.68 16.0507 13.84C16.3807 13 16.8357 12.345 17.4157 11.875C18.0057 11.405 18.6757 11.17 19.4257 11.17ZM19.3657 11.44C18.6757 11.44 18.1607 11.895 17.8207 12.805C17.4907 13.715 17.3257 15.02 17.3257 16.72C17.3257 18.47 17.5157 19.78 17.8957 20.65C18.2757 21.51 18.8007 21.94 19.4707 21.94C20.1607 21.94 20.6707 21.485 21.0007 20.575C21.3407 19.665 21.5107 18.36 21.5107 16.66C21.5107 14.91 21.3157 13.605 20.9257 12.745C20.5457 11.875 20.0257 11.44 19.3657 11.44Z" fill="white"/>
<defs>
<radialGradient id="paint0_radial_121_1028" cx="0" cy="0" r="1" gradientUnits="userSpaceOnUse" gradientTransform="translate(16.5 16.5) rotate(-49.7358) scale(28.3188 62.2681)">
<stop stop-color="#86C3C4"/>
<stop offset="1" stop-color="#8CC4B9"/>
</radialGradient>
<radialGradient id="paint1_radial_121_1028" cx="0" cy="0" r="1" gradientUnits="userSpaceOnUse" gradientTransform="translate(16.5 16.5) rotate(-49.7358) scale(23.1699 50.9466)">
<stop stop-color="#86C3C4"/>
<stop offset="1" stop-color="#8CC4B9"/>
</radialGradient>
</defs>
</svg>
