<svg width="33" height="33" viewBox="0 0 33 33" fill="none" xmlns="http://www.w3.org/2000/svg">
<rect opacity="0.15" width="33" height="33" rx="10" fill="url(#paint0_radial_121_1040)"/>
<rect x="3" y="3" width="27" height="27" rx="10" fill="url(#paint1_radial_121_1040)"/>
<path d="M14.6675 11.23V20.455C14.6675 20.795 14.6975 21.055 14.7575 21.235C14.8175 21.405 14.9325 21.52 15.1025 21.58C15.2725 21.64 15.5175 21.68 15.8375 21.7V22C15.6175 21.98 15.3275 21.97 14.9675 21.97C14.6175 21.96 14.2425 21.955 13.8425 21.955C13.4125 21.955 12.9875 21.96 12.5675 21.97C12.1475 21.97 11.8075 21.98 11.5475 22V21.7C11.9475 21.68 12.2575 21.64 12.4775 21.58C12.6975 21.51 12.8475 21.38 12.9275 21.19C13.0075 21 13.0475 20.725 13.0475 20.365V13.63C13.0475 13.28 12.9975 13.025 12.8975 12.865C12.7975 12.695 12.6225 12.585 12.3725 12.535C12.1225 12.485 11.7775 12.46 11.3375 12.46V12.145C12.1975 12.025 12.8825 11.885 13.3925 11.725C13.9025 11.555 14.3275 11.39 14.6675 11.23ZM20.49 11.23V20.455C20.49 20.795 20.52 21.055 20.58 21.235C20.64 21.405 20.755 21.52 20.925 21.58C21.095 21.64 21.34 21.68 21.66 21.7V22C21.44 21.98 21.15 21.97 20.79 21.97C20.44 21.96 20.065 21.955 19.665 21.955C19.235 21.955 18.81 21.96 18.39 21.97C17.97 21.97 17.63 21.98 17.37 22V21.7C17.77 21.68 18.08 21.64 18.3 21.58C18.52 21.51 18.67 21.38 18.75 21.19C18.83 21 18.87 20.725 18.87 20.365V13.63C18.87 13.28 18.82 13.025 18.72 12.865C18.62 12.695 18.445 12.585 18.195 12.535C17.945 12.485 17.6 12.46 17.16 12.46V12.145C18.02 12.025 18.705 11.885 19.215 11.725C19.725 11.555 20.15 11.39 20.49 11.23Z" fill="white"/>
<defs>
<radialGradient id="paint0_radial_121_1040" cx="0" cy="0" r="1" gradientUnits="userSpaceOnUse" gradientTransform="translate(16.5 16.5) rotate(-49.7358) scale(28.3188 62.2681)">
<stop stop-color="#86C3C4"/>
<stop offset="1" stop-color="#8CC4B9"/>
</radialGradient>
<radialGradient id="paint1_radial_121_1040" cx="0" cy="0" r="1" gradientUnits="userSpaceOnUse" gradientTransform="translate(16.5 16.5) rotate(-49.7358) scale(23.1699 50.9466)">
<stop stop-color="#86C3C4"/>
<stop offset="1" stop-color="#8CC4B9"/>
</radialGradient>
</defs>
</svg>
