<svg width="33" height="33" viewBox="0 0 33 33" fill="none" xmlns="http://www.w3.org/2000/svg">
<rect opacity="0.15" width="33" height="33" rx="10" fill="url(#paint0_radial_121_1034)"/>
<rect x="3" y="3" width="27" height="27" rx="10" fill="url(#paint1_radial_121_1034)"/>
<path d="M13.5909 11.23V20.455C13.5909 20.795 13.6209 21.055 13.6809 21.235C13.7409 21.405 13.8559 21.52 14.0259 21.58C14.1959 21.64 14.4409 21.68 14.7609 21.7V22C14.5409 21.98 14.2509 21.97 13.8909 21.97C13.5409 21.96 13.1659 21.955 12.7659 21.955C12.3359 21.955 11.9109 21.96 11.4909 21.97C11.0709 21.97 10.7309 21.98 10.4709 22V21.7C10.8709 21.68 11.1809 21.64 11.4009 21.58C11.6209 21.51 11.7709 21.38 11.8509 21.19C11.9309 21 11.9709 20.725 11.9709 20.365V13.63C11.9709 13.28 11.9209 13.025 11.8209 12.865C11.7209 12.695 11.5459 12.585 11.2959 12.535C11.0459 12.485 10.7009 12.46 10.2609 12.46V12.145C11.1209 12.025 11.8059 11.885 12.3159 11.725C12.8259 11.555 13.2509 11.39 13.5909 11.23ZM19.2633 11.17C19.8233 11.17 20.3233 11.265 20.7633 11.455C21.2133 11.645 21.5683 11.92 21.8283 12.28C22.0983 12.64 22.2333 13.095 22.2333 13.645C22.2333 14.175 22.0983 14.695 21.8283 15.205C21.5683 15.715 21.2083 16.245 20.7483 16.795C20.2983 17.345 19.7933 17.935 19.2333 18.565C18.6833 19.195 18.1183 19.89 17.5383 20.65H21.0033C21.3033 20.65 21.5433 20.565 21.7233 20.395C21.9033 20.215 22.0233 19.875 22.0833 19.375H22.4283C22.4183 19.485 22.4083 19.62 22.3983 19.78C22.3883 19.94 22.3833 20.09 22.3833 20.23C22.3833 20.44 22.3883 20.705 22.3983 21.025C22.4183 21.345 22.4483 21.67 22.4883 22H18.9633C18.3033 22 17.7683 21.995 17.3583 21.985C16.9483 21.975 16.5483 21.98 16.1583 22V21.7C16.4983 21.35 16.8633 20.95 17.2533 20.5C17.6433 20.05 18.0283 19.565 18.4083 19.045C18.7983 18.525 19.1483 17.985 19.4583 17.425C19.7783 16.855 20.0333 16.27 20.2233 15.67C20.4133 15.07 20.5083 14.47 20.5083 13.87C20.5083 13.31 20.4283 12.86 20.2683 12.52C20.1083 12.17 19.8933 11.915 19.6233 11.755C19.3533 11.585 19.0533 11.5 18.7233 11.5C18.4133 11.5 18.1083 11.575 17.8083 11.725C17.5083 11.875 17.2983 12.095 17.1783 12.385C17.4283 12.435 17.6383 12.535 17.8083 12.685C17.9883 12.835 18.0783 13.035 18.0783 13.285C18.0783 13.555 17.9833 13.77 17.7933 13.93C17.6133 14.09 17.3933 14.17 17.1333 14.17C16.8433 14.17 16.6233 14.08 16.4733 13.9C16.3233 13.71 16.2483 13.495 16.2483 13.255C16.2483 13.065 16.2983 12.865 16.3983 12.655C16.5083 12.445 16.6583 12.25 16.8483 12.07C17.1683 11.75 17.5383 11.52 17.9583 11.38C18.3783 11.24 18.8133 11.17 19.2633 11.17Z" fill="white"/>
<defs>
<radialGradient id="paint0_radial_121_1034" cx="0" cy="0" r="1" gradientUnits="userSpaceOnUse" gradientTransform="translate(16.5 16.5) rotate(-49.7358) scale(28.3188 62.2681)">
<stop stop-color="#86C3C4"/>
<stop offset="1" stop-color="#8CC4B9"/>
</radialGradient>
<radialGradient id="paint1_radial_121_1034" cx="0" cy="0" r="1" gradientUnits="userSpaceOnUse" gradientTransform="translate(16.5 16.5) rotate(-49.7358) scale(23.1699 50.9466)">
<stop stop-color="#86C3C4"/>
<stop offset="1" stop-color="#8CC4B9"/>
</radialGradient>
</defs>
</svg>
