<svg width="33" height="34" viewBox="0 0 33 34" fill="none" xmlns="http://www.w3.org/2000/svg">
<rect opacity="0.15" y="0.324219" width="33" height="33" rx="10" fill="url(#paint0_radial_121_851)"/>
<rect x="3" y="3.32422" width="27" height="27" rx="10" fill="url(#paint1_radial_121_851)"/>
<path d="M12.5266 11.4942C13.2966 11.4942 13.9666 11.7092 14.5366 12.1392C15.1166 12.5692 15.5666 13.1892 15.8866 13.9992C16.2166 14.7992 16.3816 15.7742 16.3816 16.9242C16.3816 18.0442 16.2116 19.0242 15.8716 19.8642C15.5416 20.7042 15.0866 21.3592 14.5066 21.8292C13.9266 22.2992 13.2616 22.5342 12.5116 22.5342C11.7416 22.5342 11.0666 22.3192 10.4866 21.8892C9.90658 21.4592 9.45658 20.8392 9.13658 20.0292C8.81658 19.2192 8.65658 18.2442 8.65658 17.1042C8.65658 15.9842 8.82158 15.0042 9.15158 14.1642C9.48158 13.3242 9.93658 12.6692 10.5166 12.1992C11.1066 11.7292 11.7766 11.4942 12.5266 11.4942ZM12.4666 11.7642C11.7766 11.7642 11.2616 12.2192 10.9216 13.1292C10.5916 14.0392 10.4266 15.3442 10.4266 17.0442C10.4266 18.7942 10.6166 20.1042 10.9966 20.9742C11.3766 21.8342 11.9016 22.2642 12.5716 22.2642C13.2616 22.2642 13.7716 21.8092 14.1016 20.8992C14.4416 19.9892 14.6116 18.6842 14.6116 16.9842C14.6116 15.2342 14.4166 13.9292 14.0266 13.0692C13.6466 12.1992 13.1266 11.7642 12.4666 11.7642ZM21.1676 11.4942C21.7276 11.4942 22.2276 11.5892 22.6676 11.7792C23.1176 11.9692 23.4726 12.2442 23.7326 12.6042C24.0026 12.9642 24.1376 13.4192 24.1376 13.9692C24.1376 14.4992 24.0026 15.0192 23.7326 15.5292C23.4726 16.0392 23.1126 16.5692 22.6526 17.1192C22.2026 17.6692 21.6976 18.2592 21.1376 18.8892C20.5876 19.5192 20.0226 20.2142 19.4426 20.9742H22.9076C23.2076 20.9742 23.4476 20.8892 23.6276 20.7192C23.8076 20.5392 23.9276 20.1992 23.9876 19.6992H24.3326C24.3226 19.8092 24.3126 19.9442 24.3026 20.1042C24.2926 20.2642 24.2876 20.4142 24.2876 20.5542C24.2876 20.7642 24.2926 21.0292 24.3026 21.3492C24.3226 21.6692 24.3526 21.9942 24.3926 22.3242H20.8676C20.2076 22.3242 19.6726 22.3192 19.2626 22.3092C18.8526 22.2992 18.4526 22.3042 18.0626 22.3242V22.0242C18.4026 21.6742 18.7676 21.2742 19.1576 20.8242C19.5476 20.3742 19.9326 19.8892 20.3126 19.3692C20.7026 18.8492 21.0526 18.3092 21.3626 17.7492C21.6826 17.1792 21.9376 16.5942 22.1276 15.9942C22.3176 15.3942 22.4126 14.7942 22.4126 14.1942C22.4126 13.6342 22.3326 13.1842 22.1726 12.8442C22.0126 12.4942 21.7976 12.2392 21.5276 12.0792C21.2576 11.9092 20.9576 11.8242 20.6276 11.8242C20.3176 11.8242 20.0126 11.8992 19.7126 12.0492C19.4126 12.1992 19.2026 12.4192 19.0826 12.7092C19.3326 12.7592 19.5426 12.8592 19.7126 13.0092C19.8926 13.1592 19.9826 13.3592 19.9826 13.6092C19.9826 13.8792 19.8876 14.0942 19.6976 14.2542C19.5176 14.4142 19.2976 14.4942 19.0376 14.4942C18.7476 14.4942 18.5276 14.4042 18.3776 14.2242C18.2276 14.0342 18.1526 13.8192 18.1526 13.5792C18.1526 13.3892 18.2026 13.1892 18.3026 12.9792C18.4126 12.7692 18.5626 12.5742 18.7526 12.3942C19.0726 12.0742 19.4426 11.8442 19.8626 11.7042C20.2826 11.5642 20.7176 11.4942 21.1676 11.4942Z" fill="white"/>
<defs>
<radialGradient id="paint0_radial_121_851" cx="0" cy="0" r="1" gradientUnits="userSpaceOnUse" gradientTransform="translate(16.5 16.8242) rotate(-49.7358) scale(28.3188 62.2681)">
<stop stop-color="#86C3C4"/>
<stop offset="1" stop-color="#8CC4B9"/>
</radialGradient>
<radialGradient id="paint1_radial_121_851" cx="0" cy="0" r="1" gradientUnits="userSpaceOnUse" gradientTransform="translate(16.5 16.8242) rotate(-49.7358) scale(23.1699 50.9466)">
<stop stop-color="#86C3C4"/>
<stop offset="1" stop-color="#8CC4B9"/>
</radialGradient>
</defs>
</svg>
