<svg width="33" height="34" viewBox="0 0 33 34" fill="none" xmlns="http://www.w3.org/2000/svg">
<rect opacity="0.15" y="0.324219" width="33" height="33" rx="10" fill="url(#paint0_radial_121_857)"/>
<rect x="3" y="3.32422" width="27" height="27" rx="10" fill="url(#paint1_radial_121_857)"/>
<path d="M12.2922 11.4942C13.0622 11.4942 13.7322 11.7092 14.3022 12.1392C14.8822 12.5692 15.3322 13.1892 15.6522 13.9992C15.9822 14.7992 16.1472 15.7742 16.1472 16.9242C16.1472 18.0442 15.9772 19.0242 15.6372 19.8642C15.3072 20.7042 14.8522 21.3592 14.2722 21.8292C13.6922 22.2992 13.0272 22.5342 12.2772 22.5342C11.5072 22.5342 10.8322 22.3192 10.2522 21.8892C9.67221 21.4592 9.22221 20.8392 8.90221 20.0292C8.58221 19.2192 8.42221 18.2442 8.42221 17.1042C8.42221 15.9842 8.58721 15.0042 8.91721 14.1642C9.24721 13.3242 9.70221 12.6692 10.2822 12.1992C10.8722 11.7292 11.5422 11.4942 12.2922 11.4942ZM12.2322 11.7642C11.5422 11.7642 11.0272 12.2192 10.6872 13.1292C10.3572 14.0392 10.1922 15.3442 10.1922 17.0442C10.1922 18.7942 10.3822 20.1042 10.7622 20.9742C11.1422 21.8342 11.6672 22.2642 12.3372 22.2642C13.0272 22.2642 13.5372 21.8092 13.8672 20.8992C14.2072 19.9892 14.3772 18.6842 14.3772 16.9842C14.3772 15.2342 14.1822 13.9292 13.7922 13.0692C13.4122 12.1992 12.8922 11.7642 12.2322 11.7642ZM21.2933 11.4942C22.1333 11.4942 22.8133 11.6942 23.3333 12.0942C23.8533 12.4942 24.1133 13.0392 24.1133 13.7292C24.1133 14.2192 23.9683 14.6592 23.6783 15.0492C23.3883 15.4392 23.0183 15.7692 22.5683 16.0392C22.1183 16.2992 21.6533 16.4942 21.1733 16.6242C21.7833 16.6442 22.3533 16.7642 22.8833 16.9842C23.4233 17.1942 23.8583 17.5042 24.1883 17.9142C24.5183 18.3142 24.6833 18.8192 24.6833 19.4292C24.6833 19.9192 24.5733 20.3592 24.3533 20.7492C24.1433 21.1292 23.8483 21.4542 23.4683 21.7242C23.0983 21.9842 22.6683 22.1842 22.1783 22.3242C21.6883 22.4642 21.1683 22.5342 20.6183 22.5342C20.1283 22.5342 19.7133 22.4792 19.3733 22.3692C19.0433 22.2692 18.7783 22.1542 18.5783 22.0242C18.3583 21.8742 18.1833 21.7042 18.0533 21.5142C17.9233 21.3242 17.8583 21.1242 17.8583 20.9142C17.8583 20.6642 17.9433 20.4542 18.1133 20.2842C18.2833 20.1142 18.5083 20.0292 18.7883 20.0292C19.0483 20.0292 19.2683 20.1092 19.4483 20.2692C19.6283 20.4192 19.7183 20.6392 19.7183 20.9292C19.7183 21.1592 19.6483 21.3492 19.5083 21.4992C19.3783 21.6392 19.2083 21.7342 18.9983 21.7842C19.0883 21.9142 19.2733 22.0292 19.5533 22.1292C19.8433 22.2192 20.1633 22.2642 20.5133 22.2642C21.0633 22.2642 21.5183 22.1442 21.8783 21.9042C22.2483 21.6542 22.5233 21.3192 22.7033 20.8992C22.8933 20.4692 22.9883 19.9992 22.9883 19.4892C22.9883 18.6792 22.7883 18.0392 22.3883 17.5692C21.9983 17.0892 21.4783 16.8192 20.8283 16.7592C20.6783 16.8292 20.5583 16.8842 20.4683 16.9242C20.3783 16.9642 20.2883 16.9842 20.1983 16.9842C20.1083 16.9842 20.0333 16.9642 19.9733 16.9242C19.9133 16.8742 19.8833 16.8142 19.8833 16.7442C19.8833 16.6742 19.9183 16.6142 19.9883 16.5642C20.0583 16.5142 20.1483 16.4892 20.2583 16.4892C20.3483 16.4892 20.4333 16.4992 20.5133 16.5192C20.5933 16.5392 20.6783 16.5542 20.7683 16.5642C21.3483 16.4042 21.7633 16.0942 22.0133 15.6342C22.2633 15.1742 22.3883 14.6392 22.3883 14.0292C22.3883 13.3392 22.2483 12.7992 21.9683 12.4092C21.6883 12.0192 21.2783 11.8242 20.7383 11.8242C20.4183 11.8242 20.0983 11.8942 19.7783 12.0342C19.4683 12.1742 19.2433 12.3892 19.1033 12.6792C19.3633 12.7292 19.5783 12.8342 19.7483 12.9942C19.9183 13.1442 20.0033 13.3392 20.0033 13.5792C20.0033 13.8492 19.9083 14.0642 19.7183 14.2242C19.5383 14.3842 19.3233 14.4642 19.0733 14.4642C18.7833 14.4642 18.5583 14.3742 18.3983 14.1942C18.2483 14.0042 18.1733 13.7942 18.1733 13.5642C18.1733 13.3542 18.2283 13.1492 18.3383 12.9492C18.4483 12.7392 18.5983 12.5442 18.7883 12.3642C19.0783 12.0642 19.4483 11.8442 19.8983 11.7042C20.3483 11.5642 20.8133 11.4942 21.2933 11.4942Z" fill="white"/>
<defs>
<radialGradient id="paint0_radial_121_857" cx="0" cy="0" r="1" gradientUnits="userSpaceOnUse" gradientTransform="translate(16.5 16.8242) rotate(-49.7358) scale(28.3188 62.2681)">
<stop stop-color="#86C3C4"/>
<stop offset="1" stop-color="#8CC4B9"/>
</radialGradient>
<radialGradient id="paint1_radial_121_857" cx="0" cy="0" r="1" gradientUnits="userSpaceOnUse" gradientTransform="translate(16.5 16.8242) rotate(-49.7358) scale(23.1699 50.9466)">
<stop stop-color="#86C3C4"/>
<stop offset="1" stop-color="#8CC4B9"/>
</radialGradient>
</defs>
</svg>
