<svg width="33" height="34" viewBox="0 0 33 34" fill="none" xmlns="http://www.w3.org/2000/svg">
<rect opacity="0.15" y="0.324219" width="33" height="33" rx="10" fill="url(#paint0_radial_121_863)"/>
<rect x="3" y="3.32422" width="27" height="27" rx="10" fill="url(#paint1_radial_121_863)"/>
<path d="M12.2922 11.4942C13.0622 11.4942 13.7322 11.7092 14.3022 12.1392C14.8822 12.5692 15.3322 13.1892 15.6522 13.9992C15.9822 14.7992 16.1472 15.7742 16.1472 16.9242C16.1472 18.0442 15.9772 19.0242 15.6372 19.8642C15.3072 20.7042 14.8522 21.3592 14.2722 21.8292C13.6922 22.2992 13.0272 22.5342 12.2772 22.5342C11.5072 22.5342 10.8322 22.3192 10.2522 21.8892C9.67221 21.4592 9.22221 20.8392 8.90221 20.0292C8.58221 19.2192 8.42221 18.2442 8.42221 17.1042C8.42221 15.9842 8.58721 15.0042 8.91721 14.1642C9.24721 13.3242 9.70221 12.6692 10.2822 12.1992C10.8722 11.7292 11.5422 11.4942 12.2922 11.4942ZM12.2322 11.7642C11.5422 11.7642 11.0272 12.2192 10.6872 13.1292C10.3572 14.0392 10.1922 15.3442 10.1922 17.0442C10.1922 18.7942 10.3822 20.1042 10.7622 20.9742C11.1422 21.8342 11.6672 22.2642 12.3372 22.2642C13.0272 22.2642 13.5372 21.8092 13.8672 20.8992C14.2072 19.9892 14.3772 18.6842 14.3772 16.9842C14.3772 15.2342 14.1822 13.9292 13.7922 13.0692C13.4122 12.1992 12.8922 11.7642 12.2322 11.7642ZM22.8983 11.4942L22.8683 11.9742L17.7833 19.4142L18.2933 18.5442H24.9383V19.6992H17.4533V19.3992L22.8983 11.4942ZM23.1383 11.4942V20.7342C23.1383 21.0942 23.1633 21.3642 23.2133 21.5442C23.2733 21.7242 23.3883 21.8442 23.5583 21.9042C23.7283 21.9642 23.9733 22.0042 24.2933 22.0242V22.3242C24.0733 22.3042 23.7833 22.2942 23.4233 22.2942C23.0733 22.2842 22.6933 22.2792 22.2833 22.2792C21.8933 22.2792 21.5033 22.2842 21.1133 22.2942C20.7333 22.2942 20.4133 22.3042 20.1533 22.3242V22.0242C20.5533 22.0042 20.8583 21.9642 21.0683 21.9042C21.2883 21.8442 21.4333 21.7242 21.5033 21.5442C21.5733 21.3642 21.6083 21.0942 21.6083 20.7342V13.6692L22.8983 11.4942H23.1383Z" fill="white"/>
<defs>
<radialGradient id="paint0_radial_121_863" cx="0" cy="0" r="1" gradientUnits="userSpaceOnUse" gradientTransform="translate(16.5 16.8242) rotate(-49.7358) scale(28.3188 62.2681)">
<stop stop-color="#86C3C4"/>
<stop offset="1" stop-color="#8CC4B9"/>
</radialGradient>
<radialGradient id="paint1_radial_121_863" cx="0" cy="0" r="1" gradientUnits="userSpaceOnUse" gradientTransform="translate(16.5 16.8242) rotate(-49.7358) scale(23.1699 50.9466)">
<stop stop-color="#86C3C4"/>
<stop offset="1" stop-color="#8CC4B9"/>
</radialGradient>
</defs>
</svg>
