<svg width="33" height="34" viewBox="0 0 33 34" fill="none" xmlns="http://www.w3.org/2000/svg">
<rect opacity="0.15" y="0.324219" width="33" height="33" rx="10" fill="url(#paint0_radial_121_869)"/>
<rect x="3" y="3.32422" width="27" height="27" rx="10" fill="url(#paint1_radial_121_869)"/>
<path d="M12.5119 11.4942C13.2819 11.4942 13.9519 11.7092 14.5219 12.1392C15.1019 12.5692 15.5519 13.1892 15.8719 13.9992C16.2019 14.7992 16.3669 15.7742 16.3669 16.9242C16.3669 18.0442 16.1969 19.0242 15.8569 19.8642C15.5269 20.7042 15.0719 21.3592 14.4919 21.8292C13.9119 22.2992 13.2469 22.5342 12.4969 22.5342C11.7269 22.5342 11.0519 22.3192 10.4719 21.8892C9.89193 21.4592 9.44193 20.8392 9.12193 20.0292C8.80193 19.2192 8.64193 18.2442 8.64193 17.1042C8.64193 15.9842 8.80693 15.0042 9.13693 14.1642C9.46693 13.3242 9.92193 12.6692 10.5019 12.1992C11.0919 11.7292 11.7619 11.4942 12.5119 11.4942ZM12.4519 11.7642C11.7619 11.7642 11.2469 12.2192 10.9069 13.1292C10.5769 14.0392 10.4119 15.3442 10.4119 17.0442C10.4119 18.7942 10.6019 20.1042 10.9819 20.9742C11.3619 21.8342 11.8869 22.2642 12.5569 22.2642C13.2469 22.2642 13.7569 21.8092 14.0869 20.8992C14.4269 19.9892 14.5969 18.6842 14.5969 16.9842C14.5969 15.2342 14.4019 13.9292 14.0119 13.0692C13.6319 12.1992 13.1119 11.7642 12.4519 11.7642ZM23.853 10.9542C23.843 11.0742 23.833 11.2242 23.823 11.4042C23.813 11.5742 23.808 11.7242 23.808 11.8542C23.808 12.0342 23.813 12.2242 23.823 12.4242C23.843 12.6142 23.873 12.8242 23.913 13.0542H19.158L18.993 16.4892C19.313 16.2692 19.653 16.1142 20.013 16.0242C20.383 15.9242 20.768 15.8742 21.168 15.8742C21.768 15.8742 22.323 15.9892 22.833 16.2192C23.343 16.4492 23.753 16.7992 24.063 17.2692C24.383 17.7392 24.543 18.3192 24.543 19.0092C24.543 19.7692 24.373 20.4142 24.033 20.9442C23.693 21.4642 23.233 21.8592 22.653 22.1292C22.083 22.3992 21.438 22.5342 20.718 22.5342C20.358 22.5342 20.023 22.4892 19.713 22.3992C19.413 22.3192 19.153 22.2042 18.933 22.0542C18.653 21.8842 18.443 21.6942 18.303 21.4842C18.163 21.2642 18.093 21.0542 18.093 20.8542C18.093 20.5942 18.178 20.3792 18.348 20.2092C18.518 20.0292 18.738 19.9392 19.008 19.9392C19.268 19.9392 19.483 20.0192 19.653 20.1792C19.833 20.3292 19.923 20.5492 19.923 20.8392C19.923 21.0792 19.853 21.2792 19.713 21.4392C19.583 21.5992 19.403 21.7092 19.173 21.7692C19.263 21.8992 19.443 22.0142 19.713 22.1142C19.993 22.2142 20.283 22.2642 20.583 22.2642C20.893 22.2642 21.183 22.2142 21.453 22.1142C21.733 22.0142 21.973 21.8392 22.173 21.5892C22.383 21.3392 22.543 21.0092 22.653 20.5992C22.763 20.1892 22.818 19.6742 22.818 19.0542C22.818 18.3942 22.728 17.8542 22.548 17.4342C22.368 17.0142 22.123 16.7042 21.813 16.5042C21.503 16.3042 21.163 16.2042 20.793 16.2042C20.573 16.2042 20.288 16.2492 19.938 16.3392C19.588 16.4192 19.248 16.5842 18.918 16.8342L18.678 16.7442L18.948 11.6442C19.148 11.6842 19.373 11.7042 19.623 11.7042H22.473C22.823 11.7042 23.083 11.6492 23.253 11.5392C23.423 11.4292 23.533 11.2342 23.583 10.9542H23.853Z" fill="white"/>
<defs>
<radialGradient id="paint0_radial_121_869" cx="0" cy="0" r="1" gradientUnits="userSpaceOnUse" gradientTransform="translate(16.5 16.8242) rotate(-49.7358) scale(28.3188 62.2681)">
<stop stop-color="#86C3C4"/>
<stop offset="1" stop-color="#8CC4B9"/>
</radialGradient>
<radialGradient id="paint1_radial_121_869" cx="0" cy="0" r="1" gradientUnits="userSpaceOnUse" gradientTransform="translate(16.5 16.8242) rotate(-49.7358) scale(23.1699 50.9466)">
<stop stop-color="#86C3C4"/>
<stop offset="1" stop-color="#8CC4B9"/>
</radialGradient>
</defs>
</svg>
