<svg width="33" height="34" viewBox="0 0 33 34" fill="none" xmlns="http://www.w3.org/2000/svg">
<rect opacity="0.15" y="0.324219" width="33" height="33" rx="10" fill="url(#paint0_radial_121_875)"/>
<rect x="3" y="3.32422" width="27" height="27" rx="10" fill="url(#paint1_radial_121_875)"/>
<path d="M12.0505 11.4942C12.8205 11.4942 13.4905 11.7092 14.0605 12.1392C14.6405 12.5692 15.0905 13.1892 15.4105 13.9992C15.7405 14.7992 15.9055 15.7742 15.9055 16.9242C15.9055 18.0442 15.7355 19.0242 15.3955 19.8642C15.0655 20.7042 14.6105 21.3592 14.0305 21.8292C13.4505 22.2992 12.7855 22.5342 12.0355 22.5342C11.2655 22.5342 10.5905 22.3192 10.0105 21.8892C9.43051 21.4592 8.98051 20.8392 8.66051 20.0292C8.34051 19.2192 8.18051 18.2442 8.18051 17.1042C8.18051 15.9842 8.34551 15.0042 8.67551 14.1642C9.00551 13.3242 9.46051 12.6692 10.0405 12.1992C10.6305 11.7292 11.3005 11.4942 12.0505 11.4942ZM11.9905 11.7642C11.3005 11.7642 10.7855 12.2192 10.4455 13.1292C10.1155 14.0392 9.95051 15.3442 9.95051 17.0442C9.95051 18.7942 10.1405 20.1042 10.5205 20.9742C10.9005 21.8342 11.4255 22.2642 12.0955 22.2642C12.7855 22.2642 13.2955 21.8092 13.6255 20.8992C13.9655 19.9892 14.1355 18.6842 14.1355 16.9842C14.1355 15.2342 13.9405 13.9292 13.5505 13.0692C13.1705 12.1992 12.6505 11.7642 11.9905 11.7642ZM22.0566 11.4942C22.2166 11.4942 22.3866 11.5092 22.5666 11.5392C22.7566 11.5592 22.9416 11.5942 23.1216 11.6442C23.3016 11.6942 23.4616 11.7642 23.6016 11.8542C23.8216 11.9642 24.0166 12.1192 24.1866 12.3192C24.3666 12.5092 24.4566 12.7342 24.4566 12.9942C24.4566 13.2542 24.3616 13.4742 24.1716 13.6542C23.9916 13.8242 23.7666 13.9092 23.4966 13.9092C23.2366 13.9092 23.0166 13.8292 22.8366 13.6692C22.6666 13.5092 22.5816 13.3042 22.5816 13.0542C22.5816 12.8442 22.6416 12.6542 22.7616 12.4842C22.8916 12.3142 23.0716 12.1892 23.3016 12.1092C23.1716 11.9792 22.9816 11.8892 22.7316 11.8392C22.4816 11.7792 22.2616 11.7492 22.0716 11.7492C21.7416 11.7492 21.4266 11.8342 21.1266 12.0042C20.8266 12.1742 20.5566 12.4692 20.3166 12.8892C20.0766 13.2992 19.8866 13.8692 19.7466 14.5992C19.6166 15.3192 19.5516 16.2392 19.5516 17.3592C19.5516 18.3492 19.6016 19.1642 19.7016 19.8042C19.8116 20.4342 19.9566 20.9292 20.1366 21.2892C20.3266 21.6392 20.5366 21.8842 20.7666 22.0242C20.9966 22.1642 21.2316 22.2342 21.4716 22.2342C21.7816 22.2342 22.0666 22.1292 22.3266 21.9192C22.5966 21.7092 22.8116 21.3642 22.9716 20.8842C23.1316 20.4042 23.2116 19.7692 23.2116 18.9792C23.2116 17.8992 23.0616 17.1242 22.7616 16.6542C22.4716 16.1742 22.0966 15.9342 21.6366 15.9342C21.4666 15.9342 21.2766 15.9742 21.0666 16.0542C20.8666 16.1242 20.6616 16.2592 20.4516 16.4592C20.2516 16.6492 20.0666 16.9242 19.8966 17.2842C19.7366 17.6442 19.6216 18.1092 19.5516 18.6792L19.3716 18.6492C19.4316 17.8892 19.5866 17.2892 19.8366 16.8492C20.0966 16.3992 20.4116 16.0792 20.7816 15.8892C21.1616 15.6992 21.5616 15.6042 21.9816 15.6042C22.4916 15.6042 22.9716 15.7292 23.4216 15.9792C23.8716 16.2192 24.2366 16.5892 24.5166 17.0892C24.7966 17.5792 24.9366 18.1992 24.9366 18.9492C24.9366 19.7392 24.7766 20.3992 24.4566 20.9292C24.1366 21.4592 23.7116 21.8592 23.1816 22.1292C22.6516 22.3992 22.0616 22.5342 21.4116 22.5342C20.2516 22.5342 19.3616 22.1092 18.7416 21.2592C18.1316 20.4092 17.8266 19.1742 17.8266 17.5542C17.8266 16.3042 18.0016 15.2292 18.3516 14.3292C18.7116 13.4192 19.2066 12.7192 19.8366 12.2292C20.4766 11.7392 21.2166 11.4942 22.0566 11.4942Z" fill="white"/>
<defs>
<radialGradient id="paint0_radial_121_875" cx="0" cy="0" r="1" gradientUnits="userSpaceOnUse" gradientTransform="translate(16.5 16.8242) rotate(-49.7358) scale(28.3188 62.2681)">
<stop stop-color="#86C3C4"/>
<stop offset="1" stop-color="#8CC4B9"/>
</radialGradient>
<radialGradient id="paint1_radial_121_875" cx="0" cy="0" r="1" gradientUnits="userSpaceOnUse" gradientTransform="translate(16.5 16.8242) rotate(-49.7358) scale(23.1699 50.9466)">
<stop stop-color="#86C3C4"/>
<stop offset="1" stop-color="#8CC4B9"/>
</radialGradient>
</defs>
</svg>
