<svg width="33" height="34" viewBox="0 0 33 34" fill="none" xmlns="http://www.w3.org/2000/svg">
<rect opacity="0.15" y="0.324219" width="33" height="33" rx="10" fill="url(#paint0_radial_121_881)"/>
<rect x="3" y="3.32422" width="27" height="27" rx="10" fill="url(#paint1_radial_121_881)"/>
<path d="M12.7243 11.4942C13.4943 11.4942 14.1643 11.7092 14.7343 12.1392C15.3143 12.5692 15.7643 13.1892 16.0843 13.9992C16.4143 14.7992 16.5793 15.7742 16.5793 16.9242C16.5793 18.0442 16.4093 19.0242 16.0693 19.8642C15.7393 20.7042 15.2843 21.3592 14.7043 21.8292C14.1243 22.2992 13.4593 22.5342 12.7093 22.5342C11.9393 22.5342 11.2643 22.3192 10.6843 21.8892C10.1043 21.4592 9.65434 20.8392 9.33434 20.0292C9.01434 19.2192 8.85434 18.2442 8.85434 17.1042C8.85434 15.9842 9.01934 15.0042 9.34934 14.1642C9.67934 13.3242 10.1343 12.6692 10.7143 12.1992C11.3043 11.7292 11.9743 11.4942 12.7243 11.4942ZM12.6643 11.7642C11.9743 11.7642 11.4593 12.2192 11.1193 13.1292C10.7893 14.0392 10.6243 15.3442 10.6243 17.0442C10.6243 18.7942 10.8143 20.1042 11.1943 20.9742C11.5743 21.8342 12.0993 22.2642 12.7693 22.2642C13.4593 22.2642 13.9693 21.8092 14.2993 20.8992C14.6393 19.9892 14.8093 18.6842 14.8093 16.9842C14.8093 15.2342 14.6143 13.9292 14.2243 13.0692C13.8443 12.1992 13.3243 11.7642 12.6643 11.7642ZM24.9054 11.7042V12.0192C24.6354 12.4892 24.3504 12.9742 24.0504 13.4742C23.7504 13.9742 23.4604 14.4942 23.1804 15.0342C22.9004 15.5742 22.6454 16.1342 22.4154 16.7142C22.1854 17.2942 22.0004 17.8992 21.8604 18.5292C21.7304 19.1592 21.6704 19.8142 21.6804 20.4942C21.6804 20.7242 21.6904 20.9392 21.7104 21.1392C21.7304 21.3292 21.7404 21.5092 21.7404 21.6792C21.7404 21.9192 21.6654 22.1242 21.5154 22.2942C21.3754 22.4542 21.1704 22.5342 20.9004 22.5342C20.6204 22.5342 20.4154 22.4392 20.2854 22.2492C20.1554 22.0592 20.0904 21.8442 20.0904 21.6042C20.0904 20.9542 20.1854 20.2992 20.3754 19.6392C20.5754 18.9792 20.8354 18.3192 21.1554 17.6592C21.4854 16.9992 21.8404 16.3542 22.2204 15.7242C22.6104 15.0942 23.0004 14.4892 23.3904 13.9092C23.7804 13.3292 24.1404 12.7892 24.4704 12.2892L24.0804 13.0542H19.9254C19.4654 13.0542 19.1204 13.1492 18.8904 13.3392C18.6704 13.5292 18.5354 13.8642 18.4854 14.3442H18.1404C18.1704 14.0242 18.1854 13.6242 18.1854 13.1442C18.1854 13.0042 18.1754 12.7992 18.1554 12.5292C18.1454 12.2592 18.1204 11.9842 18.0804 11.7042C18.4304 11.7142 18.8154 11.7242 19.2354 11.7342C19.6654 11.7442 20.0904 11.7492 20.5104 11.7492C20.9304 11.7492 21.3004 11.7492 21.6204 11.7492C22.3904 11.7492 23.0154 11.7442 23.4954 11.7342C23.9854 11.7242 24.4554 11.7142 24.9054 11.7042Z" fill="white"/>
<defs>
<radialGradient id="paint0_radial_121_881" cx="0" cy="0" r="1" gradientUnits="userSpaceOnUse" gradientTransform="translate(16.5 16.8242) rotate(-49.7358) scale(28.3188 62.2681)">
<stop stop-color="#86C3C4"/>
<stop offset="1" stop-color="#8CC4B9"/>
</radialGradient>
<radialGradient id="paint1_radial_121_881" cx="0" cy="0" r="1" gradientUnits="userSpaceOnUse" gradientTransform="translate(16.5 16.8242) rotate(-49.7358) scale(23.1699 50.9466)">
<stop stop-color="#86C3C4"/>
<stop offset="1" stop-color="#8CC4B9"/>
</radialGradient>
</defs>
</svg>
