<svg width="33" height="34" viewBox="0 0 33 34" fill="none" xmlns="http://www.w3.org/2000/svg">
<rect opacity="0.15" y="0.324219" width="33" height="33" rx="10" fill="url(#paint0_radial_121_887)"/>
<rect x="3" y="3.32422" width="27" height="27" rx="10" fill="url(#paint1_radial_121_887)"/>
<path d="M12.0798 11.4942C12.8498 11.4942 13.5198 11.7092 14.0898 12.1392C14.6698 12.5692 15.1198 13.1892 15.4398 13.9992C15.7698 14.7992 15.9348 15.7742 15.9348 16.9242C15.9348 18.0442 15.7648 19.0242 15.4248 19.8642C15.0948 20.7042 14.6398 21.3592 14.0598 21.8292C13.4798 22.2992 12.8148 22.5342 12.0648 22.5342C11.2948 22.5342 10.6198 22.3192 10.0398 21.8892C9.45981 21.4592 9.00981 20.8392 8.68981 20.0292C8.36981 19.2192 8.20981 18.2442 8.20981 17.1042C8.20981 15.9842 8.37481 15.0042 8.70481 14.1642C9.03481 13.3242 9.48981 12.6692 10.0698 12.1992C10.6598 11.7292 11.3298 11.4942 12.0798 11.4942ZM12.0198 11.7642C11.3298 11.7642 10.8148 12.2192 10.4748 13.1292C10.1448 14.0392 9.97981 15.3442 9.97981 17.0442C9.97981 18.7942 10.1698 20.1042 10.5498 20.9742C10.9298 21.8342 11.4548 22.2642 12.1248 22.2642C12.8148 22.2642 13.3248 21.8092 13.6548 20.8992C13.9948 19.9892 14.1648 18.6842 14.1648 16.9842C14.1648 15.2342 13.9698 13.9292 13.5798 13.0692C13.1998 12.1992 12.6798 11.7642 12.0198 11.7642ZM21.4259 11.4942C21.9659 11.4942 22.4559 11.5742 22.8959 11.7342C23.3359 11.8942 23.6859 12.1292 23.9459 12.4392C24.2059 12.7492 24.3359 13.1242 24.3359 13.5642C24.3359 14.1542 24.1109 14.6742 23.6609 15.1242C23.2109 15.5642 22.6209 15.9742 21.8909 16.3542L21.7709 16.1442C22.0609 15.9342 22.2909 15.6992 22.4609 15.4392C22.6309 15.1792 22.7559 14.9042 22.8359 14.6142C22.9159 14.3242 22.9559 14.0292 22.9559 13.7292C22.9559 13.1392 22.8109 12.6642 22.5209 12.3042C22.2309 11.9442 21.8159 11.7642 21.2759 11.7642C20.8159 11.7642 20.4409 11.8992 20.1509 12.1692C19.8609 12.4292 19.7159 12.7892 19.7159 13.2492C19.7159 13.7092 19.8409 14.1192 20.0909 14.4792C20.3409 14.8392 20.6609 15.1692 21.0509 15.4692C21.4509 15.7692 21.8709 16.0692 22.3109 16.3692C22.7509 16.6592 23.1659 16.9642 23.5559 17.2842C23.9559 17.6042 24.2809 17.9592 24.5309 18.3492C24.7809 18.7392 24.9059 19.1842 24.9059 19.6842C24.9059 20.2442 24.7459 20.7392 24.4259 21.1692C24.1059 21.5992 23.6659 21.9342 23.1059 22.1742C22.5559 22.4142 21.9259 22.5342 21.2159 22.5342C20.6159 22.5342 20.0509 22.4442 19.5209 22.2642C18.9909 22.0742 18.5609 21.7892 18.2309 21.4092C17.9009 21.0292 17.7359 20.5592 17.7359 19.9992C17.7359 19.4892 17.8659 19.0342 18.1259 18.6342C18.3959 18.2342 18.7509 17.8842 19.1909 17.5842C19.6309 17.2742 20.1209 17.0142 20.6609 16.8042L20.7809 17.0142C20.2309 17.3542 19.8359 17.7642 19.5959 18.2442C19.3559 18.7242 19.2359 19.2292 19.2359 19.7592C19.2359 20.1992 19.3059 20.6092 19.4459 20.9892C19.5859 21.3692 19.8059 21.6792 20.1059 21.9192C20.4159 22.1492 20.8159 22.2642 21.3059 22.2642C21.6859 22.2642 22.0309 22.1942 22.3409 22.0542C22.6509 21.9042 22.8959 21.6892 23.0759 21.4092C23.2659 21.1292 23.3609 20.7992 23.3609 20.4192C23.3609 19.9392 23.2359 19.5142 22.9859 19.1442C22.7459 18.7642 22.4309 18.4142 22.0409 18.0942C21.6609 17.7742 21.2509 17.4642 20.8109 17.1642C20.3809 16.8642 19.9709 16.5542 19.5809 16.2342C19.2009 15.9142 18.8859 15.5642 18.6359 15.1842C18.3959 14.7942 18.2759 14.3542 18.2759 13.8642C18.2759 13.3742 18.4159 12.9542 18.6959 12.6042C18.9859 12.2442 19.3709 11.9692 19.8509 11.7792C20.3309 11.5892 20.8559 11.4942 21.4259 11.4942Z" fill="white"/>
<defs>
<radialGradient id="paint0_radial_121_887" cx="0" cy="0" r="1" gradientUnits="userSpaceOnUse" gradientTransform="translate(16.5 16.8242) rotate(-49.7358) scale(28.3188 62.2681)">
<stop stop-color="#86C3C4"/>
<stop offset="1" stop-color="#8CC4B9"/>
</radialGradient>
<radialGradient id="paint1_radial_121_887" cx="0" cy="0" r="1" gradientUnits="userSpaceOnUse" gradientTransform="translate(16.5 16.8242) rotate(-49.7358) scale(23.1699 50.9466)">
<stop stop-color="#86C3C4"/>
<stop offset="1" stop-color="#8CC4B9"/>
</radialGradient>
</defs>
</svg>
