<svg width="33" height="34" viewBox="0 0 33 34" fill="none" xmlns="http://www.w3.org/2000/svg">
<rect opacity="0.15" y="0.324219" width="33" height="33" rx="10" fill="url(#paint0_radial_121_893)"/>
<rect x="3" y="3.32422" width="27" height="27" rx="10" fill="url(#paint1_radial_121_893)"/>
<path d="M12.0505 11.4942C12.8205 11.4942 13.4905 11.7092 14.0605 12.1392C14.6405 12.5692 15.0905 13.1892 15.4105 13.9992C15.7405 14.7992 15.9055 15.7742 15.9055 16.9242C15.9055 18.0442 15.7355 19.0242 15.3955 19.8642C15.0655 20.7042 14.6105 21.3592 14.0305 21.8292C13.4505 22.2992 12.7855 22.5342 12.0355 22.5342C11.2655 22.5342 10.5905 22.3192 10.0105 21.8892C9.43051 21.4592 8.98051 20.8392 8.66051 20.0292C8.34051 19.2192 8.18051 18.2442 8.18051 17.1042C8.18051 15.9842 8.34551 15.0042 8.67551 14.1642C9.00551 13.3242 9.46051 12.6692 10.0405 12.1992C10.6305 11.7292 11.3005 11.4942 12.0505 11.4942ZM11.9905 11.7642C11.3005 11.7642 10.7855 12.2192 10.4455 13.1292C10.1155 14.0392 9.95051 15.3442 9.95051 17.0442C9.95051 18.7942 10.1405 20.1042 10.5205 20.9742C10.9005 21.8342 11.4255 22.2642 12.0955 22.2642C12.7855 22.2642 13.2955 21.8092 13.6255 20.8992C13.9655 19.9892 14.1355 18.6842 14.1355 16.9842C14.1355 15.2342 13.9405 13.9292 13.5505 13.0692C13.1705 12.1992 12.6505 11.7642 11.9905 11.7642ZM21.2316 11.4942C22.3716 11.4942 23.2516 11.9192 23.8716 12.7692C24.4916 13.6192 24.8016 14.8592 24.8016 16.4892C24.8016 17.7192 24.6216 18.7892 24.2616 19.6992C23.9116 20.6092 23.4216 21.3092 22.7916 21.7992C22.1616 22.2892 21.4316 22.5342 20.6016 22.5342C20.3116 22.5342 20.0316 22.5042 19.7616 22.4442C19.4916 22.3942 19.2416 22.3042 19.0116 22.1742C18.8116 22.0642 18.6216 21.9092 18.4416 21.7092C18.2616 21.5092 18.1716 21.2842 18.1716 21.0342C18.1716 20.7642 18.2616 20.5442 18.4416 20.3742C18.6216 20.2042 18.8516 20.1192 19.1316 20.1192C19.3816 20.1192 19.5966 20.1992 19.7766 20.3592C19.9566 20.5092 20.0466 20.7192 20.0466 20.9892C20.0466 21.1792 19.9816 21.3642 19.8516 21.5442C19.7316 21.7142 19.5566 21.8392 19.3266 21.9192C19.4566 22.0492 19.6466 22.1442 19.8966 22.2042C20.1466 22.2542 20.3666 22.2792 20.5566 22.2792C20.8766 22.2792 21.1866 22.1942 21.4866 22.0242C21.7966 21.8542 22.0666 21.5642 22.2966 21.1542C22.5366 20.7442 22.7266 20.1792 22.8666 19.4592C23.0066 18.7392 23.0766 17.8292 23.0766 16.7292C23.0766 15.7192 23.0216 14.8942 22.9116 14.2542C22.8116 13.6042 22.6666 13.1042 22.4766 12.7542C22.2966 12.3942 22.0916 12.1442 21.8616 12.0042C21.6416 11.8642 21.4116 11.7942 21.1716 11.7942C20.8516 11.7942 20.5566 11.8992 20.2866 12.1092C20.0266 12.3192 19.8166 12.6642 19.6566 13.1442C19.4966 13.6142 19.4166 14.2492 19.4166 15.0492C19.4166 16.1292 19.5616 16.9092 19.8516 17.3892C20.1516 17.8592 20.5316 18.0942 20.9916 18.0942C21.1616 18.0942 21.3466 18.0542 21.5466 17.9742C21.7566 17.8942 21.9616 17.7542 22.1616 17.5542C22.3716 17.3542 22.5566 17.0742 22.7166 16.7142C22.8866 16.3442 23.0066 15.8692 23.0766 15.2892L23.2566 15.3192C23.1866 16.0892 23.0266 16.7042 22.7766 17.1642C22.5266 17.6142 22.2166 17.9392 21.8466 18.1392C21.4766 18.3292 21.0716 18.4242 20.6316 18.4242C20.1216 18.4242 19.6416 18.3042 19.1916 18.0642C18.7516 17.8142 18.3916 17.4442 18.1116 16.9542C17.8316 16.4542 17.6916 15.8292 17.6916 15.0792C17.6916 14.2892 17.8516 13.6292 18.1716 13.0992C18.4916 12.5692 18.9166 12.1692 19.4466 11.8992C19.9866 11.6292 20.5816 11.4942 21.2316 11.4942Z" fill="white"/>
<defs>
<radialGradient id="paint0_radial_121_893" cx="0" cy="0" r="1" gradientUnits="userSpaceOnUse" gradientTransform="translate(16.5 16.8242) rotate(-49.7358) scale(28.3188 62.2681)">
<stop stop-color="#86C3C4"/>
<stop offset="1" stop-color="#8CC4B9"/>
</radialGradient>
<radialGradient id="paint1_radial_121_893" cx="0" cy="0" r="1" gradientUnits="userSpaceOnUse" gradientTransform="translate(16.5 16.8242) rotate(-49.7358) scale(23.1699 50.9466)">
<stop stop-color="#86C3C4"/>
<stop offset="1" stop-color="#8CC4B9"/>
</radialGradient>
</defs>
</svg>
