<svg width="52" height="53" viewBox="0 0 52 53" fill="none" xmlns="http://www.w3.org/2000/svg">
<rect opacity="0.15" y="0.132812" width="52" height="52" rx="15.7576" fill="url(#paint0_radial_121_1210)"/>
<rect x="4.72705" y="4.85938" width="42.5455" height="42.5455" rx="15.7576" fill="url(#paint1_radial_121_1210)"/>
<path d="M33.3333 16.0495H18.6666C17.9373 16.0495 17.2378 16.3392 16.7221 16.855C16.2064 17.3707 15.9166 18.0702 15.9166 18.7995V27.9662C15.9166 28.6955 16.2064 29.395 16.7221 29.9107C17.2378 30.4264 17.9373 30.7162 18.6666 30.7162H33.3333C34.0626 30.7162 34.7621 30.4264 35.2778 29.9107C35.7936 29.395 36.0833 28.6955 36.0833 27.9662V18.7995C36.0833 18.0702 35.7936 17.3707 35.2778 16.855C34.7621 16.3392 34.0626 16.0495 33.3333 16.0495ZM27.4391 24.1712L25.5508 25.2987C25.4116 25.3812 25.2531 25.4254 25.0913 25.4268C24.9295 25.4282 24.7702 25.3868 24.6296 25.3067C24.489 25.2266 24.3721 25.1108 24.2908 24.9709C24.2095 24.831 24.1667 24.6721 24.1666 24.5103V22.2553C24.1667 22.0935 24.2095 21.9346 24.2908 21.7948C24.3721 21.6549 24.489 21.539 24.6296 21.459C24.7702 21.3789 24.9295 21.3374 25.0913 21.3389C25.2531 21.3403 25.4116 21.3845 25.5508 21.467L27.4391 22.5945C27.5759 22.6757 27.6892 22.791 27.7679 22.9292C27.8466 23.0675 27.888 23.2238 27.888 23.3828C27.888 23.5419 27.8466 23.6982 27.7679 23.8364C27.6892 23.9746 27.5759 24.09 27.4391 24.1712Z" fill="white"/>
<path d="M33.3333 33.4662H30.5833C30.5833 33.2231 30.4868 32.9899 30.3148 32.818C30.1429 32.6461 29.9098 32.5495 29.6667 32.5495C29.4236 32.5495 29.1904 32.6461 29.0185 32.818C28.8466 32.9899 28.75 33.2231 28.75 33.4662H18.6667C18.4236 33.4662 18.1904 33.5627 18.0185 33.7347C17.8466 33.9066 17.75 34.1397 17.75 34.3828C17.75 34.6259 17.8466 34.8591 18.0185 35.031C18.1904 35.2029 18.4236 35.2995 18.6667 35.2995H28.75C28.75 35.5426 28.8466 35.7758 29.0185 35.9477C29.1904 36.1196 29.4236 36.2162 29.6667 36.2162C29.9098 36.2162 30.1429 36.1196 30.3148 35.9477C30.4868 35.7758 30.5833 35.5426 30.5833 35.2995H33.3333C33.5764 35.2995 33.8096 35.2029 33.9815 35.031C34.1534 34.8591 34.25 34.6259 34.25 34.3828C34.25 34.1397 34.1534 33.9066 33.9815 33.7347C33.8096 33.5627 33.5764 33.4662 33.3333 33.4662Z" fill="white"/>
<defs>
<radialGradient id="paint0_radial_121_1210" cx="0" cy="0" r="1" gradientUnits="userSpaceOnUse" gradientTransform="translate(26 26.1328) rotate(-49.7358) scale(44.6235 98.1194)">
<stop stop-color="#86C3C4"/>
<stop offset="1" stop-color="#8CC4B9"/>
</radialGradient>
<radialGradient id="paint1_radial_121_1210" cx="0" cy="0" r="1" gradientUnits="userSpaceOnUse" gradientTransform="translate(25.9998 26.1321) rotate(-49.7358) scale(36.5102 80.2795)">
<stop stop-color="#86C3C4"/>
<stop offset="1" stop-color="#8CC4B9"/>
</radialGradient>
</defs>
</svg>
