<svg width="52" height="53" viewBox="0 0 52 53" fill="none" xmlns="http://www.w3.org/2000/svg">
<rect opacity="0.15" y="0.132812" width="52" height="52" rx="15.7576" fill="url(#paint0_radial_121_1274)"/>
<rect x="4.72705" y="4.85938" width="42.5455" height="42.5455" rx="15.7576" fill="url(#paint1_radial_121_1274)"/>
<g clip-path="url(#clip0_121_1274)">
<path d="M35.8419 23.8575C35.7339 23.6626 35.5755 23.5002 35.3833 23.3874C35.1912 23.2746 34.9722 23.2154 34.7494 23.2161H22.9051C22.5058 23.2161 22.1172 23.3456 21.7977 23.5852C21.4783 23.8248 21.2451 24.1616 21.1333 24.5449L18.7889 32.5828C18.6655 33.0059 18.4082 33.3776 18.0556 33.6421C17.703 33.9065 17.2741 34.0495 16.8333 34.0495H31.7282C32.1691 34.0495 32.598 33.9065 32.9507 33.642C33.3034 33.3775 33.5608 33.0057 33.6842 32.5825L35.9348 24.8665C35.9872 24.7006 36.0059 24.5259 35.99 24.3527C35.974 24.1794 35.9236 24.0111 35.8419 23.8575Z" fill="white"/>
<path d="M17.9875 32.3495L20.3333 24.312C20.4968 23.7563 20.8353 23.2683 21.2986 22.9207C21.7618 22.5731 22.325 22.3844 22.9042 22.3828H33.5V21.9661C33.5 21.5241 33.3244 21.1002 33.0118 20.7876C32.6993 20.4751 32.2754 20.2995 31.8333 20.2995H25.4815C25.3574 20.2995 25.2348 20.2718 25.1226 20.2184C25.0105 20.1651 24.9117 20.0875 24.8333 19.9911L24.0143 18.984C23.8192 18.7441 23.573 18.5507 23.2938 18.4179C23.0146 18.2851 22.7092 18.2161 22.4 18.2161H17.6667C17.2246 18.2161 16.8007 18.3917 16.4882 18.7043C16.1756 19.0168 16 19.4408 16 19.8828V32.3828C16 32.6038 16.0878 32.8158 16.2441 32.972C16.4004 33.1283 16.6123 33.2161 16.8333 33.2161C17.0934 33.2154 17.3463 33.1306 17.5543 32.9745C17.7623 32.8183 17.9143 32.599 17.9875 32.3495Z" fill="white"/>
</g>
<defs>
<radialGradient id="paint0_radial_121_1274" cx="0" cy="0" r="1" gradientUnits="userSpaceOnUse" gradientTransform="translate(26 26.1328) rotate(-49.7358) scale(44.6235 98.1194)">
<stop stop-color="#86C3C4"/>
<stop offset="1" stop-color="#8CC4B9"/>
</radialGradient>
<radialGradient id="paint1_radial_121_1274" cx="0" cy="0" r="1" gradientUnits="userSpaceOnUse" gradientTransform="translate(25.9998 26.1321) rotate(-49.7358) scale(36.5102 80.2795)">
<stop stop-color="#86C3C4"/>
<stop offset="1" stop-color="#8CC4B9"/>
</radialGradient>
<clipPath id="clip0_121_1274">
<rect width="20" height="20" fill="white" transform="translate(16 16.1328)"/>
</clipPath>
</defs>
</svg>
