<svg width="52" height="53" viewBox="0 0 52 53" fill="none" xmlns="http://www.w3.org/2000/svg">
<rect opacity="0.15" y="0.132812" width="52" height="52" rx="15.7576" fill="url(#paint0_radial_121_1283)"/>
<rect x="4.72705" y="4.85938" width="42.5455" height="42.5455" rx="15.7576" fill="url(#paint1_radial_121_1283)"/>
<path d="M21.9225 28.2014C21.7462 28.2014 21.6274 28.2186 21.566 28.2359V29.3648C21.6389 29.382 21.7299 29.3868 21.8555 29.3868C22.3145 29.3868 22.5972 29.1549 22.5972 28.7629C22.5972 28.4122 22.3538 28.2014 21.9225 28.2014ZM25.2642 28.2129C25.0726 28.2129 24.948 28.2301 24.8742 28.2474V30.7486C24.948 30.7659 25.0668 30.7659 25.1741 30.7659C25.9571 30.7716 26.4669 30.3404 26.4669 29.428C26.4727 28.6326 26.0079 28.2129 25.2642 28.2129Z" fill="white"/>
<path d="M27.4166 16.0495H19.75C19.2417 16.0495 18.7541 16.2514 18.3947 16.6109C18.0352 16.9703 17.8333 17.4578 17.8333 17.9662V33.2995C17.8333 33.8078 18.0352 34.2953 18.3947 34.6548C18.7541 35.0142 19.2417 35.2162 19.75 35.2162H31.25C31.7583 35.2162 32.2458 35.0142 32.6053 34.6548C32.9647 34.2953 33.1666 33.8078 33.1666 33.2995V21.7995L27.4166 16.0495ZM23.1022 29.6482C22.8061 29.9262 22.3691 30.0507 21.8602 30.0507C21.7616 30.0518 21.6629 30.0461 21.5651 30.0335V31.4001H20.7083V27.6281C21.095 27.5704 21.4856 27.5441 21.8765 27.5495C22.4103 27.5495 22.7898 27.6511 23.0457 27.8552C23.2891 28.0488 23.4539 28.366 23.4539 28.7397C23.453 29.1154 23.3284 29.4326 23.1022 29.6482ZM26.7506 30.9468C26.3481 31.2812 25.7357 31.4403 24.9873 31.4403C24.5388 31.4403 24.2216 31.4116 24.0059 31.3828V27.629C24.3927 27.5726 24.7832 27.546 25.1741 27.5495C25.8996 27.5495 26.3711 27.6798 26.7391 27.9577C27.1368 28.2529 27.386 28.7235 27.386 29.3991C27.386 30.1303 27.1186 30.6353 26.7506 30.9468ZM30.2916 28.2874H28.8235V29.1605H30.1958V29.8639H28.8235V31.401H27.9552V27.5782H30.2916V28.2874ZM27.4166 22.7578H26.4583V17.9662L31.25 22.7578H27.4166Z" fill="white"/>
<defs>
<radialGradient id="paint0_radial_121_1283" cx="0" cy="0" r="1" gradientUnits="userSpaceOnUse" gradientTransform="translate(26 26.1328) rotate(-49.7358) scale(44.6235 98.1194)">
<stop stop-color="#86C3C4"/>
<stop offset="1" stop-color="#8CC4B9"/>
</radialGradient>
<radialGradient id="paint1_radial_121_1283" cx="0" cy="0" r="1" gradientUnits="userSpaceOnUse" gradientTransform="translate(25.9998 26.1321) rotate(-49.7358) scale(36.5102 80.2795)">
<stop stop-color="#86C3C4"/>
<stop offset="1" stop-color="#8CC4B9"/>
</radialGradient>
</defs>
</svg>
