<svg width="52" height="53" viewBox="0 0 52 53" fill="none" xmlns="http://www.w3.org/2000/svg">
<rect opacity="0.15" y="0.132812" width="52" height="52" rx="15.7576" fill="url(#paint0_radial_121_1303)"/>
<rect x="4.72705" y="4.85938" width="42.5455" height="42.5455" rx="15.7576" fill="url(#paint1_radial_121_1303)"/>
<path d="M13.0001 30.0273C13.0001 31.1981 13.3113 32.3382 13.9028 33.3474L13.0466 35.6291C12.9458 35.898 13.0116 36.2013 13.2147 36.4044C13.4194 36.6101 13.7252 36.672 13.99 36.5725L16.3205 35.7164C17.3297 36.3079 18.4698 36.619 19.6407 36.619C23.2755 36.619 26.2324 33.6621 26.2324 30.0273C26.2324 26.3924 23.2755 23.4355 19.6407 23.4355C16.0058 23.4355 13.0001 26.3924 13.0001 30.0273ZM22.5703 29.2949C22.9748 29.2949 23.3027 29.6227 23.3027 30.0273C23.3027 30.4318 22.9748 30.7597 22.5703 30.7597C22.1658 30.7597 21.8379 30.4318 21.8379 30.0273C21.8379 29.6227 22.1658 29.2949 22.5703 29.2949ZM19.6407 29.2949C20.0452 29.2949 20.3731 29.6227 20.3731 30.0273C20.3731 30.4318 20.0452 30.7597 19.6407 30.7597C19.2362 30.7597 18.9083 30.4318 18.9083 30.0273C18.9083 29.6227 19.2362 29.2949 19.6407 29.2949ZM16.711 29.2949C17.1155 29.2949 17.4434 29.6227 17.4434 30.0273C17.4434 30.4318 17.1155 30.7597 16.711 30.7597C16.3065 30.7597 15.9786 30.4318 15.9786 30.0273C15.9786 29.6227 16.3065 29.2949 16.711 29.2949Z" fill="white"/>
<path d="M29.8945 14.6466C25.585 14.6466 22.076 18.0329 21.8588 22.2885C25.2248 23.2551 27.6972 26.3549 27.6972 30.0273C27.6972 30.1674 27.6833 30.304 27.6762 30.4423C28.3793 30.6439 29.1208 30.7597 29.8945 30.7597C31.4249 30.7597 32.8505 30.3252 34.0691 29.5842C34.0788 29.5783 34.0896 29.5748 34.0994 29.5688L36.9956 30.7075C37.2718 30.8174 37.5811 30.7493 37.7852 30.5451C37.9927 30.3377 38.0563 30.0273 37.9476 29.7555L36.8089 26.9081C36.8164 26.8961 36.8211 26.8829 36.8284 26.8709C37.6193 25.5672 37.9998 24.0836 37.9998 22.7032C37.9998 18.2536 34.344 14.6466 29.8945 14.6466ZM26.9648 23.4356C26.5603 23.4356 26.2324 23.1076 26.2324 22.7032C26.2324 22.2986 26.5603 21.9707 26.9648 21.9707C27.3693 21.9707 27.6972 22.2986 27.6972 22.7032C27.6972 23.1076 27.3693 23.4356 26.9648 23.4356ZM29.8945 23.4356C29.49 23.4356 29.1621 23.1076 29.1621 22.7032C29.1621 22.2986 29.49 21.9707 29.8945 21.9707C30.299 21.9707 30.6269 22.2986 30.6269 22.7032C30.6269 23.1076 30.2989 23.4356 29.8945 23.4356ZM32.8241 23.4356C32.4196 23.4356 32.0917 23.1076 32.0917 22.7032C32.0917 22.2986 32.4196 21.9707 32.8241 21.9707C33.2286 21.9707 33.5565 22.2986 33.5565 22.7032C33.5565 23.1076 33.2286 23.4356 32.8241 23.4356Z" fill="white"/>
<defs>
<radialGradient id="paint0_radial_121_1303" cx="0" cy="0" r="1" gradientUnits="userSpaceOnUse" gradientTransform="translate(26 26.1328) rotate(-49.7358) scale(44.6235 98.1194)">
<stop stop-color="#86C3C4"/>
<stop offset="1" stop-color="#8CC4B9"/>
</radialGradient>
<radialGradient id="paint1_radial_121_1303" cx="0" cy="0" r="1" gradientUnits="userSpaceOnUse" gradientTransform="translate(25.9998 26.1321) rotate(-49.7358) scale(36.5102 80.2795)">
<stop stop-color="#86C3C4"/>
<stop offset="1" stop-color="#8CC4B9"/>
</radialGradient>
</defs>
</svg>
