<svg width="52" height="53" viewBox="0 0 52 53" fill="none" xmlns="http://www.w3.org/2000/svg">
<rect opacity="0.15" y="0.132812" width="52" height="52" rx="15.7576" fill="url(#paint0_radial_121_1316)"/>
<rect x="4.72705" y="4.85938" width="42.5455" height="42.5455" rx="15.7576" fill="url(#paint1_radial_121_1316)"/>
<g clip-path="url(#clip0_121_1316)">
<path d="M35.8906 25.4766H16.1094C14.9462 25.4766 14 26.4228 14 27.5859V36.0234C14 37.1866 14.9462 38.1328 16.1094 38.1328H35.8906C37.0538 38.1328 38 37.1866 38 36.0234V27.5859C38 26.4228 37.0538 25.4766 35.8906 25.4766ZM20.375 35.3203H17.5625C17.1739 35.3203 16.8594 35.0058 16.8594 34.6172V28.9922C16.8594 28.6035 17.1739 28.2891 17.5625 28.2891C17.9511 28.2891 18.2656 28.6035 18.2656 28.9922V33.9141H20.375C20.7636 33.9141 21.0781 34.2285 21.0781 34.6172C21.0781 35.0058 20.7636 35.3203 20.375 35.3203ZM23.8906 34.6172C23.8906 35.0058 23.5761 35.3203 23.1875 35.3203C22.7989 35.3203 22.4844 35.0058 22.4844 34.6172V28.9922C22.4844 28.6035 22.7989 28.2891 23.1875 28.2891C23.5761 28.2891 23.8906 28.6035 23.8906 28.9922V34.6172ZM29.4943 29.1625L28.0881 34.7875C28.0098 35.1006 27.729 35.3203 27.4062 35.3203C27.0835 35.3203 26.8027 35.1006 26.7244 34.7875L25.3182 29.1625C25.2234 28.7862 25.4527 28.4044 25.8297 28.3103C26.2053 28.2128 26.5878 28.4449 26.6818 28.8219L27.4062 31.7182L28.1307 28.8219C28.224 28.445 28.6058 28.2122 28.9828 28.3104C29.3598 28.4044 29.5891 28.7862 29.4943 29.1625ZM34.4375 31.1016C34.8261 31.1016 35.1406 31.416 35.1406 31.8047C35.1406 32.1933 34.8261 32.5078 34.4375 32.5078H32.3281V33.9141H34.4375C34.8261 33.9141 35.1406 34.2285 35.1406 34.6172C35.1406 35.0058 34.8261 35.3203 34.4375 35.3203H31.625C31.2364 35.3203 30.9219 35.0058 30.9219 34.6172V28.9922C30.9219 28.6035 31.2364 28.2891 31.625 28.2891H34.4375C34.8261 28.2891 35.1406 28.6035 35.1406 28.9922C35.1406 29.3808 34.8261 29.6953 34.4375 29.6953H32.3281V31.1016H34.4375Z" fill="white"/>
<path d="M19.8119 23.6958C17.7602 20.9629 17.7602 17.1465 19.8119 14.4137C20.0447 14.104 20.4862 14.0401 20.7966 14.2736C21.1069 14.5071 21.1694 14.9479 20.9366 15.2583C19.2578 17.4933 19.2578 20.6162 20.9366 22.8512C21.1694 23.1615 21.1069 23.6023 20.7966 23.8358C20.4875 24.0677 20.0458 24.0076 19.8119 23.6958Z" fill="white"/>
<path d="M31.2034 23.8358C30.8931 23.6023 30.8306 23.1615 31.0634 22.8511C32.7422 20.6161 32.7422 17.4932 31.0634 15.2582C30.8306 14.9478 30.8931 14.507 31.2034 14.2735C31.5138 14.0408 31.956 14.1039 32.1881 14.4136C34.2398 17.1465 34.2398 20.9628 32.1881 23.6957C31.9545 24.007 31.5131 24.068 31.2034 23.8358Z" fill="white"/>
<path d="M22.3313 22.3361C20.6559 20.4657 20.6559 17.6436 22.3313 15.7732C22.5908 15.4841 23.0372 15.4607 23.3242 15.7182C23.6132 15.9771 23.6379 16.422 23.3791 16.7111C22.1829 18.0473 22.1829 20.0619 23.3791 21.3982C23.6379 21.6872 23.6132 22.1322 23.3242 22.3911C23.0361 22.6496 22.5904 22.626 22.3313 22.3361Z" fill="white"/>
<path d="M28.6759 22.3911C28.3868 22.1323 28.3621 21.6873 28.6209 21.3982C29.8171 20.062 29.8171 18.0474 28.6209 16.7112C28.3621 16.4221 28.3868 15.9771 28.6759 15.7183C28.9642 15.4601 29.4099 15.4834 29.6688 15.7732C31.3442 17.6436 31.3442 20.4657 29.6688 22.3362C29.4097 22.626 28.964 22.6497 28.6759 22.3911Z" fill="white"/>
<path d="M26 21.1641C24.8368 21.1641 23.8906 20.2178 23.8906 19.0547C23.8906 17.8915 24.8368 16.9453 26 16.9453C27.1632 16.9453 28.1094 17.8915 28.1094 19.0547C28.1094 20.2178 27.1632 21.1641 26 21.1641Z" fill="white"/>
</g>
<defs>
<radialGradient id="paint0_radial_121_1316" cx="0" cy="0" r="1" gradientUnits="userSpaceOnUse" gradientTransform="translate(26 26.1328) rotate(-49.7358) scale(44.6235 98.1194)">
<stop stop-color="#86C3C4"/>
<stop offset="1" stop-color="#8CC4B9"/>
</radialGradient>
<radialGradient id="paint1_radial_121_1316" cx="0" cy="0" r="1" gradientUnits="userSpaceOnUse" gradientTransform="translate(25.9998 26.1321) rotate(-49.7358) scale(36.5102 80.2795)">
<stop stop-color="#86C3C4"/>
<stop offset="1" stop-color="#8CC4B9"/>
</radialGradient>
<clipPath id="clip0_121_1316">
<rect width="24" height="24" fill="white" transform="translate(14 14.1328)"/>
</clipPath>
</defs>
</svg>
